<svg id="Layer_1" xmlns="http://www.w3.org/2000/svg" viewBox="0 0 716.8 134.5"><style>.st0{fill:#FFFFFF;} .st1{fill:#F7A800;} .st2{fill-rule:evenodd;clip-rule:evenodd;fill:#FFFFFF;}</style><path class="st0" d="M0 92c1.5.1 3.2.1 4.7.1 4.4 0 7.8-1.6 7.8-8.3V17.3h13.7v65.4c0 17.4-9.3 21.9-19.7 21.9-2.5 0-4.4 0-6.6-.2V92zM34.5 38.2c0-13.9 7.3-21.9 20.8-21.9 13.4 0 20.8 8 20.8 21.9v45.3c0 13.9-7.3 21.9-20.8 21.9-13.4 0-20.8-8-20.8-21.9V38.2zm13.6 46.2c0 6.2 2.7 8.6 7.1 8.6 4.4 0 7.1-2.4 7.1-8.6v-47c0-6.2-2.7-8.6-7.1-8.6-4.4 0-7.1 2.4-7.1 8.6v47zM88.6 17.3h13.7v87.1H88.6V17.3zM128.4 41.3h-.2v63.1h-12.3V17.3H133l13.8 52.1h.2V17.3h12.2v87.1h-14.1l-16.7-63.1zM191.8 17.3h42.3v12.4h-14.3v74.6h-13.7V29.8h-14.3V17.3zM257.5 104.4h-13.7V17.3h13.7v37.3h15.6V17.3H287v87.1h-13.9V67.1h-15.6v37.3zM314.4 54h18.8v12.4h-18.8V92H338v12.4h-37.3V17.3H338v12.4h-23.6V54z"/><path class="st1" d="M441.4 11.6c0 1.7 2.9 2.6 8.6 2.6l.9.9v1.7c0 5.1-.9 9.9-2.6 14.5l-17.1-3.4c-15.1 0-24.8 4.3-29.1 12.8l-1.7 9.4c0 12.1 3.1 18.9 9.4 20.6 1.5 0 5.2 3.4 11.1 10.3h16.3l3.4.9c2.2-1.1 5.4-1.7 9.4-1.7h3.4c-1.5 11.4-3.2 17.1-5.1 17.1l-2.6-.8-3.5 4.3-4.3-.9h-9.4l-18-5.2c-14.3-5.8-21.4-11.5-21.4-17.1-2.3-5.9-4-16.4-5.2-31.6l1.1-1v-.9l-.9-3.5c6.6-18.8 15.7-28.2 27.4-28.2l29.9-.8zm-29 65.1l-.8.9v1.8h2.6v-.9l-1.8-1.8zM480 18.6c.2 1 1.5 2 3.7 3-3 29.9-4.4 49.5-4.4 58.6l40.3 2.9.7.8c4.9.2 7.4 1 7.4 2.2l-5.1 7.3-11.1.8-18.3-.8-3 .8-.7-.8c-7.8 0-11.7 1.2-11.7 3.7 0 1.5-.5 2.2-1.5 2.2s-1.5-.7-1.5-2.2l-.7-.7h-.7l-4.4.7-3.6-1.5-5.9 1.5c-1.9-.7-2.9-1.5-2.9-2.2v-.7c.9-2.5 3.1-3.7 6.6-3.7V89h-5.8c-1.1 0-1.9-1.2-2.2-3.6 1 0 1.8-2 2.2-5.9l4.4-.7v.7l2.9-.7v-1.5c-1.9 0-2.9-.7-2.9-2.2v-1.5c1.5 0 2.2-.5 2.2-1.5l-1.5-1.5 1.5-22 .7-.7-1.5-1.5v-.7c1-.7 2.7-6.8 5.1-18.3 1.6-3.4 3.3-5.1 5.2-5.1 2.1.1 4.2-1.2 6.5-3.7zM597 20.5c4 5.1 6 9.1 6 11.9 1.7 5.9 2.6 12.1 2.6 18.6v13.6l.9 3.4-.9 2.6.9 2.6c0 6.4-4 14.9-11.9 25.5l-14.4 8.5-8.5.9h-6c-4.5 0-11.8-3.4-22-10.2-10.2-11-15.3-27.4-15.3-49.3l-1.7-3.3.9-.9v-.9l-.9-5.1 1.7-11.1v-.9h5.1c1.7 0 2.6-1.4 2.6-4.3h1.7c0 2.4 2 5.3 6 8.5l.9 3.4-.9 6.8c0 31.3 4.8 48 14.4 50.1l.9.9h.8c19.2-1.8 28.9-4.9 28.9-9.3l3.4-26.4V44.3l-2.6-8.5v-9.4c0-1.1.8-1.7 2.6-1.7l.9.9h.9l2.6-1.7-.9-2.6.9-.9h.4zM619.4 0l3.8 2.3h.8l3-2.3 5.3.8 2.3-.8c0 6.6 2.3 10 6.9 10 9.3 0 19.2 4.8 29.8 14.5l2.3 3.8v9.2c-3.1 1.6-4.6 3.6-4.6 6.1 0 2.6 2.3 5.1 6.9 7.7l6.9 13.1.8 11.5c0 5.5-7.1 12.7-21.4 21.4l-21.4 7.6c0 1-1.5 1.8-4.6 2.3 0 2.1-.8 3.1-2.2 3.1-3.4 0-6.5-2-9.2-6.1l-7.7-2.3c-.7 0-2.2-2.6-4.6-7.7l1.5-4.6V88l-.8-3.8.8-.7h.7l.8.7v.8l8.4-3-1.6-6.9.8-3.8-.8-5.3.8-3c-5.1-1.3-7.7-3.1-7.7-5.4l-.8.8h-1.5v-1.5l.8-2.3-.8-3.8V47l3.8-3.1c0-1.2 1.3-2.7 3.8-4.6-.2-1.5-1.5-3.3-3.8-5.3 0-1.1.8-1.6 2.3-1.6v-7.7l-1.5-1.5h-3.8l-2.3 1.5c-2.6-.7-3.8-2.5-3.8-5.3l4.6-11.5h.7l.8.8h.7c1.6-5.9 3.2-8.7 4.8-8.7zm-6.1 59.7v1.5h-1.5l1.5-1.5zm23-35.9v6.9c1.5 4 2.3 8.1 2.3 12.3l.8.7h6.9c4.6 0 8.2-1.8 10.8-5.3v-7.7c0-4.6-4.9-7.4-14.6-8.4h-4.6l-1.6 1.5zm2.3 37.4v7.7c1.4 11.7 3.2 17.6 5.3 17.6h9.2c11.7-3.5 17.6-7.6 17.6-12.2-1.1-10.7-5.5-16.1-13.1-16.1h-8.4c-7 0-10.6 1-10.6 3zm32.9-32.9v4.6h.8v-4.6h-.8z"/><path class="st0" d="M694.5 8.1l3.1.3c3.6.3 5 3.8 4.4 10.4-.4 4.5 1.2 24.7 4.9 60.9l-.1.8c-.4 1.3-3.3 3.8-8.5 7.7l-5-3.6.9-.7-3.2-47.5c-1.3-.2-1.3-8.4.1-24.8l.1-.8 3.3-2.7zm5.6 85.7l3.8 1.2 2.3.2 3.9-.4c1.5 14.3 3.7 23.3 6.6 26.9l-.1.8-.8-.1-4.2-4.3-1.5-.1c-.2 1.5-.8 2.2-1.8 2.1l-.5-2.4-1.6-.1-1.6 1.4c-5-1.5-7.4-3.6-7.2-6.1-1.4-6.4-2-11.4-1.6-14.8l.1-1.6 4.2-2.7z"/><g><path class="st2" d="M538.3 22.8c-3.4 1.3-5.6 4.2-8.3 6.4-.2.2-.5.5-.5.7.6 2.3-1.3 2.7-2.5 3.8-3.3 3.1-7 5.9-8.2 10.7-.5 2-1.8 3.8-2.7 5.7-1.4 3.1-1.7 6.4-1.4 9.7-1.8 1.1-4.1 1.4-4.5 3.9.8-.7 1.6-1.3 2.4-2 .2.1.5.2.7.4-1.1 2.3.3 4.6-.2 6.8-.5 2.4-2 4.3-4 5.6-1.4 1-2.3 2.1-2.4 3.9-.1 1-.7 2-1 3-.1.5-.4 1.2-.2 1.5 1.6 2.2.1 3.6-1.2 4.9-.9 1-1.5 2.1-1.9 3.5-.6 2.3-1.3 4.7-3.5 6.2-.2.2-.4.5-.4.7 0 3-2.2 4.9-3.5 7.3-1.6 2.8-2.8 5.7-4.3 8.5-2.8 5.4-5.5 10.8-8.4 16.1-.9 1.6-2.2 2.9-3.4 4.3h-1.8c.6-3.2 1.3-6.4 1.9-9.8-1.6-.9-1.6-1 0-2.7.2-.2.4-.3.5-.5.2-1.9.4-3.9.5-5.8 0-.9-.3-1.8-.2-2.7.1-1.5.7-2.6 2.5-2.6.7 0 1.6-.4 1.9-1 .9-1.5 1.7-3 2.4-4.6.7-1.6 1.5-3.2 1.8-4.8.6-3.4 2.6-6.4 2-10-.2-1.2-.2-2.5.8-3.6.5-.5.4-1.6.6-2.4.2-.6.4-1.1.7-1.6 3-4.7 5.4-9.7 6.7-15.1 1-3.9 2.1-7.7 3.1-11.6.4-1.4 1.9-2.4 1.1-4.2-.1-.2.6-1.2 1.1-1.3 2.5-.5 3.1-2.9 4.5-4.5-1.1-.9-1.6-1.7 0-2.5 3.7-1.8 5.9-5.2 8.3-8.3 2.8-3.7 6.3-6.5 10.2-8.9 2.6-1.6 5.3-3.1 7.9-4.5.8-.4 1.7-.4 2.6-.5.3.7.3 1.3.3 1.9zM432.6 117.9c1.4-1.2 2.2-2.5 1.4-4.4-.2-.4 0-1.3.3-1.6 1.8-1.5 1.7-3.6 1.2-5.5-.3-1.3-.1-2 1.2-2.4-.5-1.5-1-2.8-1.5-4.1-.4-1.2 1-3.2 2.3-3.4 1.6-.1 2.6-.8 2.7-2.5 0-.2.1-.5.2-.6 3.1-2.4 2.8-6.3 4-9.5.3-.9 1.1-1.7 1.3-2.6.3-1.7.9-3.5-.1-5.3-.3-.5-.2-1.1-.3-1.8.8-.1 1.5-.3 2.4-.4-.1-.7-.3-1.2-.4-1.8 0-.7-.2-1.5.2-2 3.3-4.3 4.4-6.7 5.8-11.6 1.4-4.9 3-9.7 4.6-14.5.3-.8 1-1.4 1.5-2.1.5-.8 2-1.3.6-2.5-.2-.1.1-1.2.4-1.3 2.3-.9 3.2-2.7 3.9-4.9.4-1.2 1.7-2.3 2.7-3.3 3-3 6-6 9.3-8.8 4.4-3.7 8.9-7.3 13.6-10.8 1.7-1.3 3.8-2.1 5.7-3.1h2.3c-.2 1-.3 2.1-.5 3-3.6 1-6 3.7-8.8 5.7-3.1 2.1-4.6 5.6-7.2 8.1-2.8 2.6-4.9 5.5-6.5 9-.5 1.3-1.3 2.3-2.6 3.2-1.3.8-1.8 2.9-2.5 4.5-.4.8-.5 1.7-.9 2.4-.8 1.3-1.3 2.4 0 3.7.4.4.4 1.2.6 1.9-2.6.5-4.4 1.7-5.4 4.1 1-.4 2-.9 3-1.3.6 2.8 1.5 5.4-.5 7.9-1.4 1.8-2.1 4.4-5 4.9-.6.1-1.1 1.7-1.4 2.6-.3.8-.3 1.6-.4 2.5 1.4 1.5 1.4 3.7.1 5.8-.9 1.4-1.6 2.9-2.4 4.4-1.4 2.6-2.9 5.2-4.2 7.8-2 4-4.3 7.8-5.9 12-2.6 6.5-5.6 12.6-10.2 17.9-1.1 1.3-2.3 2.6-4.3 2.6-.3-.7-.3-1.3-.3-1.9zM512.2 22.5c-.2.7-.2 1.7-.7 2.1-1.5 1.2-2 2.6-1.2 4.2-1.4.9-2.7 1.8-3.8 2.5-.5 1.1-.8 2.1-1.3 2.9-.8 1.1-1.7 2.1-1 3.7.5 1.1-.5 1.9-1.5 1.6-3.9-1.1-5.4 2.2-7.8 3.9-.4.3-.5.9-.7 1.4-.2.6-.2 1.3-.5 1.7-1.4 2-1.9 4.2-.9 6.6.1.2 0 .8-.1.9-1.9.4-.3 1.9-1.1 2.9-2.2.2-2.7 1.9-2.4 4 .4 4.2-1.9 7.5-3.4 11.1-1.4 3.5-4.1 6.1-4.7 10.1-.4 2.8-2.8 5.3-4.4 7.9-1.4 2.2-2.9 4.2-3.3 6.9-.2 1.4-1.7 2.6-2.4 4-.5.8-.9 1.7-1.1 2.7-.6 3.1-4.8 7.9-7.7 8.3.4-1.9.6-3.6 1.1-5.3.5-1.5 1.6-2.9 1.9-4.5.5-2.4 2.1-4.9.5-7.5-.3-.4.1-1.3.3-1.9.9-2 1.8-4 2.8-6 .2-.5 1-.6 2-1.2-.1 1.5-.1 2.3-.2 3.3.8-1.1 1.5-2.1 2.1-3.1.6-1.1.9-2.2 1.4-3.4-1.1-.8-1.8-1.5-.5-3 .9-1 1-2.4.2-4-.6-1.2-.1-3-.1-4.3-.9 1-1.5.9-2.1-.8-1.7-4.2.4-9 5.1-10.2-.4-1.1-.9-2.2-1.3-3.3-.2-.5-.3-1.3-.1-1.7 1.2-2 2.7-3.9 3.9-5.9 1.2-2.1 2.2-4.1 4.4-5.4.4-.2.2-1.3.5-1.7 1.2-1.3 1.4-3.5 3.8-3.6.6 0 1.2-.9 1.7-1.5 5.4-7.2 12.7-11.7 21.1-14.6.3-.1.6-.2.9-.2-.1.2 0 .3.6.4z"/></g></svg>
