<svg id="Layer_1" xmlns="http://www.w3.org/2000/svg" viewBox="0 0 250.6 170.8"><style>.st0{fill:#F7A61F;}</style><g id="XMLID_26_"><path id="XMLID_27_" d="M4.9.5c.9.3 1.3 1 1.3 2.1h.6v1.1l-.4 5.2v.9l.7.2.2-.2h1.3c3.3 0 4.9-.4 4.9-1.1 0-4.7.6-7.1 1.7-7.1l.9-.4h.2c.4.5.9.8 1.3.8l-.9 13.5.2 1.1-.2.2v.2l.4 4.1-.1 3.7-.3.2h-.6c-.7 0-1.1-.1-1.1-.4l-.2.2h-.4c-.7-.2-1.1-3.4-1.3-9.4h.2l-.2-.2v-1.9L9.7 13l-3.4.2-.6 5.1.2 1.9h-.3l.2.2v4.3c0 .2-1.2.7-3.7 1.3l-.4-.6v-5.6l.2-5.6c0-.4-.4-.6-1.1-.6L0 12.1c0-1.6.9-2.4 2.6-2.4V8l.2-1.9-.2-.6c0-.7.4-1.4 1.1-1.9.2-2.1.6-3.1 1.2-3.1z"/><path id="XMLID_29_" d="M25.2.2c0 .2.9.7 2.6 1.4 0 .4.6.8 1.9.9 7.3 2.1 11 3.5 11 4.2C40.4 8.3 40 9 39.5 9c-6.6-2.2-10.3-3.3-11-3.3H28c-.9 0-1.5.8-1.9 2.3l-.2.2-.2.9c0 .8 2.1 1.5 6.3 2.3l6.3 2.3.2.2v.2c0 .3-.5.5-1.4.5 0 .5-.3.8-.9 1.2l-9.1-2.3h-1.4l-.7 1v1.4c-.5 2.1-.7 3.9-.7 5.4 5.6.8 9.6 1.7 12.2 2.6l.2.2v1.2c-.3.6-.7.9-1.2.9L22.7 25c-.6.5-.9 1.1-.9 1.6h-.5l-.5-1.6h-.5c-.2.9-.4 1.4-.7 1.4-.3 0-.6-.9-.7-2.6-.9-.2-1.4-.4-1.4-.7 1.7-.9 2.6-3 2.6-6.1l1.4-5.8-.9-1.2v-.4c1.4 0 2.1-.9 2.1-2.8.3 0 .5-.8.5-2.3-1-.6-2-.9-2.8-.9l-.2-.2v-.6h2.1c.3 0 .6-.6.7-1.9 1 0 1.8-.2 2.2-.7z"/><path id="XMLID_31_" d="M48 2h.8c.8 0 1.2.3 1.2.8h1.2c.7.5 1.8 1.2 3.4 1.9.4.8.8 2.2 1.3 4.3l.2.2v.2c0 .9-.4 1.8-1.2 2.9-.2 2.3-.9 3.5-2 3.5h-.4v.2c1.9 3.3 4 6.1 6.4 8.2l.2.2c0 .7-.2 1.1-.6 1.2l-1-.2-.6 1c-.4 0-1.9-1.4-4.3-4.1-1.5-2.7-2.7-4.3-3.7-4.9H48c-2 .8-3 1.6-3 2.3l.8 6.2c-.5 0-1.2.5-2.1 1.6-.2 0-.6-.9-1-2.7-.3 0-.6-1.2-1-3.5l.2-.2-.4-2.5h-1c-.5-.1-.7-.6-.7-1.6.5 0 1-.8 1.6-2.3l-.2-.2.2-1v-.6c-.6-2.5-1-3.7-1.4-3.7-.4 0-.6-.1-.6-.4v-.2l.4-.4-.2-.2v-.3c0-1.5.5-2.9 1.6-4.3l2.5-.4.6.6c.3-.5 1.3-.7 3.1-.8.1-.5.3-.8.6-.8zm-3.7 5.7v1l.8 5.7c1.9 0 2.9-.6 2.9-1.8l.2-.2v-1h.2c.2 0 .4.4.6 1.2h.4v.2l.8-.4 1.2.2 1.6-3-.8-.8.2-1H52c0-.7-.8-1.2-2.5-1.6l-.6-.6c-1.3-.1-2.8.6-4.6 2.1z"/><path id="XMLID_34_" d="M66 .2c0 .2.9.7 2.6 1.4 0 .4.6.8 1.9.9 7.3 2.1 11 3.5 11 4.2-.3 1.6-.7 2.3-1.2 2.3-6.6-2.2-10.3-3.3-11-3.3h-.5c-.9 0-1.5.8-1.9 2.3l-.2.2-.2.9c0 .8 2.1 1.5 6.3 2.3l6.3 2.3.2.2v.2c0 .3-.5.5-1.4.5 0 .5-.3.8-.9 1.2l-9.1-2.3h-1.4l-.7.7v1.4c-.5 2.1-.7 3.9-.7 5.4 5.6.8 9.6 1.7 12.2 2.6l.2.2V25c-.3.6-.7.9-1.2.9L63.5 25c-.6.5-.9 1.1-.9 1.6h-.5l-.5-1.6h-.5c-.2.9-.4 1.4-.7 1.4-.3 0-.6-.9-.7-2.6-.9-.2-1.4-.4-1.4-.7 1.7-.9 2.6-3 2.6-6.1l1.4-5.8-.9-1.2v-.4c1.4 0 2.1-.9 2.1-2.8.3 0 .5-.8.5-2.3-1-.6-2-.9-2.8-.9l-.2-.2v-.6h2c.3 0 .6-.6.7-1.9 1.1 0 1.9-.2 2.3-.7z"/><path id="XMLID_36_" d="M99.4 0c.7.5 1.7.8 2.9.9l.7-.7.9.9h.2l-.5 1.4 3.2 8.2c1.4 2.2 2.2 4.1 2.5 5.7 1.7.3 2.5.7 2.5 1.1l-.9.2v.2l.7.9-.4.9 1.8 4.6c.4 0 .8.4 1.1 1.1l-.2.2v.2c-.6-.1-1.1-.7-1.6-1.8h-.7c-.3 0-.4.5-.4 1.4l-.9.7c-2.3-4.7-3.9-7-4.8-7l-7-1.4h-1.1c-1.4 5.6-2.9 8.4-4.5 8.4l-.7.9c0-.3-.2-.4-.7-.4l-2 1.8-.5-.5V27c0-.6 1.2-3.1 3.6-7.7l.7-2.3v-.5c-.5 0-1.3-.5-2.5-1.6v-.2c0-.4 1.4-.9 4.3-1.4l3-8.2L99.4 2 99.2.2l.2-.2zm.5 11.6l.2 1.6-.2.2h-.2l-.2-.7-.9.7.2.7.9-.5c.5 0 .9.2 1.4.7l2.3.2V14c0-.5-.3-1.1-.9-1.6 0-.5-.4-1.3-1.1-2.3v-1c-1.1.3-1.5 1.1-1.5 2.5z"/><path id="XMLID_39_" d="M124.2 2.8c.3 0 .4.2.4.6.3 0 .5.4.8 1.2h.2l.8-.2.4.4h.2l7.2.2c0 .5.6.7 1.8.8l.2.2v.6c-1.1.5-1.9.8-2.3.8-5.1 0-7.6.3-7.6.8l-.4 7v5.7l-.4 1.7.2 2.6-1.8 1.4c-.3 0-.4-.3-.4-.8h-.8l-.6 1v2l-.4.4c-.3-.7-.4-2.2-.4-4.5v-2.9c0-2.3.4-6 1.2-11.3l-.2-.2v-.5l.4-1.6-.2-.2h-1.4l-.8-.2-1.4.2H115c-2.2-.3-3.3-.6-3.3-1l2.3-2.7 8.8.4c.5 0 .8-.6.8-1.7l.2-.2h.4z"/><path id="XMLID_41_" d="M144.9 2.7c.3 0 .4.3.5.9l1.9-.7c.3.7 1.3 1 2.9.8 4.5.9 7.5 2.2 8.9 3.9.6.4.9.9 1 1.4l.1.8c-1 2.8-1.9 4.2-2.8 4.3.1.7-1.1 1.8-3.4 3.1l-6.3 2.9c.5 3.8.3 5.7-.8 5.9l-1.2 1.5-.2-.2-.2.2h-.2l-.7-.5-.5-3.3v-2.8c-.7 0-1-.3-1.1-.6l.1-.8-.2-.2v-.2c.8-2.9 1.1-6.9.9-11.8l-.2-1.4-.5-.5.1-.3c0-.2.6-1 1.9-2.4zm2.7 13.5l.2.2h.4c5.3-1.8 7.8-3.5 7.6-5.2l-.1-1c-.3-1.9-2.2-2.7-5.9-2.6H148c-.7.1-.9 3-.4 8.6zm11-7.9v.4h.2l-.1-.4h-.1z"/><path id="XMLID_45_" d="M168.4 2h.8c.8 0 1.2.3 1.2.8h1.2c.6.5 1.7 1.2 3.3 1.9.4.8.8 2.2 1.2 4.3l.2.2v.2c0 .9-.4 1.8-1.2 2.9-.2 2.3-.9 3.5-2 3.5h-.4v.2c1.9 3.3 4 6.1 6.4 8.2l.2.2c0 .7-.2 1.1-.6 1.2l-1-.2-.6 1c-.4 0-1.9-1.4-4.3-4.1-1.5-2.7-2.7-4.3-3.7-4.9h-.6c-2 .8-3.1 1.6-3.1 2.3l.8 6.2c-.5 0-1.2.5-2.1 1.6-.2 0-.6-.9-1-2.7-.3 0-.6-1.2-1-3.5l.2-.2-.4-2.5h-1c-.4-.1-.6-.6-.6-1.7.5 0 1-.8 1.6-2.3l-.2-.2.2-1v-.6c-.6-2.5-1-3.7-1.4-3.7-.4 0-.6-.1-.6-.4v-.1l.4-.4-.3-.2v-.3c0-1.5.5-2.9 1.6-4.3l2.5-.4.6.6c.3-.5 1.3-.7 3.1-.8 0-.5.2-.8.6-.8zm-3.7 5.7v1l.8 5.7c1.9 0 2.9-.6 2.9-1.8l.2-.2v-1h.2c.2 0 .4.4.6 1.2h.4v.2l.8-.4 1.2.2 1.4-3.1-.8-.8.2-1h-.4c0-.7-.8-1.2-2.5-1.6l-.6-.6c-1.2 0-2.7.7-4.4 2.2z"/><path id="XMLID_48_" d="M180.5.4h.4l.6.4 1.2-.2.2.2v5.3l-.4.4-.6-.2-1.4 1.4c-.5 0-.8-1.9-1-5.7h.2l-.2-.2v-.4l1-1zm2.7 9.2l.2.6.6 11.7-.2.2v.2c.4 1.6.6 3.3.6 4.9l-.6.2c-2.1 0-3.1-.3-3.1-.8v-1.7l-.4-6.3v-.2l-.2-.8.2-.8v-.2l-.2-.6.2-1v-3.3l-.2-1c.6-.5 1-.8 1.4-.8l.4.4c.5-.4 1-.7 1.3-.7z"/><path id="XMLID_51_" d="M206.6 3.4h.4c1.5.9 2.2 2.4 2.2 4.6l.2 5.7-.2 1.7.2.7v.4h-.2l.2 2.6v3.5l.2 3.1c-.4.9-.7 1.4-1.1 1.5h-.4l-.4-.4v-1.1h-.4c-.4 0-.7.6-.9 1.7h-.4l-.6-12.7h-.9c-.8 1.3-2 4.2-3.5 8.8v2.2l-.7.6h-.3l-.7-.4h-.2v.4l.2 1.1h-.4c0-.4-.4-1-1.3-1.7-.4 0-.6.3-.6.9h-.7v-.2l.7-1.1v-.9c-.7-1.2-1.6-2.5-2.8-3.7l-3.7-6.1-.9.2-.2 7v3.5c-.8 1.3-1.8 2-2.8 2h-.2l-.9-.9v-.2l.2-.2-.2-.2v-2.6l-.2-1.3.2-.7-.2-1.1c0-8.9.7-14.1 2.2-15.8h.2l.4.4.7-.9h.4c0 .8.5 1.3 1.5 1.5 3.9 8.3 6.4 13 7.7 14h.9c.4-1.9 2.1-6.3 5-12.9l.4-.4c1.3-1.1 1.9-2 1.9-2.6zm-16.7 9.7c.1.9.3 1.3.7 1.3V14h.2l-.2-.9h-.7z"/><path id="XMLID_54_" d="M219.4 0c.7.5 1.7.8 2.9.9l.7-.7.9.9h.2l-.5 1.4 3.2 8.2c1.4 2.2 2.2 4.1 2.5 5.7 1.7.3 2.5.7 2.5 1.1l-.9.2v.2l.7.9-.4.9 1.8 4.6c.4 0 .8.4 1.1 1.1l-.2.2v.2c-.6-.1-1.1-.7-1.6-1.8h-.7c-.3 0-.4.5-.4 1.4l-.9.7c-2.3-4.7-3.9-7-4.8-7l-7-1.4h-1.1c-1.4 5.6-2.9 8.4-4.5 8.4l-.7.9c0-.3-.2-.4-.7-.4l-2 1.8-.5-.5V27c0-.6 1.2-3.1 3.6-7.7l.7-2.3v-.5c-.5 0-1.3-.5-2.5-1.6v-.2c0-.4 1.4-.9 4.3-1.4l3-8.2 1.4-3.2-.2-1.8.1-.1zm.5 11.6l.2 1.6-.2.2h-.2l-.2-.7-.9.7.2.7.9-.5c.5 0 .9.2 1.4.7l2.3.2V14c0-.5-.3-1.1-.9-1.6 0-.5-.4-1.3-1.1-2.3v-1c-1.1.3-1.5 1.1-1.5 2.5z"/><path id="XMLID_57_" d="M238.2 4.4c.1.3.4.5 1 .8-.8 7.8-1.2 12.8-1.2 15.2l10.5.8.2.2c1.3.1 1.9.3 1.9.6l-1.3 1.9-2.9.2-4.7-.2-.8.2-.2-.2c-2 0-3 .3-3 1 0 .4-.1.6-.4.6s-.4-.2-.4-.6l-.2-.2h-.2l-1.1.2-.9-.4-1.5.4c-.5-.2-.7-.4-.7-.6V24c.2-.6.8-1 1.7-1v-.4h-1.5c-.3 0-.5-.3-.6-.9.3 0 .5-.5.6-1.5l1.1-.2v.2l.8-.2v-.4c-.5 0-.8-.2-.8-.6v-.4c.4 0 .6-.1.6-.4l-.4-.4.4-5.7.2-.2-.4-.4v-.2c.3-.2.7-1.8 1.3-4.8.4-.9.9-1.3 1.3-1.3.5.2 1-.1 1.6-.8z"/></g><g id="XMLID_257_"><path id="XMLID_401_" class="st0" d="M33.6 68.7c.6.2.9.7.9 1.5h.5v.7l-.3 3.6v.6l.4.2.1-.2h.9c2.3 0 3.4-.2 3.4-.7 0-3.3.4-4.9 1.2-4.9l.6-.3h.2c.3.4.6.6.9.6l-.6 9.3.2.7-.2.2v.2l.3 2.8-.1 2.5-.2.2h-.4c-.5 0-.7-.1-.7-.3l-.2.1h-.3c-.4-.1-.7-2.3-.9-6.5h.2l-.2-.1v-1.3l-2.4-.1-2.4.1-.4 3.4.2 1.3h-.2l.2.2v3c0 .2-.8.5-2.5.9l-.3-.4v-3.9l.2-3.9c0-.3-.2-.4-.7-.4l-.6-1c0-1.1.6-1.6 1.8-1.6V74l.1-1.3-.3-.6c0-.5.2-.9.7-1.3.2-1.4.5-2.1.9-2.1z"/><path id="XMLID_399_" class="st0" d="M47.7 68.5c0 .2.6.5 1.8 1 0 .3.4.5 1.3.7 5.1 1.5 7.6 2.4 7.6 2.9-.2 1.1-.5 1.6-.8 1.6-4.6-1.5-7.1-2.3-7.6-2.3h-.3c-.6 0-1 .5-1.3 1.6l-.2.2-.2.6c0 .5 1.5 1.1 4.4 1.6l4.4 1.6.2.2v.2c0 .2-.3.3-1 .3 0 .3-.2.6-.6.8L49 77.9h-1l-.5.5v1c-.3 1.4-.5 2.6-.5 3.6 3.8.6 6.6 1.2 8.4 1.8l.2.2v.8c-.2.4-.5.6-.8.6l-8.9-.8c-.4.4-.7.8-.7 1.1h-.3l-.3-1.1h-.3c-.1.6-.3 1-.5 1s-.4-.6-.5-1.8c-.6-.1-1-.3-1-.5 1.2-.6 1.8-2 1.8-4.2l1-4-.6-.8V75c1 0 1.5-.6 1.5-1.9.2 0 .3-.5.3-1.6-.7-.4-1.3-.6-1.9-.6l-.2-.2v-.3h1.5c.2 0 .4-.4.5-1.3.6-.1 1.2-.3 1.5-.6z"/><path id="XMLID_396_" class="st0" d="M64.6 68.3c.5.3 1.2.5 2 .6l.5-.5.6.6h.2l-.3.9 2.2 5.6c.9 1.6 1.5 2.9 1.7 3.9 1.2.2 1.7.4 1.7.8l-.6.2v.2l.5.6-.4.8 1.3 3.1c.3 0 .5.3.8.8l-.2.2v.2c-.4-.1-.8-.5-1.1-1.3H73c-.2 0-.3.3-.3.9l-.6.5c-1.6-3.2-2.7-4.9-3.3-4.9l-4.9-.9h-.8c-1 3.9-2 5.8-3.1 5.8l-.4.6c0-.2-.2-.3-.5-.3L57.7 88l-.3-.3V87c0-.4.8-2.2 2.5-5.3l.5-1.6v-.3c-.3 0-.9-.4-1.7-1.1v-.2c0-.3 1-.6 3-.9l2-5.6.9-2.2-.2-1.3.2-.2zm.3 8l.2 1.1-.2.2h-.2l-.2-.5-.6.5.2.5.6-.3c.3 0 .6.2.9.5l1.6.2v-.3c0-.4-.2-.7-.6-1.1 0-.4-.3-.9-.8-1.6v-.8c-.6.1-.9.7-.9 1.6z"/><path id="XMLID_394_" class="st0" d="M77.6 71.4c0 .2.3.4.7.5-.5 5.4-.8 8.9-.8 10.5l7.2.5.1.1c.9 0 1.3.2 1.3.4l-.9 1.3-2 .1-3.3-.1-.5.1-.1-.1c-1.4 0-2.1.2-2.1.7 0 .3-.1.4-.3.4-.2 0-.3-.1-.3-.4l-.1-.1h-.1l-.8.1-.7-.3-1.1.3c-.3-.1-.5-.3-.5-.4v-.1c.2-.4.6-.7 1.2-.7V84h-1c-.2 0-.3-.2-.4-.7.2 0 .3-.4.4-1.1l.8-.1v.1l.5-.1v-.3c-.3 0-.5-.1-.5-.4v-.3c.3 0 .4-.1.4-.3l-.3-.3.3-3.9.1-.1-.3-.3v-.1c.2-.1.5-1.2.9-3.3.3-.6.6-.9.9-.9.4.2.8-.1 1.3-.5z"/><path id="XMLID_392_" class="st0" d="M93.2 70.3c.2 0 .3.1.3.4.2 0 .4.3.5.8h.1l.5-.1.3.3h.1l5 .1c0 .3.4.5 1.2.5l.1.1v.4c-.7.4-1.3.5-1.6.5-3.5 0-5.3.2-5.3.5l-.3 4.9v3.9l-.1 1.3.1 1.8-1.2.9c-.2 0-.3-.2-.3-.5h-.5l-.4.7v1.3l-.3.3c-.2-.5-.3-1.5-.3-3.1v-2c0-1.6.3-4.2.8-7.8l-.1-.1v-.1l.3-1.1-.1-.3h-1l-.5-.1-.9.1h-2.7c-1.5-.2-2.3-.4-2.3-.7l1.6-1.9 6.1.3c.4 0 .5-.4.5-1.2l.1-.1h.3z"/><path id="XMLID_390_" class="st0" d="M103.8 68.7c.6.2.9.7.9 1.5h.4v.7l-.3 3.6v.6l.4.2.1-.2h.9c2.3 0 3.4-.2 3.4-.7 0-3.3.4-4.9 1.2-4.9l.6-.3h.2c.3.4.6.6.9.6l-.6 9.3.2.7-.2.2v.2l.3 2.8-.1 2.5-.2.2h-.4c-.5 0-.7-.1-.7-.3l-.2.1h-.3c-.4-.1-.7-2.3-.9-6.5h.2l-.2-.1v-1.3l-2.4-.1-2.4.1-.4 3.6.2 1.3h-.2l.2.2v3c0 .2-.8.5-2.5.9l-.3-.4v-3.9l.2-3.9c0-.3-.2-.4-.7-.4l-.6-1c0-1.1.6-1.6 1.8-1.6v-1.2l.1-1.3-.1-.4c0-.5.2-.9.7-1.3 0-1.8.3-2.5.8-2.5z"/><path id="XMLID_388_" d="M128 70.9l1.1.2h1.1v.3l-.3.5.2.8c-2.3 2.5-5 7-8.1 13.4-1.2.9-1.9 1.4-2.2 1.4l-.2-.2h-.2l-.6.2-.2-.2v-1.1c1-1.5 1.7-2.9 2-4.2h.3c0-.6.5-1.5 1.6-2.7l4.2-7.3c.6 0 1-.3 1.3-1.1z"/><path id="XMLID_386_" class="st0" d="M138 69.2c1 0 1.5.3 1.5.9.1.4.2.6.4.6l8-1.2.9.3.2-.2h.1c.7.1 1 .3 1 .4v.2c0 .8-2.4 1.5-7.1 2-.2.3-1.1.5-2.8.7l-.4.4.2.2-.2.4c0 1.2.2 1.8.6 1.8l6.6-.9.3.6c0 .9-.8 1.3-2.5 1.3-3 .6-4.5 1.1-4.5 1.5v.4l.7 6.4.2.2v.1c0 .7-.3 1.3-.9 1.7l-.6-.1-.4.6-1.5-7.4h.1c0-1.1-.3-1.6-.9-1.6l-1-.9 1.5-1v-1.2c0-1.1-.3-2.1-.9-3.2V72l.7-.7-.2-.7v-.7c0-.2.2-.3.7-.3l.1-.2v-.2z"/><path id="XMLID_383_" class="st0" d="M151.3 68.6h.3l.4.3.8-.1.1.1v3.6l-.3.3-.4-.1-.9.9c-.3 0-.6-1.3-.7-3.9h.1l-.1-.1v-.3l.7-.7zm1.9 6.4l.1.4.4 8.1-.1.1v.1c.3 1.1.4 2.3.4 3.4l-.4.1c-1.4 0-2.2-.2-2.2-.5v-1.2l-.3-4.3V81l-.1-.5.1-.5v-.1l-.1-.4.1-.7v-2.3l-.1-.7c.4-.4.7-.5.9-.5l.3.3c.5-.5.8-.6 1-.6z"/><path id="XMLID_381_" class="st0" d="M162.3 70.3c.2 0 .3.1.3.4.2 0 .4.3.5.8h.1l.5-.1.3.3h.1l5 .1c0 .3.4.5 1.2.5l.1.1v.4c-.7.4-1.3.5-1.6.5-3.5 0-5.3.2-5.3.5l-.3 4.9v3.9l-.3 1.2.1 1.8-1.2.9c-.2 0-.3-.2-.3-.5h-.5l-.4.7V88l-.3.3c-.2-.5-.3-1.5-.3-3.1v-2c0-1.6.3-4.2.8-7.8l-.1-.1v-.1l.3-1.1-.1-.1h-.9l-.5-.1-.9.1h-2.7c-1.5-.2-2.3-.4-2.3-.7l1.6-1.9 6.1.3c.4 0 .5-.4.5-1.2l.1-.1h.4z"/><path id="XMLID_379_" class="st0" d="M172.1 70.2c.1.3.4.6 1.1.8l.5-.5h.2c.7.3 1.4 1.7 2 3.9l1.7 4.5c.5.7.8 1.2.8 1.6h.5c.7-4.3 1.5-7.4 2.4-9.3l.2-.2h.2c0 .2.5.5 1.6.8l-.5 1.9.2.2v.2c-.3.8-.8 3.6-1.4 8.6l-.6 3 .3.3v.2l-.2-.2-1.9.3-.2-.2-.6.6h-.2v-.2l.2-.2c0-.5-.6-1.8-1.9-3.8l-3-7.2h-.3c-.5 2.2-.9 5-1.3 8.2l-.2.2h-.2l.2.2v.2c-.4.5-.6 1.3-.8 2.4l-.8.5h-.3l-.2-.8.2-.2c-.4-.2-.6-.5-.6-.8.4-5.2.9-9.2 1.4-12.1l.9-1.6h.3v-1.1l.3-.2z"/><path id="XMLID_377_" class="st0" d="M188.2 68.5c0 .2.6.5 1.8 1 0 .3.4.5 1.3.7 5.1 1.5 7.6 2.4 7.6 2.9-.2 1.1-.5 1.6-.8 1.6-4.6-1.5-7.1-2.3-7.6-2.3h-.3c-.6 0-1 .5-1.3 1.6l-.2.2-.2.6c0 .5 1.5 1.1 4.4 1.6l4.4 1.6.2.2v.2c0 .2-.3.3-1 .3 0 .3-.2.6-.6.8l-6.3-1.6h-1l-.5.5v1c-.3 1.5-.5 2.7-.5 3.7 3.8.6 6.6 1.2 8.4 1.8l.2.2v.8c-.2.4-.5.6-.8.6l-8.9-.8c-.4.4-.7.8-.7 1.1h-.3l-.3-1.1h-.3c-.1.6-.3 1-.5 1s-.4-.6-.5-1.8c-.6-.1-1-.3-1-.5 1.2-.6 1.8-2 1.8-4.2l1-4-.6-.8V75c1 0 1.5-.6 1.5-1.9.2 0 .3-.5.3-1.6-.7-.4-1.3-.6-1.9-.6l-.2-.2v-.3h1.5c.2 0 .4-.4.5-1.3.5-.1 1.1-.3 1.4-.6z"/><path id="XMLID_373_" class="st0" d="M204.2 69.5c2.2.4 3.6 1 4.1 1.9 0 .3.1.7.4 1.1v1h-.3c0-.3-.1-.4-.3-.4h-.1v.1l.3.4v.4c0 .2-.1.3-.4.3l-.1-.1h-.1l-.6.1c-.5-1.5-1.1-2.2-1.9-2.2-1.9 1.2-2.9 2-2.9 2.5.4 1.3 1.1 2.2 2.1 2.8l1.8 1.1c1.7.5 2.5 1.1 2.5 1.8 0 .3.3 1 .8 1.9v.6c-.6 2.3-1.4 3.5-2.4 3.5-.8.9-1.5 1.4-2.1 1.4h-.7c-.7-.4-1.8-.6-3.3-.7 0-.3-.6-.4-1.7-.4l-1.1-1.2V85l.6-1.7 1 .3v-.3l-.1-.1v-.1l.1-.1h.3c.8.7 1.5 1.1 2.2 1.2 0 .2.3.4.8.6l-.1.1v.3h.3l.4-.4 1.1.1 1-.3v-.8l1-1.1c0-.8-.6-1.6-1.7-2.4l-.7.1h-.1c-1.1-.4-1.7-1-1.7-1.7-1.8-1.3-2.8-2.3-2.8-2.9l-.1-1.4c.3-1.3 1-2.6 2.4-3.9.8-.1 1.5-.5 2.1-1zm.9 10.3v.1l.3.3h.3l-.4-.4h-.2zm1.6 5.9v.3l.3-.3h-.3z"/><path id="XMLID_369_" class="st0" d="M215.2 69.5c2.2.4 3.6 1 4.1 1.9 0 .3.1.7.4 1.1v1h-.3c0-.3-.1-.4-.3-.4h-.1v.1l.3.4v.4c0 .2-.1.3-.4.3l-.1-.1h-.1l-.6.1c-.5-1.5-1.1-2.2-1.9-2.2-1.9 1.2-2.9 2-2.9 2.5.4 1.3 1.1 2.2 2.1 2.8l1.8 1.1c1.7.5 2.5 1.1 2.5 1.8 0 .3.3 1 .8 1.9v.6c-.6 2.3-1.4 3.5-2.4 3.5-.8.9-1.5 1.4-2.1 1.4h-.7c-.7-.4-1.8-.6-3.3-.7 0-.3-.6-.4-1.7-.4l-1.1-1.2V85l.6-1.7 1 .3v-.3l-.1-.1v-.1l.1-.1h.3c.8.7 1.5 1.1 2.2 1.2 0 .2.3.4.8.6l-.1.1v.3h.3l.4-.4 1.1.1 1-.3v-.8l1-1.1c0-.8-.6-1.6-1.7-2.4l-.7.1h-.1c-1.1-.4-1.7-1-1.7-1.7-1.8-1.3-2.8-2.3-2.8-2.9l-.1-1.4c.3-1.3 1-2.6 2.4-3.9.8-.1 1.5-.5 2.1-1zm.9 10.3v.1l.3.3h.3l-.4-.4h-.2zm1.6 5.9v.3l.3-.3h-.3z"/></g><g id="XMLID_84_"><path id="XMLID_59_" d="M48.6 34.9l.3 1.1 1.3-.6c.6.3 1 .6 1 1l-2.8 6.4L43 58.4l-.2.3h-.5c-1.1-.2-2.1-1.3-2.8-3.4-2.1-4.1-3.7-6.7-4.8-8h-.2c-.8 1.3-1.9 5.2-3.5 11.7h-.5l-.3-.2H30c-.7.1-1.1.6-1.2 1.5h-.7c0-.5-.6-1.5-1.6-2.8-4.5-9.7-6.9-16-7.2-18.9l.6-.5 1.4.3.9-.3 3 7.7 3.4 7.4.7-.1C31 47.5 31.9 44 32 42.4c.8-.1 1.8-.8 3-2.3 1.5 1.2 3.1 4.2 4.9 8.9.3 0 .6.6.9 2l.2.2h.5c.4-.2 1.7-3.7 4-10.4 1-3.1 2-5.1 3.1-5.9z"/><path id="XMLID_61_" d="M57.8 31.9c0 .2.9.7 2.6 1.4 0 .4.6.8 1.9.9 7.3 2.1 11 3.5 11 4.2-.3 1.6-.7 2.3-1.2 2.3-6.6-2.2-10.3-3.3-11-3.3h-.5c-.9 0-1.5.8-1.9 2.3l-.2.2-.2.9c0 .8 2.1 1.5 6.3 2.3l6.3 2.3.2.2v.2c0 .3-.5.5-1.4.5 0 .5-.3.8-.9 1.2l-9.1-2.3h-1.4l-.7.7v1.4c-.5 2.1-.7 3.9-.7 5.4 5.6.8 9.6 1.7 12.2 2.6l.2.2V57c-.3.6-.7.9-1.2.9l-12.8-1.2c-.6.5-.9 1.1-.9 1.6h-.5l-.5-1.6h-.5c-.2.9-.4 1.4-.7 1.4-.3 0-.6-.9-.7-2.6-.9-.2-1.4-.4-1.4-.7 1.7-.9 2.6-3 2.6-6.1l1.4-5.8-.9-1.2v-.5c1.4 0 2.1-.9 2.1-2.8.3 0 .5-.8.5-2.3-1-.6-2-.9-2.8-.9l-.4-.2v-.5h2.1c.3 0 .6-.6.7-1.9 1.1.1 1.9-.2 2.4-.7z"/><path id="XMLID_63_" d="M83.7 33c1.4 0 2.1.4 2.1 1.3.1.6.3.9.6.9L98 33.5l1.3.4.2-.2h.2c1 .2 1.5.4 1.5.6v.2c0 1.2-3.4 2.1-10.3 2.9-.3.4-1.7.7-4 1.1l-.6.6.2.2-.2.6c0 1.7.3 2.5.9 2.5l9.5-1.3.4.9c0 1.3-1.2 1.9-3.6 1.9-4.4.9-6.5 1.6-6.5 2.1v.6l1.1 9.1.2.2v.2c0 1-.4 1.8-1.3 2.5l-.8-.2-.6.9-2.1-10.8h.2c0-1.5-.4-2.3-1.3-2.3L80.8 45l2.1-1.5v-1.7c0-1.5-.4-3.1-1.3-4.6V37l1.1-1-.2-1.1v-1.1c0-.3.4-.4 1.1-.4l.2-.2V33z"/><path id="XMLID_65_" d="M111.4 35h.4c0 .4.6.6 1.8.8l1.8-.2c4.3 2.9 7.1 5.1 8.5 6.7v.8c0 4.6-1.1 7.7-3.2 9.5-1.4 1.9-3.3 3.3-5.7 4.3-.2.2-1.4.5-3.4.8H109c-1.1 0-2.6-.8-4.6-2.4l-2.2-2.4c-.4-1.1-.6-2.2-.6-3.2 1.5-5.2 2.6-8 3.4-8.5 1.7-2.3 3.9-4.2 6.7-5.9l-.3-.3zm-5.7 14c0 2.2.6 3.7 1.8 4.4.6 0 1.1.3 1.6.8l1.6-.4 2.3.2c1.8-.6 3.2-1.6 4.4-3 1.4-2 2-3.7 2-5.2-.1-1.2-1-2.7-2.6-4.5-.4 0-1.1-.5-2.2-1.4l-1-.2c-3.7 0-6.2 2.8-7.7 8.5l-.2.8zm17-6.1l-.2 1v.8h.6v-1.4l-.4-.4z"/><path id="XMLID_69_" d="M139.3 34.3c0 .5.7.7 2.2.7l.2.2v.4c0 1.3-.2 2.6-.7 3.8l-4.4-.9c-3.9 0-6.4 1.1-7.5 3.3l-.4 2.4c0 3.1.8 4.9 2.4 5.3.4 0 1.4.9 2.9 2.7h4.2l.9.2c.6-.3 1.4-.4 2.4-.4h.9c-.4 2.9-.8 4.4-1.3 4.4l-.7-.2-.9 1.1-1.1-.2H136l-4.7-1.3c-3.7-1.5-5.5-3-5.5-4.4-.6-1.5-1-4.3-1.3-8.2l.2-.2v-.2l-.2-.9c1.7-4.9 4.1-7.3 7.1-7.3l7.7-.3zm-7.5 16.9l-.2.2v.5h.7v-.2l-.5-.5z"/><path id="XMLID_72_" d="M161.1 36.6c1 1.3 1.5 2.4 1.5 3.1.4 1.5.7 3.1.7 4.8V48l.2.9-.2.7.2.7c0 1.7-1 3.9-3.1 6.6l-3.7 2.2-2.2.2H153c-1.2 0-3.1-.9-5.7-2.6-2.6-2.9-4-7.1-4-12.8l-.4-.9.2-.2v-.2l-.2-1.3.4-2.9v-.2h1.3c.4 0 .7-.4.7-1.1h.4c0 .6.5 1.4 1.5 2.2l.2.9-.2 1.8c0 8.1 1.2 12.4 3.7 13l.2.2h.2c5-.5 7.5-1.3 7.5-2.4l.9-6.8v-3.1l-.7-2.2v-2.4c0-.3.2-.4.7-.4l.2.2h.2l.7-.4-.2-.7.2-.2h.3z"/><path id="XMLID_74_" d="M172.1 33.5c3.2.6 5.2 1.5 6 2.8 0 .5.2 1 .6 1.6v1.4h-.4c0-.4-.1-.6-.4-.6h-.4v.2l.4.6v.4c0 .3-.2.4-.6.4l-.2-.2h-.2l-.8.2c-.7-2.1-1.6-3.2-2.8-3.2-2.8 1.7-4.2 2.9-4.2 3.6.7 1.8 1.6 3.2 3 4l2.6 1.6c2.4.7 3.6 1.6 3.6 2.6 0 .5.4 1.4 1.2 2.8v.8c-.8 3.3-2 5-3.4 5-1.1 1.3-2.1 2-3 2h-1c-1.1-.5-2.7-.9-4.8-1 0-.4-.8-.6-2.4-.6l-1.6-1.8v-.2l.8-2.4 1.4.4v-.4l-.2-.2v-.2l.2-.2h.4c1.2 1 2.2 1.6 3.2 1.8 0 .3.4.6 1.2.8l-.2.2v.4h.4l.6-.6 1.6.2 1.4-.4v-1.2l1.4-1.6c0-1.2-.8-2.3-2.4-3.4l-1 .2h-.2c-1.6-.6-2.4-1.4-2.4-2.4-2.7-1.9-4-3.3-4-4.2l-.2-2c.4-2 1.5-3.8 3.4-5.6 1.4-.5 2.6-1 3.4-1.6zm1.2 14.8v.2l.4.4h.4l-.6-.6h-.2zm2.4 8.6v.4l.4-.4h-.4z"/><path id="XMLID_78_" d="M198.3 35h.4c0 .4.6.6 1.8.8l1.8-.2c4.3 2.9 7.1 5.1 8.5 6.7v.8c0 4.6-1.1 7.7-3.2 9.5-1.4 1.9-3.3 3.3-5.7 4.3-.2.2-1.4.5-3.4.8h-2.6c-1.1 0-2.6-.8-4.6-2.4l-2.2-2.4c-.4-1.1-.6-2.2-.6-3.2 1.5-5.2 2.6-8 3.4-8.5 1.7-2.3 3.9-4.2 6.7-5.9l-.3-.3zm-5.7 14c0 2.2.6 3.7 1.8 4.4.6 0 1.1.3 1.6.8l1.6-.4 2.2.2c1.8-.6 3.2-1.6 4.4-3 1.4-2 2-3.7 2-5.2-.1-1.2-1-2.7-2.6-4.5-.4 0-1.1-.5-2.2-1.4l-1-.2c-3.7 0-6.2 2.8-7.7 8.5l-.1.8zm17-6.1l-.2 1v.8h.6v-1.4l-.4-.4z"/><path id="XMLID_82_" d="M215.3 34.4c.1.5.6.8 1.6 1.1l.7-.7h.2c1 .5 2 2.4 2.9 5.7l2.5 6.6c.8 1 1.1 1.8 1.1 2.3h.7c1.1-6.2 2.2-10.7 3.4-13.4l.2-.2h.2c0 .3.8.7 2.3 1.1l-.7 2.7.2.2v.2c-.5 1.1-1.1 5.3-2 12.5l-.9 4.3.4.4v.2l-.2-.2-2.7.5-.2-.2-.9.9h-.2v-.2l.2-.2c0-.7-.9-2.5-2.7-5.5l-4.3-10.4h-.5c-.8 3.2-1.4 7.2-1.8 11.8l-.2.2h-.2l.2.2v.2c-.6.8-.9 1.9-1.1 3.4l-1.1.7h-.5l-.2-1.1.2-.2c-.6-.3-.9-.7-.9-1.1.6-7.5 1.3-13.3 2-17.5l1.4-2.3h.5v-1.6l.4-.4z"/></g><g id="XMLID_85_"><path id="XMLID_293_" class="st0" d="M16.7 146.5c2.6.5 4.3 1.2 4.9 2.3 0 .4.2.9.5 1.3v1.2h-.3c0-.3-.1-.5-.3-.5h-.3v.2l.3.5v.3c0 .2-.2.3-.5.3l-.2-.2h-.2l-.7.2c-.6-1.8-1.3-2.6-2.3-2.6-2.3 1.4-3.4 2.4-3.4 2.9.5 1.5 1.4 2.6 2.5 3.3l2.1 1.3c2 .6 3 1.3 3 2.1 0 .4.3 1.1 1 2.3v.7c-.7 2.7-1.6 4.1-2.8 4.1-.9 1.1-1.8 1.6-2.5 1.6h-.8c-.9-.4-2.2-.7-3.9-.8 0-.3-.7-.5-2-.5L9.5 165v-.2l.7-2 1.2.3v-.3l-.2-.2v-.2l.2-.2h.3c.9.8 1.8 1.3 2.6 1.5 0 .3.3.5 1 .7l-.2.2v.3h.3l.5-.5 1.3.2 1.2-.3v-1l1.2-1.3c0-1-.7-1.9-2-2.8l-.8.2h-.2c-1.3-.5-2-1.2-2-2-2.2-1.6-3.3-2.7-3.3-3.4l-.2-1.7c.3-1.6 1.2-3.1 2.8-4.6 1.1-.3 2.1-.7 2.8-1.2zm.9 12.1v.2l.3.3h.3l-.5-.5h-.1zm2 7.1v.3l.3-.3h-.3z"/><path id="XMLID_291_" class="st0" d="M28.7 145.2c0 .2.7.6 2.1 1.2 0 .4.5.6 1.5.8 6 1.8 9 2.9 9 3.5-.3 1.3-.6 1.9-1 1.9-5.4-1.8-8.4-2.7-9-2.7H31c-.7 0-1.2.6-1.5 1.9l-.2.2-.2.8c0 .6 1.7 1.3 5.2 1.9l5.2 1.9.2.2v.2c0 .3-.4.4-1.2.4 0 .4-.3.7-.8 1l-7.5-1.9H29l-.6.6v1.2c-.4 1.7-.6 3.2-.6 4.4 4.6.7 7.9 1.4 10 2.1l.2.2v1c-.3.5-.6.8-1 .8l-10.6-1c-.5.4-.8.9-.8 1.3h-.4l-.4-1.3h-.4c-.1.8-.3 1.2-.6 1.2s-.5-.7-.6-2.1c-.8-.1-1.2-.3-1.2-.6 1.4-.8 2.1-2.4 2.1-5l1.2-4.8-.8-1v-.4c1.2 0 1.7-.8 1.7-2.3.2 0 .4-.6.4-1.9-.8-.5-1.6-.8-2.3-.8l-.2-.2v-.4h1.7c.3 0 .5-.5.6-1.5 1.3-.2 1.9-.4 2.3-.8z"/><path id="XMLID_289_" class="st0" d="M45.3 148.7c.1.2.3.4.8.6-.6 6.4-.9 10.5-.9 12.5l8.6.6.2.2c1 .1 1.6.2 1.6.5l-1.1 1.6-2.4.2-3.9-.2-.6.2-.2-.2c-1.7 0-2.5.3-2.5.8 0 .3-.1.5-.3.5-.2 0-.3-.2-.3-.5l-.2-.2h-.2l-.9.2-.8-.3-1.3.3c-.4-.2-.6-.3-.6-.5v-.2c.2-.5.7-.8 1.4-.8v-.3h-1.2c-.2 0-.4-.3-.5-.8.2 0 .4-.4.5-1.3l.9-.2v.2l.6-.2v-.3c-.4 0-.6-.2-.6-.5v-.3c.3 0 .5-.1.5-.3l-.3-.3.3-4.7.2-.2-.3-.3v-.2c.2-.2.6-1.5 1.1-3.9.3-.7.7-1.1 1.1-1.1.4.2.9-.1 1.3-.6z"/><path id="XMLID_287_" class="st0" d="M56.3 146.1c1.2 0 1.7.3 1.7 1 .1.5.2.7.5.7l9.5-1.4 1 .3.2-.2h.2c.8.2 1.2.3 1.2.5v.2c0 .9-2.8 1.8-8.5 2.4-.3.3-1.4.6-3.3.9l-.5.5.2.2-.2.5c0 1.4.2 2.1.7 2.1l7.8-1 .3.7c0 1-1 1.6-2.9 1.6-3.6.7-5.4 1.3-5.4 1.7v.5l.9 7.5.3.2v.2c0 .8-.3 1.5-1 2.1l-.7-.2-.5.7-1.7-8.8h.2c0-1.3-.3-1.9-1-1.9l-1.2-1 1.7-1.2v-1.4c0-1.3-.3-2.5-1-3.8v-.2l.9-.9-.2-.9v-.9c0-.2.3-.3.9-.3l.2-.2v-.2z"/><path id="XMLID_284_" class="st0" d="M90.8 147.2c0 .4.6.6 1.8.6l.2.2v.4c0 1.1-.2 2.1-.5 3.1l-3.6-.7c-3.2 0-5.3.9-6.2 2.7l-.4 2c0 2.6.7 4 2 4.4.3 0 1.1.7 2.4 2.2H90l.7.2c.5-.2 1.1-.4 2-.4h.7c-.3 2.4-.7 3.6-1.1 3.6l-.5-.2-.7.9-.9-.2h-2l-3.8-1.1c-3-1.2-4.6-2.5-4.6-3.6-.5-1.3-.9-3.5-1.1-6.7l.2-.2v-.2l-.2-.7c1.4-4 3.3-6 5.8-6l6.3-.3zM84.6 161l-.2.2v.4h.6v-.2l-.4-.4z"/><path id="XMLID_280_" class="st0" d="M101.8 147.8h.3c0 .3.5.5 1.5.7l1.5-.2c3.5 2.4 5.9 4.2 7 5.5v.7c0 3.8-.9 6.4-2.7 7.8-1.2 1.6-2.7 2.8-4.7 3.5-.2.2-1.1.4-2.8.7h-2.2c-.9 0-2.1-.7-3.8-2l-1.8-2c-.3-.9-.5-1.8-.5-2.7 1.2-4.2 2.1-6.6 2.8-7 1.4-1.9 3.2-3.5 5.5-4.8l-.1-.2zm-4.7 11.4c0 1.8.5 3 1.5 3.6.5 0 .9.2 1.3.7l1.3-.3 1.8.2c1.4-.5 2.7-1.3 3.6-2.5 1.1-1.6 1.7-3.1 1.7-4.3-.1-1-.8-2.2-2.2-3.7-.3 0-.9-.4-1.8-1.2l-.8-.2c-3 0-5.1 2.3-6.3 7l-.1.7zm14-4.9l-.2.8v.7h.5v-1.2l-.3-.3z"/><path id="XMLID_278_" class="st0" d="M115.7 147.3c.1.4.5.7 1.3.9l.6-.6h.2c.8.4 1.6 2 2.4 4.7l2.1 5.4c.6.8.9 1.5.9 1.9h.6c.9-5.1 1.8-8.8 2.8-11l.2-.2h.2c0 .3.6.6 1.9.9l-.6 2.2.2.2v.2c-.4.9-.9 4.3-1.7 10.3l-.7 3.6.4.4v.2l-.2-.2-2.2.4-.2-.2-.9.6h-.2v-.2l.2-.2c0-.6-.7-2.1-2.2-4.5l-3.5-8.6h-.4c-.6 2.7-1.1 5.9-1.5 9.7l-.2.2h-.2l.2.2v.2c-.5.6-.8 1.6-.9 2.8l-.9.6h-.4l-.2-.9.2-.2c-.5-.3-.8-.6-.8-.9.5-6.1 1.1-10.9 1.7-14.4l1.1-1.9h.4v-1.3l.3-.3z"/><path id="XMLID_276_" class="st0" d="M130.7 146.1c1.2 0 1.7.3 1.7 1 .1.5.2.7.5.7l9.5-1.4 1 .3.2-.2h.2c.8.2 1.2.3 1.2.5v.2c0 .9-2.8 1.8-8.5 2.4-.3.3-1.4.6-3.3.9l-.5.5.2.2-.2.5c0 1.4.2 2.1.7 2.1l7.8-1 .3.7c0 1-1 1.6-2.9 1.6-3.6.7-5.4 1.3-5.4 1.7v.5l.9 7.5.2.2v.2c0 .8-.3 1.5-1 2.1l-.7-.2-.5.7-1.7-8.8h.2c0-1.3-.3-1.9-1-1.9l-1.2-1 1.7-1.2v-1.4c0-1.3-.3-2.5-1-3.8v-.2l.9-.9-.2-.9v-.9c0-.2.3-.3.9-.3l.2-.2v-.2z"/><path id="XMLID_273_" class="st0" d="M146.5 145.4h.3l.5.3 1-.2.2.2v4.3l-.3.3-.5-.2-1.1 1.1c-.4 0-.7-1.6-.8-4.7h.2l-.2-.2v-.3l.7-.6zm2.2 7.5l.2.5.5 9.6-.2.2v.2c.3 1.3.5 2.7.5 4l-.5.2c-1.7 0-2.6-.2-2.6-.6v-1.4l-.3-5.1v-.2l-.2-.6.2-.6v-.2l-.2-.5.2-.8v-2.7l-.2-.8c.5-.4.9-.6 1.1-.6l.3.3c.6-.7 1-.9 1.2-.9z"/><path id="XMLID_270_" class="st0" d="M152 147.1c6 1.6 8.9 2.7 8.9 3.1l2.5 1.8c0 .4.6 1.1 1.8 2 .6.8.9 1.4.9 1.8v.5l-.2.2.2.2v2.9l-.9 1.3h-.6v-.4c.6-.6.9-1.2.9-1.6l-.2-.2h-.2l-1.3 2.7-.4.4.2.7c-.9 1.2-3.9 2.1-8.9 2.9 0 1-.6 1.5-1.8 1.5h-.2c-.4-1.2-.7-1.8-1.1-1.8-.7 0-1.1-.1-1.1-.4l.7-.2v-1.3l.6-.7-.2-.2v-.2c0-6.4-.4-10.1-1.3-10.9l-.2-.9.2-.2-.2-.9v-.4c0-.2.4-.4 1.1-.5.2-.8.4-1.2.8-1.2zm2.5 4.9v3.5l.4 7.1.5.2c3.2 0 5.7-1.6 7.7-4.9l.2-.5c-1.1-2.8-2.4-4.2-3.8-4.2-.5-.7-1.6-1.2-3.3-1.5h-1.3l-.4.3z"/><path id="XMLID_268_" class="st0" d="M172.8 145.2c0 .2.7.6 2.1 1.2 0 .4.5.6 1.5.8 6 1.8 9 2.9 9 3.5-.3 1.3-.6 1.9-1 1.9-5.4-1.8-8.4-2.7-9-2.7h-.4c-.7 0-1.2.6-1.5 1.9l-.2.2-.2.8c0 .6 1.7 1.3 5.2 1.9l5.2 1.9.2.2v.2c0 .3-.4.4-1.2.4 0 .4-.3.7-.8 1l-7.5-1.9H173l-.6.6v1.2c-.4 1.7-.6 3.2-.6 4.4 4.6.7 7.9 1.4 10 2.1l.2.2v1c-.3.5-.6.8-1 .8l-10.6-1c-.5.4-.8.9-.8 1.3h-.4l-.4-1.3h-.4c-.1.8-.3 1.2-.6 1.2s-.5-.7-.6-2.1c-.8-.1-1.2-.3-1.2-.6 1.4-.8 2.1-2.4 2.1-5l1.2-4.8-.8-1v-.4c1.2 0 1.7-.8 1.7-2.3.2 0 .4-.6.4-1.9-.8-.5-1.6-.8-2.3-.8l-.2-.2v-.4h1.7c.3 0 .5-.5.6-1.5 1.4-.2 2-.4 2.4-.8z"/><path id="XMLID_266_" class="st0" d="M188.4 147.3c.1.4.5.7 1.3.9l.6-.6h.2c.8.4 1.6 2 2.4 4.7l2.1 5.4c.6.8.9 1.5.9 1.9h.6c.9-5.1 1.8-8.8 2.8-11l.2-.2h.2c0 .3.6.6 1.9.9l-.6 2.2.2.2v.2c-.4.9-.9 4.3-1.7 10.3l-.7 3.6.4.4v.2l-.2-.2-2.2.4-.2-.2-.7.7h-.2v-.2l.2-.2c0-.6-.7-2.1-2.2-4.5l-3.5-8.6h-.4c-.6 2.7-1.1 5.9-1.5 9.7l-.2.2h-.2l.2.2v.2c-.5.6-.8 1.6-.9 2.8l-.9.6h-.4l-.2-.9.2-.2c-.5-.3-.7-.6-.7-.9.5-6.1 1.1-10.9 1.7-14.4l1.1-1.9h.4v-1.7z"/><path id="XMLID_263_" class="st0" d="M214 147.2c0 .4.6.6 1.8.6l.2.2v.4c0 1.1-.2 2.1-.5 3.1l-3.6-.7c-3.2 0-5.3.9-6.2 2.7l-.4 2c0 2.6.7 4 2 4.4.3 0 1.1.7 2.4 2.2h3.5l.7.2c.5-.2 1.1-.4 2-.4h.7c-.3 2.4-.7 3.6-1.1 3.6l-.5-.2-.7.9-.9-.2h-2l-3.8-1.1c-3-1.2-4.6-2.5-4.6-3.6-.5-1.3-.9-3.5-1.1-6.7l.2-.2v-.2l-.2-.7c1.4-4 3.3-6 5.8-6l6.3-.3zm-6.2 13.8l-.2.2v.4h.5v-.2l-.3-.4z"/><path id="XMLID_261_" class="st0" d="M222.8 145.2c0 .2.7.6 2.1 1.2 0 .4.5.6 1.5.8 6 1.8 9 2.9 9 3.5-.3 1.3-.6 1.9-1 1.9-5.4-1.8-8.4-2.7-9-2.7h-.4c-.7 0-1.2.6-1.5 1.9l-.2.2-.2.8c0 .6 1.7 1.3 5.2 1.9l5.2 1.9.2.2v.2c0 .3-.4.4-1.2.4 0 .4-.3.7-.8 1l-7.5-1.9H223l-.6.6v1.2c-.4 1.7-.6 3.2-.6 4.4 4.6.7 7.9 1.4 10 2.1l.2.2v1c-.3.5-.6.8-1 .8l-10.6-1c-.5.4-.8.9-.8 1.3h-.4l-.4-1.3h-.4c-.1.8-.3 1.2-.6 1.2s-.5-.7-.6-2.1c-.8-.1-1.2-.3-1.2-.6 1.4-.8 2.1-2.4 2.1-5l1.2-4.8-.8-1v-.4c1.2 0 1.7-.8 1.7-2.3.2 0 .4-.6.4-1.9-.8-.5-1.6-.8-2.3-.8l-.2-.2v-.4h1.7c.3 0 .5-.5.6-1.5 1.4-.2 2-.4 2.4-.8z"/><path id="XMLID_258_" class="st0" d="M236.4 146.4l.7.1c.8.1 1.1.8.9 2.2-.1.9.3 5.3 1 13v.2c-.1.3-.7.8-1.8 1.6l-1.1-.8.2-.1-.7-10.1c-.3 0-.3-1.8 0-5.3v-.2l.8-.6zm1.2 18.3l.8.2.5.1.8-.1c.3 3.1.8 5 1.4 5.7v.2h-.2l-.9-.9h-.3c0 .3-.2.5-.4.5l-.1-.5h-.3l-.3.3c-1.1-.3-1.6-.8-1.5-1.3-.3-1.4-.4-2.4-.3-3.2v-.3l.8-.7z"/></g><g id="XMLID_86_"><path id="XMLID_365_" class="st0" d="M67.3 94.2c.2 0 .3.1.3.4.2 0 .4.3.5.8h.1l.5-.1.3.3h.1l5 .1c0 .3.4.5 1.2.5l.1.1v.4c-.7.4-1.3.5-1.6.5-3.5 0-5.3.2-5.3.5l-.3 4.9v3.9l-.3 1.2.1 1.8-1.2.9c-.2 0-.3-.2-.3-.5H66l-.4.7v1.3l-.3.3c-.2-.5-.3-1.5-.3-3.1v-2c0-1.6.3-4.2.8-7.8l.2-.1v-.1l.3-1.1-.1-.1h-.9l-.5-.1-.9.1H61c-1.5-.2-2.3-.4-2.3-.7l1.6-1.9 6.1.3c.4 0 .5-.4.5-1.2l.1-.1h.3z"/><path id="XMLID_363_" class="st0" d="M79.2 92.5c0 .2.6.5 1.8 1 0 .3.4.5 1.3.7 5.1 1.5 7.6 2.4 7.6 2.9-.2 1.1-.5 1.6-.8 1.6-4.6-1.5-7.1-2.3-7.6-2.3h-.3c-.6 0-1 .5-1.3 1.6l-.2.2-.2.6c0 .5 1.5 1.1 4.4 1.6l4.4 1.6.2.2v.2c0 .2-.3.3-1 .3 0 .3-.2.6-.6.8l-6.3-1.6h-1l-.5.5v1c-.3 1.5-.5 2.7-.5 3.7 3.8.6 6.6 1.2 8.4 1.8l.2.2v.8c-.2.4-.5.6-.8.6l-8.9-.8c-.4.4-.7.8-.7 1.1h-.3l-.3-1.1h-.3c-.1.6-.3 1-.5 1s-.4-.6-.5-1.8c-.6-.1-1-.3-1-.5 1.2-.6 1.8-2 1.8-4.2l1-4-.7-1v-.3c1 0 1.5-.6 1.5-1.9.2 0 .3-.5.3-1.6-.7-.4-1.3-.6-1.9-.6l-.2-.2v-.3h1.5c.2 0 .4-.4.5-1.3.7-.1 1.2-.2 1.5-.5z"/><path id="XMLID_360_" class="st0" d="M96.1 92.3c.5.3 1.2.5 2 .6l.5-.5.6.6h.2l-.3 1 2.2 5.6c.9 1.6 1.5 2.9 1.7 3.9 1.2.2 1.7.4 1.7.8l-.6.2v.2l.5.6-.3.6 1.3 3.1c.3 0 .5.3.8.8l-.2.2v.2c-.4-.1-.8-.5-1.1-1.3h-.5c-.2 0-.3.3-.3.9l-.6.5c-1.6-3.2-2.7-4.9-3.3-4.9l-4.9-.9h-.8c-1 3.9-2 5.8-3.1 5.8l-.5.6c0-.2-.2-.3-.5-.3l-1.4 1.3-.3-.3v-.6c0-.4.8-2.2 2.5-5.3l.5-1.6v-.3c-.3 0-.9-.4-1.7-1.1v-.2c0-.3 1-.6 3-.9l2-5.6.9-2.2-.1-1.3.1-.2zm.4 8l.2 1.1-.2.2h-.2l-.2-.5-.6.5.2.5.6-.3c.3 0 .6.2.9.5l1.6.2v-.5c0-.4-.2-.7-.6-1.1 0-.4-.3-.9-.8-1.6v-.8c-.6.3-.9.9-.9 1.8z"/><path id="XMLID_357_" class="st0" d="M120.4 94.7h.3c1 .6 1.5 1.7 1.5 3.2l.2 3.9-.2 1.2.2.5v.3h-.2l.2 1.8v2.4l.2 2.1c-.3.6-.5 1-.8 1.1h-.3l-.3-.3v-.8h-.3c-.3 0-.5.4-.6 1.2h-.3l-.4-8.8h-.6c-.6.9-1.4 2.9-2.4 6.1v1.5l-.5.4h-.1l-.5-.3h-.2v.3l.2.8h-.3c0-.3-.3-.7-.9-1.2-.2 0-.4.2-.4.6h-.5v-.2l.5-.8v-.6c-.5-.8-1.1-1.7-2-2.6l-2.6-4.2-.6.2-.2 4.8v2.4c-.6.9-1.2 1.4-2 1.4h-.2l-.6-.6v-.2l.2-.1-.2-.2v-1.8l-.2-.9.2-.5-.2-.8c0-6.1.5-9.8 1.5-10.9h.2l.3.3.5-.6h.3c0 .5.4.9 1.1 1.1 2.7 5.7 4.5 9 5.3 9.7h.6c.3-1.3 1.5-4.3 3.5-8.9l.3-.3c.8-.7 1.3-1.3 1.3-1.7zm-11.6 6.6c.1.6.2.9.5.9v-.3h.2l-.2-.6h-.5z"/><path id="XMLID_355_" class="st0" d="M148.4 94.5l.2.8.9-.4c.4.2.7.4.7.7l-2 4.4-3.7 10.7-.1.2h-.3c-.8-.1-1.4-.9-1.9-2.3-1.4-2.8-2.5-4.7-3.3-5.5h-.2c-.5.9-1.3 3.6-2.4 8.1h-.3l-.2-.1h-.2c-.5 0-.7.4-.8 1h-.5c0-.4-.4-1-1.1-1.9-3.1-6.7-4.8-11.1-5-13.1l.4-.4 1 .2.6-.2 2.1 5.3 2.4 5.1h.5c1.2-3.9 1.8-6.3 1.8-7.4.6-.1 1.3-.6 2.1-1.6 1 .9 2.1 2.9 3.4 6.1.2 0 .4.4.6 1.4l.2.1h.3c.2-.2 1.2-2.5 2.8-7.2.6-2.1 1.3-3.4 2-4z"/><path id="XMLID_351_" class="st0" d="M156.5 94.6h.3c0 .2.4.4 1.3.6l1.3-.1c3 2 4.9 3.5 5.9 4.6v.6c0 3.2-.7 5.4-2.2 6.6-1 1.3-2.3 2.3-3.9 2.9-.1.2-.9.3-2.4.6H155c-.7 0-1.8-.6-3.2-1.7l-1.5-1.7c-.3-.7-.4-1.5-.4-2.2 1-3.6 1.8-5.5 2.4-5.9 1.2-1.6 2.7-2.9 4.6-4l-.4-.3zm-3.9 9.6c0 1.5.4 2.5 1.3 3.1.4 0 .8.2 1.1.6l1.1-.3 1.5.1c1.2-.4 2.2-1.1 3.1-2.1.9-1.4 1.4-2.6 1.4-3.6-.1-.8-.7-1.8-1.8-3.1-.3 0-.8-.3-1.5-1l-.7-.1c-2.5 0-4.3 2-5.3 5.9l-.2.5zm11.7-4.2l-.1.7v.6h.4v-1l-.3-.3z"/><path id="XMLID_348_" class="st0" d="M170.9 93.7h.6c.6 0 .8.2.8.6h.8c.4.4 1.1.8 2.3 1.3.3.6.6 1.5.9 3l.1.1v.1c0 .6-.3 1.3-.9 2-.2 1.6-.6 2.4-1.4 2.4h-.3v.1c1.3 2.3 2.8 4.2 4.4 5.7l.1.1c0 .5-.1.8-.4.8l-.7-.1-.4.7c-.3 0-1.3-.9-3-2.8-1-1.8-1.9-3-2.6-3.4h-.4c-1.4.6-2.1 1.1-2.1 1.6l.6 4.3c-.3 0-.8.4-1.4 1.1-.2 0-.4-.6-.7-1.9-.2 0-.4-.8-.7-2.4l.1-.1-.3-1.7h-.7c-.3-.1-.4-.4-.4-1.1.3 0 .7-.5 1.1-1.6l-.1-.1.1-.7v-.4c-.4-1.7-.7-2.6-1-2.6-.3 0-.4-.1-.4-.3v-.1l.3-.3-.1-.1v-.2c0-1 .4-2 1.1-3l1.7-.3.4.4c.2-.3.9-.5 2.1-.6.1-.4.3-.5.5-.5zm-2.6 3.9v.7l.6 4c1.3 0 2-.4 2-1.3l.1-.1v-.7h.2c.2 0 .3.3.4.8h.3v.1l.6-.3.8.1 1-2.1-.6-.6.1-.7h-.3c0-.5-.6-.8-1.7-1.1l-.4-.4c-.8.1-1.8.6-3.1 1.6z"/><path id="XMLID_346_" class="st0" d="M188.5 94.4h.3v.1l-.7.9v.4h.1l.8-.8h.1c0 .6-1.1 2-3.4 4.3l.1.8c1 1.2 1.5 2.1 1.5 2.5.3 0 .4.1.4.2v.1h-.3v.1c1.4 1.9 2.4 2.9 2.9 3.2.5.5 1 1.4 1.4 2.7l-.1.8.2.5-.5-.1-.1.1h-.1c-1-.3-1.5-.6-1.7-1.1l-.3-.4c-.3 0-.4-.1-.4-.2l.1-.1h.1v.3h.1v-.1l-.6-1.2h-.7l-.1-.1c-.2 0-.3-.3-.3-.9-.6 0-1.2-.8-1.9-2.4-.8-.8-1.3-1.6-1.5-2.5h-.1c-.7.3-1.2 1-1.7 2-.4.3-.6.7-.6 1.2v.1l.3 1.9-.1 1.7.2.8v.7h-.5c-.1 0-.3-.2-.4-.5l.1-.5-.2-.4h-.3l-.1.4.1.1v.1c-.3 1-.5 1.5-.7 1.5h-.1l-.3-.6v-1.6l-.3-2.2v-1.3c0-.3-.4-.5-1-.7v-.1c.8-.6 1.1-1.9.9-3.8l-.1-3.1-.1-1.6.8-.6h.3c.8.3 1.3.9 1.3 1.9l-.3 1.5v.4c.4.2.6.8.7 1.5.7-.7 1.1-1.1 1.1-1.3l-.3-.8c0-.4.1-.6.5-.8h.5l.6.4c.2 0 .6-.5 1.4-1.4l3-2z"/></g><g id="XMLID_87_"><path id="XMLID_340_" d="M18.3 117.3l1.8.2 1.6 1.2v.9c-.9 3-1.8 4.9-2.7 5.5l-1.4 1.2 2.1 2.8c.5-.6 1.2-1 2-1.3l.3-.2h.1l.4.8v.3l-.1.1v.1h.1l.5-.1.1.1v.4l-1.7 1.5c.4.1 1 .6 1.7 1.6l-.1.8-.3.2-.6-.2v.1l.1.7-.4.2h-.1c-.5-.6-1.3-1.3-2.4-2.1-.1.5-1.9 1-5.6 1.4-1.4-.1-2.2-1.2-2.3-3.3 0-.2.2-.2.4-.2l.1-.8c0-.4.6-1.1 1.7-2.3l.8-1.3c-.6-.6-1-1.1-1.2-1.6v-.3l.3-.4v-.4c-.2-.3-.3-.9-.2-1.6v-.1c.2-.2.4-.9.7-2 1.2-1.6 2.5-2.3 4-2.1l.3.2zm-2.9 11.1l-1.8 3.1v.1l1.2.1c.3-.2.8-.3 1.8-.4 0-.2.4-.4 1.1-.5l-2.3-2.4zm.2-7.6v.4h.1v-.4h-.1zm.8 1.5l-.1.5.2 1.6h.3l2-2.4.4-1v-.3c-.3-.4-.5-.7-.4-1-1.1-.1-1.9.8-2.4 2.6zm2-3.4v.1h.3v-.1h-.3z"/><path id="XMLID_337_" d="M44.6 119.3h.3c1 .6 1.5 1.7 1.5 3.2l.2 3.9-.2 1.2.2.5v.3h-.2l.2 1.8v2.4l.2 2.1c-.3.6-.5 1-.8 1.1h-.3l-.3-.3v-.8H45c-.3 0-.5.4-.6 1.2h-.3l-.4-8.8h-.6c-.6.9-1.4 2.9-2.4 6.1v1.5l-.5.4H40l-.5-.3h-.2v.3l.2.8h-.3c0-.3-.3-.7-.9-1.2-.2 0-.4.2-.4.6h-.5v-.2l.5-.8v-.6c-.5-.8-1.1-1.7-2-2.6l-2.6-4.2-.6.2-.2 4.8v2.4c-.6.9-1.2 1.4-2 1.4h-.2l-.6-.6v-.1l.2-.1-.2-.2v-1.8l-.2-.9.2-.5-.2-.8c0-6.1.5-9.8 1.5-10.9h.2l.3.3.5-.6h.3c0 .5.4.9 1.1 1.1 2.7 5.7 4.5 9 5.3 9.7h.6c.3-1.3 1.5-4.3 3.5-8.9l.3-.3c1-.8 1.5-1.4 1.5-1.8zm-11.5 6.6c.1.6.2.9.5.9v-.3h.2l-.2-.6h-.5z"/><path id="XMLID_333_" d="M53.5 119.2h.3c0 .2.4.4 1.3.6l1.3-.1c3 2 4.9 3.5 5.9 4.6v.6c0 3.2-.7 5.4-2.2 6.6-1 1.3-2.3 2.3-3.9 2.9-.1.2-.9.3-2.4.6H52c-.7 0-1.8-.6-3.2-1.7l-1.5-1.7c-.3-.7-.4-1.5-.4-2.2 1-3.6 1.8-5.5 2.4-5.9 1.2-1.6 2.7-2.9 4.6-4l-.4-.3zm-3.9 9.6c0 1.5.4 2.5 1.3 3.1.4 0 .8.2 1.1.6l1.1-.3 1.5.1c1.2-.4 2.2-1.1 3.1-2.1.9-1.4 1.4-2.6 1.4-3.6-.1-.8-.7-1.8-1.8-3.1-.3 0-.8-.3-1.5-1l-.7-.1c-2.5 0-4.3 2-5.3 5.9l-.2.5zm11.7-4.2l-.1.7v.6h.4v-1l-.3-.3z"/><path id="XMLID_329_" d="M68.2 118.1c2.2.4 3.6 1 4.1 1.9 0 .3.1.7.4 1.1v1h-.3c0-.3-.1-.4-.3-.4h-.3v.1l.3.4v.3c0 .2-.1.3-.4.3l-.1-.1h-.1l-.6.1c-.5-1.5-1.1-2.2-1.9-2.2-1.9 1.2-2.9 2-2.9 2.5.4 1.3 1.1 2.2 2.1 2.8L70 127c1.7.5 2.5 1.1 2.5 1.8 0 .3.3 1 .8 1.9v.6c-.6 2.3-1.4 3.5-2.4 3.5-.8.9-1.5 1.4-2.1 1.4h-.7c-.7-.4-1.8-.6-3.3-.7 0-.3-.6-.4-1.7-.4l-1.1-1.2v-.1l.6-1.7 1 .3v-.3l-.1-.1v-.1l.1-.1h.3c.8.7 1.5 1.1 2.2 1.2 0 .2.3.4.8.6l-.1.1v.3h.3l.4-.4 1.1.1 1-.3v-.8l1-1.1c0-.8-.6-1.6-1.7-2.4l-.7.1h-.1c-1.1-.4-1.7-1-1.7-1.7-1.8-1.3-2.8-2.3-2.8-2.9l-.1-1.4c.3-1.3 1-2.6 2.4-3.9.9-.4 1.7-.8 2.3-1.2zm.8 10.2v.1l.3.3h.3l-.4-.4H69zm1.7 6v.3l.3-.3h-.3z"/><path id="XMLID_327_" d="M81.3 118.8c.2 0 .3.1.3.4.2 0 .4.3.5.8h.1l.5-.1.3.3h.1l5 .1c0 .3.4.5 1.2.5l.1.1v.4c-.7.4-1.3.5-1.6.5-3.5 0-5.3.2-5.3.5l-.3 4.9v3.9l-.3 1.2.1 1.8-1.2.9c-.2 0-.3-.2-.3-.5H80l-.4.7v1.3l-.3.3c-.2-.5-.3-1.5-.3-3.1v-2c0-1.6.3-4.2.8-7.8l-.1-.1v-.1l.3-1.1-.1-.1H79l-.5-.1-.9.1h-2.7c-1.5-.2-2.3-.4-2.3-.7l1.6-1.9 6.1.3c.4 0 .5-.4.5-1.2l.1-.1h.4z"/><path id="XMLID_324_" d="M95.3 117.2h.3l.4.3.8-.1.1.1v3.6l-.3.3-.4-.1-.9.9c-.3 0-.6-1.3-.7-3.9h.1l-.1-.1v-.3l.7-.7zm1.9 6.3l.1.4.4 8.1-.1.1v.1c.3 1.1.4 2.3.4 3.4l-.4.1c-1.4 0-2.2-.2-2.2-.5V134l-.3-4.3v-.1l-.1-.5.1-.5v-.1l-.1-.4.1-.7V125l-.1-.7c.4-.4.7-.5.9-.5l.3.3c.5-.4.8-.6 1-.6z"/><path id="XMLID_321_" d="M113.4 119.3h.3c1 .6 1.5 1.7 1.5 3.2l.2 3.9-.2 1.2.2.5v.3h-.2l.2 1.8v2.4l.2 2.1c-.3.6-.5 1-.8 1.1h-.3l-.3-.3v-.8h-.3c-.3 0-.5.4-.6 1.2h-.3l-.4-8.8h-.6c-.6.9-1.4 2.9-2.4 6.1v1.5l-.5.4h-.1l-.5-.3h-.2v.3l.2.8h-.3c0-.3-.3-.7-.9-1.2-.2 0-.4.2-.4.6h-.5v-.2l.5-.8v-.6c-.5-.8-1.1-1.7-2-2.6l-2.6-4.2-.6.2-.2 4.8v2.4c-.6.9-1.2 1.4-2 1.4h-.2l-.6-.6v-.1l.2-.1-.2-.2v-1.8l-.2-.9.2-.5-.2-.8c0-6.1.5-9.8 1.5-10.9h.2l.3.3.5-.6h.3c0 .5.4.9 1.1 1.1 2.7 5.7 4.5 9 5.3 9.7h.6c.3-1.3 1.5-4.3 3.5-8.9l.3-.3c.8-.8 1.3-1.4 1.3-1.8zm-11.5 6.6c.1.6.2.9.5.9v-.3h.2l-.2-.6h-.5z"/><path id="XMLID_317_" d="M116.8 118.8c.2 0 .3.2.4.6l1.3-.5c.2.5.9.7 2 .5 3.1.6 5.2 1.5 6.1 2.7.4.3.6.6.7 1l.1.5c-.7 1.9-1.3 2.9-1.9 3 0 .5-.7 1.2-2.3 2.1l-4.4 2c.4 2.6.2 4-.5 4.1l-.8 1.1-.2-.1-.1.2h-.1l-.5-.3-.3-2.3v-1.9c-.5 0-.7-.2-.7-.4l.1-.6-.2-.1v-.1c.5-2 .7-4.8.6-8.2l-.1-.9-.3-.4v-.3c-.2-.2.2-.8 1.1-1.7zm1.8 9.3l.2.1h.3c3.7-1.2 5.4-2.4 5.3-3.6l-.1-.7c-.2-1.3-1.5-1.9-4.1-1.8H119c-.6.1-.7 2.1-.4 6zm7.6-5.4v.3h.1v-.3h-.1z"/><path id="XMLID_313_" d="M134.2 119.2h.3c0 .2.4.4 1.3.6l1.3-.1c3 2 4.9 3.5 5.9 4.6v.6c0 3.2-.7 5.4-2.2 6.6-1 1.3-2.3 2.3-3.9 2.9-.1.2-.9.3-2.4.6h-1.8c-.7 0-1.8-.6-3.2-1.7l-1.5-1.7c-.3-.7-.4-1.5-.4-2.2 1-3.6 1.8-5.5 2.4-5.9 1.2-1.6 2.7-2.9 4.6-4l-.4-.3zm-3.9 9.6c0 1.5.4 2.5 1.3 3.1.4 0 .8.2 1.1.6l1.1-.3 1.5.1c1.2-.4 2.2-1.1 3.1-2.1.9-1.4 1.4-2.6 1.4-3.6-.1-.8-.7-1.8-1.8-3.1-.3 0-.8-.3-1.5-1l-.7-.1c-2.5 0-4.3 2-5.3 5.9l-.2.5zm11.7-4.2l-.1.7v.6h.4v-1l-.3-.3z"/><path id="XMLID_310_" d="M148.6 118.3h.6c.6 0 .8.2.8.6h.8c.4.4 1.1.8 2.3 1.3.3.6.6 1.5.9 3l.1.1v.1c0 .6-.3 1.3-.9 2-.2 1.6-.6 2.4-1.4 2.4h-.3v.1c1.3 2.3 2.8 4.2 4.4 5.7l.1.1c0 .5-.1.8-.4.8l-.7-.1-.4.7c-.3 0-1.3-.9-3-2.8-1-1.8-1.9-3-2.6-3.4h-.4c-1.4.6-2.1 1.1-2.1 1.6l.6 4.3c-.3 0-.8.4-1.4 1.1-.2 0-.4-.6-.7-1.9-.2 0-.4-.8-.7-2.4l.1-.1-.3-1.7h-.7c-.3-.1-.4-.4-.4-1.1.3 0 .7-.5 1.1-1.6l-.1-.1.1-.7v-.4c-.4-1.7-.7-2.6-1-2.6-.3 0-.4-.1-.4-.3v-.1l.3-.3-.1-.1v-.2c0-1 .4-2 1.1-3l1.7-.3.4.4c.2-.3.9-.5 2.1-.6.1-.3.3-.5.5-.5zm-2.6 3.9v.7l.6 4c1.3 0 2-.4 2-1.3l.1-.1v-.7h.2c.2 0 .3.3.4.8h.3v.1l.6-.3.8.1 1-2.1-.6-.6.1-.7h-.3c0-.5-.6-.8-1.7-1.1l-.4-.4c-.8.1-1.9.6-3.1 1.6z"/><path id="XMLID_308_" d="M164 118.8c.2 0 .3.1.3.4.2 0 .4.3.5.8h.1l.5-.1.3.3h.1l5 .1c0 .3.4.5 1.2.5l.1.1v.4c-.7.4-1.3.5-1.6.5-3.5 0-5.3.2-5.3.5l-.3 4.9v3.9l-.3 1.2.1 1.8-1.2.9c-.2 0-.3-.2-.3-.5h-.5l-.4.7v1.3l-.3.3c-.2-.5-.3-1.5-.3-3.1v-2c0-1.6.3-4.2.8-7.8l-.1-.1v-.1l.3-1.1-.1-.1h-.9l-.5-.1-.9.1h-2.7c-1.5-.2-2.3-.4-2.3-.7l1.6-1.9 6.1.3c.4 0 .5-.4.5-1.2l.1-.1h.4z"/><path id="XMLID_305_" d="M177.6 116.9c.5.3 1.2.5 2 .6l.5-.5.6.6h.2l-.3.9 2.2 5.6c.9 1.6 1.5 2.9 1.7 3.9 1.2.2 1.7.4 1.7.8l-.6.2v.2l.5.6-.3.6 1.3 3.1c.3 0 .5.3.8.8l-.2.2v.2c-.4-.1-.8-.5-1.1-1.3h-.5c-.2 0-.3.3-.3.9l-.6.5c-1.6-3.2-2.7-4.9-3.3-4.9l-4.9-.9h-.8c-1 3.9-2 5.8-3.1 5.8l-.5.6c0-.2-.2-.3-.5-.3l-1.4 1.3-.3-.3v-.6c0-.4.8-2.2 2.5-5.3l.5-1.6v-.3c-.3 0-.9-.4-1.7-1.1v-.2c0-.3 1-.6 3-.9l2-5.6.9-2.2-.2-1.3.2-.1zm.3 8l.2 1.1-.2.2h-.2l-.2-.5-.6.5.2.5.6-.3c.3 0 .6.2.9.5l1.6.2v-.3c0-.4-.2-.7-.6-1.1 0-.4-.3-.9-.8-1.6v-.8c-.6.1-.9.7-.9 1.6z"/><path id="XMLID_303_" d="M189.7 118.8c.1.3.4.6 1.1.8l.5-.5h.2c.7.3 1.4 1.7 2 3.9l1.7 4.5c.5.7.8 1.2.8 1.6h.5c.7-4.3 1.5-7.4 2.4-9.3l.2-.2h.2c0 .2.5.5 1.6.8l-.5 1.9.2.2v.2c-.3.8-.8 3.6-1.4 8.6l-.6 3 .3.3v.2l-.2-.2-1.9.3-.2-.2-.6.6h-.2v-.2l.2-.2c0-.5-.6-1.8-1.9-3.8l-3-7.2h-.3c-.5 2.2-.9 5-1.3 8.2l-.2.2h-.2l.2.2v.2c-.4.5-.6 1.3-.8 2.4l-.8.5h-.3l-.2-.8.2-.2c-.4-.2-.6-.5-.6-.8.4-5.2.9-9.2 1.4-12.1l.9-1.6h.3V119l.3-.2z"/><path id="XMLID_301_" d="M208.7 118.8c.2 0 .3.1.3.4.2 0 .4.3.5.8h.1l.5-.1.3.3h.1l5 .1c0 .3.4.5 1.2.5l.1.1v.4c-.7.4-1.3.5-1.6.5-3.5 0-5.3.2-5.3.5l-.3 4.9v3.9l-.3 1.2.1 1.8-1.2.9c-.2 0-.3-.2-.3-.5h-.5l-.4.7v1.3l-.3.3c-.2-.5-.3-1.5-.3-3.1v-2c0-1.6.3-4.2.8-7.8l-.1-.1v-.1l.3-1.1-.1-.1h-.9l-.5-.1-.9.1h-2.7c-1.5-.2-2.3-.4-2.3-.7l1.6-1.9 6.1.3c.4 0 .5-.4.5-1.2l.1-.1h.4z"/><path id="XMLID_299_" d="M219.4 120c0 .2.3.4.7.5-.5 5.4-.8 8.9-.8 10.5l7.2.5.1.1c.9 0 1.3.2 1.3.4l-.9 1.3-2 .1-3.3-.1-.5.1-.1-.1c-1.4 0-2.1.2-2.1.7 0 .3-.1.4-.3.4-.2 0-.3-.1-.3-.4l-.1-.1h-.1l-.8.1-.7-.3-1.1.3c-.3-.1-.5-.3-.5-.4v-.1c.2-.4.6-.7 1.2-.7v-.3h-1c-.2 0-.3-.2-.4-.7.2 0 .3-.4.4-1.1l.8-.1v.1l.5-.1v-.3c-.3 0-.5-.1-.5-.4v-.3c.3 0 .4-.1.4-.3l-.3-.3.3-3.9.1-.1-.3-.3v-.1c.2-.1.5-1.2.9-3.3.3-.6.6-.9.9-.9.5.2.9 0 1.3-.4z"/><path id="XMLID_297_" d="M239 117.2h.2l.1.9c0 .8-.7 2-2.2 3.8l-2.7 4.6-.3 2.7v1c0 1.4.3 3.2.9 5.5h-.1l-1-.9h-.3v.1l.3 1.3-.7.6c-.2 0-.4-.3-.6-.9-.3 0-.4-.1-.4-.3l.1-2.4-.1-.6.1-.1v-.1l-.6-5.6-4.9-6.9-.2-.7v-1c0-.3.5-.5 1.4-.7 3 4.3 4.6 6.6 4.9 6.8h.1l3.6-5.1 1.2-1.3h.9c0-.5.1-.7.3-.7z"/></g></svg>