<svg id="Layer_1" xmlns="http://www.w3.org/2000/svg" viewBox="0 0 320.4 83.3">
  <style>
    .st0{fill:#221E20;} .st1{fill:#FFFFFF;} .st2{fill:#00FF00;}
  </style>
  <g id="XMLID_34_">
    <path id="XMLID_27_" d="M298.6 73.5c-1.5 1.9-2.8 3.1-4.6 3.7-2.2.7-4.2.3-6.2-.6-1.8-.8-3.1-2.3-4.4-3.8-1.2-1.5-2.4-2.9-3.6-4.4-1.1-1.4-2.5-2.1-4.2-2.3-2.6-.3-5.2-.5-7.8-.9-2.7-.3-5.3-.9-7.7-2.1-4.2-2.1-5.9-6-4.5-10.4 1-3.2 2.9-5.7 6-7.3 1.2-.6 2.5-.9 3.9-.7 2.3.3 4.4-.5 6.4-1.6l5.7-3.3c4.4-2.4 8.8-2.4 13.2-.1 3.9 2.1 5.1 5.3 4.5 9.3-.2 1.3-.4 2.6-.8 3.8-.5 1.6 0 2.8 1.1 4 1.4 1.4 2.7 2.8 3.9 4.3 2.2 2.9 2.3 6.1.7 9.4-.5 1.2-1.2 2.3-1.6 3z"/>
    <path id="XMLID_26_" d="M316.9 56.3c-3 3.8-8.4 5.1-12.7 3.1-1.8-.8-2.7-2.4-3.2-4.2-.8-3.3-.3-6.4 1.5-9.4 1.3-2.1 3.1-3.6 5-5 2.3-1.8 4.8-3.4 7.6-4.3.8-.3 1.7-.4 2.6-.5 1.5-.1 2.5.8 2.6 2.3.1 1.2 0 2.4 0 3.6-.1 3.4-.3 6.9-1.3 10.2-.2.8-.5 1.6-.9 2.3-.4.6-.8 1.2-1.2 1.9z"/>
    <path id="XMLID_25_" d="M297 22.9c2.7-3.3 5.5-6.2 9.1-8.2.9-.5 1.9-1 3-1 1.2 0 2.1.6 2.5 1.7.2.6.3 1.3.4 2 .3 2.7.6 5.4.8 8.1.1 2.7-.1 5.3-1.2 7.8-1.7 3.8-4.8 5.7-8.8 6.1-1.6.2-3.1 0-4.5-.7-1.3-.7-2.2-1.8-2.7-3.1-1.6-3.6-1.5-7.1.3-10.6.2-.8.8-1.5 1.1-2.1z"/>
    <path id="XMLID_24_" d="M278.9 15.5c1.9-2.4 4-4.1 6.4-5.6 1.8-1.2 3.7-2.3 5.6-3.4 2.2-1.3 3.7-.7 4.6 1.7.6 1.7.7 3.4.7 5.2 0 3.6-.4 7.1-1.7 10.5-1.7 4.3-4.9 6.9-9.6 7.5-1.8.3-3.4-.3-4.7-1.6-3.3-3.3-4.6-8.2-2.2-12.8.3-.7.7-1.2.9-1.5z"/>
    <path id="XMLID_23_" d="M259.5 39.2c-4.4-3.4-5.7-8.8-3.3-13.6 1.2-2.4 2.7-4.5 4.5-6.5 1.4-1.6 2.9-3.2 4.5-4.8 1.2-1.2 2.6-1.3 3.8-.1.4.4.7.8 1 1.2 1.1 1.8 1.7 3.8 2.2 5.8.3 1.6.6 3.1.8 4.7.2 2.1.4 4.2-.2 6.2-.9 3.3-2.7 5.8-5.6 7.5-2.9 1.8-5.5 1.4-7.7-.4z"/>
  </g>
  <g id="XMLID_37_">
    <path id="XMLID_35_" class="st0" d="M36.3 19.8h8.1l8.3-8H12l8 8h8.2v43.3l8.1 8z"/>
    <path id="XMLID_20_" class="st0" d="M72.5 24c0-13.3-10.7-24-24-24H0l8.3 8h40.2c8.8 0 15.9 7.1 15.9 15.9s-7.1 15.9-15.9 15.9h-8v35.3l8 8V48c13.2 0 24-10.7 24-24z"/>
  </g>
  <g id="XMLID_118_">
    <path id="XMLID_155_" d="M176.8 24.3c2 .9 1.9 2.6 2 4.6-.5.3-1.1.5-2 .4-1.4-1.9-.1-2.6 0-5zm-17.6 5.8h1.2V32c-1.5-1-1.8.8-2.8 0v-1.2c.5-.1.7.1.8.4.5-.1.8-.4.8-1.1zm12 3.1c1.4 1.1 2.6 2.3 3.2 4.2-2.3-.2-2.9-2.2-3.2-4.2zm-8.8 14.6c-1.1.3-2.1-.8-3.6.4.6-1.5-1.8-.1-1.2-1.5.9-.1 4.7-.9 4.8 1.1zm-6 9.6c1.3.6 1.1.8 2.8.4-.9 1.8-2.4 3.6-.8 5.8-1.8 1-3.2.3-5.2.8.6-1.4 1.7-1.5.8-3.5.8-.2 1-.8 2-.8-.8-.8.1-1.9.4-2.7zm6.8 10.7c.7-1 2.4.2 2.8.8-1 1.2-2.2-.5-2.8-.8z"/>
    <path id="XMLID_150_" d="M188.1 67.3c0-1.6 1-2.6 1-4.3-.1-6.4 1.4-12.6 1-19.7-.2-3.9.5-7.2 1.6-10.8.5-1.5.7-3 .8-4.5-.3-1.3 0-2.6.2-4 0-.8.1-1.5.1-2.3 0-.4.1-.7.2-1V20c-4.2-4.5-8.6-8.9-10.4-15.7-6.8-2-11.8 1.6-16-4.2-1.6.5-2.6 1.6-3.6 2.7-.9-1.7-1.8-.1-2.4.8-4.8-.4-7.8-2.9-12.4-1.5-.1.5.1 1.1-.4 1.2-4.3 0-5.3 1.5-8 0-.7 1.8-3.4 1.2-5.2 1.2-2.9 5.9 5.7 9 2.4 16.5.6.8.9 1.6 1 2.4.4.7.5 1.5.4 2.3-.5 3.8-1.1 7.6-1.5 11.4h.5c.2 1.2-.2 1.8-.7 2.4-.3 3.9-.5 7.9-.2 11.8h.1c.7 9.7-2.2 16.9 0 26.5.8.7 1.9 1.2 2.8 1.9 2.8-1.9 5.7.2 8-1.9 1.3.4 2.4 1.1 2.4 2.7 1.9 0 3-.7 3.6-1.9 1.2 1.5 2.4-.3 3.2.4-.4.9-1.9.7-1.6 2.3 2.9 1.1 3-1.2 5.2-1.5 0 1.7.9 2.5 2.4 2.7.8-.2.3-1.5 1.6-1.2.2.7-.5 2.3.8 1.9 1.3-1.1 1.9-3 3.2-4.2 1.1 1.2 1.9.4 3.2 1.5.6-.2.1-1.5.8-1.5 1.1.7 2 1.6 2.8 2.7 1.4-.1 1.5-1.4 2.8-1.5.1 1.2-.4 2.9 1.2 2.7-.3-5.6 5.2-6.1 8.8-6.1.1-2.4.5-5.3.6-7.8-.1-.7-.3-1.1-.3-1.7zm-8.9 4.6c-3.8-.1-3.6-3.9-7.6-3.8-.9-.8.5-1.5-.4-2.3-1-.1-1.3.6-1.6 1.2 1.5 1.4.3 1.4 1.2 3.8-8 1.1-13.1.2-23.2.8V67c1.2.3.8.3 2 0 .1-1.7-.9-2.5-1.6-3.5 2-14.3 13.6-19.5 20.4-29.2-1.4-.9-.1-2.2-.4-4.2 1.4.6 2.4 1.6 3.2 2.7.5-.2.8-.5.8-1.2 1.3.2 2.4 2.5 4 1.2 1.4 1.6.2 3.1 2 4.2 1.1.2-.3-2.1.8-1.9.4 5.4-6.3 10.7-10.4 15-1.8 1.9-2.2 3.2-4.4 4.2-1.5-.2-1.7-1.7-2.8-2.3-.9.1-.4 1.7-1.2 1.9.7.8 2.8.1 3.2 1.2-.8 2.5-2.4 4.1-3.2 6.5.6.5 3.2-.2 4.4-.4-.2 1.3-1.1.5-.4 1.9 1.3.2 1.8-.3 1.6-1.5 4.8 0 8.4.1 12.8 0-.1.5-1.8 1.6 0 1.5.5 1.2-1.3.3-.8 1.5.6.9 1.4.7 2.4.4-.4 2.3-.2 5-.8 6.9zm-10.4-43c2.4.4 4.5 1.1 6 2.3-1.8-1-5.1-.4-6-2.3zm11.6 2c-1.4-.2-1.1.9-2.4 1.5.9-2.5-1.9-1.5-1.6-3.5-3.6 1.5-5-1.3-5.6-3.8 3.1 1.4 3.7-2.1 5.6-3.1-.3-1.4-2.4-.1-2.4 1.2-1.8 0-1.4-2-2.8-2.3-1.2.9-.2 3.9-2 4.2-.2-1.8-2-2-1.6-4.2-.9-.9-3.1-.6-2.8-2.7.7 0 .8.5 1.6.4v-3.1c-1.7.2-2.8.9-3.2 2.3 1 2.2 3.1 4.5 1.6 6.9-2.4-.3-2.5-.1-4.4.4 1.8 2.4.1 5.2.4 9.2-1.4 1.3-6.5 1.4-8-.4-.6.9-2.7 1.7-3.6 1.2V29c1 0 1.3.7 1.6-.4.4-1.2-.9-.7-1.6-.8.3-1.6.7-3.1 1.2-4.6 2.3 2.6 5.3 2.4 9.2 3.1.3-1.9-2.4-.8-2.4-2.3 1.7 0 2.9-.5 3.6-2.3-2.2-2.6-3.3 1.8-4.8 2.3-.4-1.2-1.8-1.2-4.8-1.5 1.5-6.4 14.3-10.1 20-5.4.8 0 .5-1 1.6-.8.3.9.8 1.5.8 2.7 1.5.4.6-1.4 2-1.2 1 1.7 4.4 3.4 2 5 .5 1.2 1.5-.6 2 .4.8 2 .9 4.7.8 7.7z"/>
    <path id="XMLID_146_" class="st1" d="M176.4 28.9c-3.6 1.5-5-1.3-5.6-3.8 3.1 1.4 3.7-2.1 5.6-3.1-.3-1.4-2.4-.1-2.4 1.2-1.8 0-1.4-2-2.8-2.3-1.2.9-.2 3.9-2 4.2-.2-1.8-2-2-1.6-4.2-.9-.9-3.1-.6-2.8-2.7.7 0 .8.5 1.6.4v-3.1c-1.7.2-2.8.9-3.2 2.3 1 2.2 3.1 4.5 1.6 6.9-2.4-.3-2.5-.1-4.4.4 1.8 2.4.1 5.2.4 9.2-1.4 1.3-6.5 1.4-8-.4-.6.9-2.7 1.7-3.6 1.2V29c1 0 1.3.7 1.6-.4.4-1.2-.9-.7-1.6-.8.3-1.6.7-3.1 1.2-4.6 2.3 2.6 5.3 2.4 9.2 3.1.3-1.9-2.4-.8-2.4-2.3 1.7 0 2.9-.5 3.6-2.3-2.2-2.6-3.3 1.8-4.8 2.3-.4-1.2-1.8-1.2-4.8-1.5 1.5-6.4 14.3-10.1 20-5.4.8 0 .5-1 1.6-.8.3.9.8 1.5.8 2.7 1.5.4.6-1.4 2-1.2 1 1.7 4.4 3.4 2 5 .5 1.2 1.5-.6 2 .4.8 2 .9 4.8.8 7.7-1.4-.2-1.1.9-2.4 1.5.8-2.5-1.9-1.5-1.6-3.5zm.4.4c.9.1 1.5-.1 2-.4-.1-2 0-3.7-2-4.6-.1 2.4-1.4 3.1 0 5zm-18.4 2c-.1-.3-.3-.4-.8-.4V32c1 .8 1.3-1 2.8 0v-1.9h-1.2c0 .7-.3 1-.8 1.2z"/>
    <path id="XMLID_138_" class="st1" d="M168.8 28.9c2.4.4 4.5 1.1 6 2.3-1.8-1-5.1-.4-6-2.3zM137.1 37c-.1.8-.2 1.6-.2 2.4.5-.6.9-1.2.7-2.4h-.5zm30.9-6.9c1.4.6 2.4 1.6 3.2 2.7.5-.2.8-.5.8-1.2 1.3.2 2.4 2.5 4 1.2 1.4 1.6.2 3.1 2 4.2 1.1.2-.3-2.1.8-1.9.4 5.4-6.3 10.7-10.4 15-1.8 1.9-2.2 3.2-4.4 4.2-1.5-.2-1.7-1.7-2.8-2.3-.9.1-.4 1.7-1.2 1.9.7.8 2.8.1 3.2 1.2-.8 2.5-2.4 4.1-3.2 6.5.6.5 3.2-.2 4.4-.4-.2 1.3-1.1.5-.4 1.9 1.3.2 1.8-.3 1.6-1.5 4.8 0 8.4.1 12.8 0-.1.5-1.8 1.6 0 1.5.5 1.2-1.3.3-.8 1.5.6.9 1.4.7 2.4.4-.3 2.3-.2 4.9-.8 6.9-3.8-.1-3.6-3.9-7.6-3.8-.9-.8.5-1.5-.4-2.3-1-.1-1.3.6-1.6 1.2 1.5 1.4.3 1.4 1.2 3.8-8 1.1-13.1.2-23.2.8V67c1.2.3.8.3 2 0 .1-1.7-.9-2.5-1.6-3.5 2-14.3 13.6-19.5 20.4-29.2-1.4-.9-.1-2.2-.4-4.2zm6.4 7.3c-.6-1.9-1.8-3.1-3.2-4.2.3 2 .9 4 3.2 4.2zm-16.8 9.2c-.6 1.5 1.8.1 1.2 1.5 1.5-1.2 2.5-.1 3.6-.4-.1-1.9-3.9-1.1-4.8-1.1zM156 60c-1-.1-1.2.6-2 .8.9 2-.2 2-.8 3.5 2-.4 3.4.2 5.2-.8-1.6-2.2-.1-3.9.8-5.8-1.7.4-1.5.2-2.8-.4-.3.9-1.2 2-.4 2.7zm10 8.9c-.4-.5-2.1-1.7-2.8-.8.6.3 1.8 2 2.8.8z"/>
    <g id="XMLID_119_">
      <path id="XMLID_124_" class="st2" d="M129.9 14.8c.2 1.6-.4 2.4-2 2.3-1-1.1.1-2.7 2-2.3zm4.9 0c-.6 0-1 .2-1.3.4-.3 1.3.6 1.7 1.4 1.4-.1-.6-.1-1.2-.1-1.8zm-3.7.4c1.1-.1 1.3.5 1.2 1.5-1.4.9-2.1-.4-1.2-1.5zm-26 .4c1.1-.1 1.3.5 1.2 1.5h-1.2v-1.5zm22 3.1c.2 1.7-.6 2.5-2.4 2.3 0-1.5.5-2.6 2.4-2.3zm91.9 13c.1 1.4-.6 2-2 1.9-.5-1.7 1-2.8 2-1.9zm6 0c-.5.7-.8 1.5-2 1.5-1.2-1 .8-2.7 2-1.5zm-5.2.4c1-.1 1.7.1 1.6 1.2-.4.3-.9.4-1.6.4v-1.6zm-3.6 3.1c.2 1.7-.6 2.5-2.4 2.3.3-1.2.4-2.8 2.4-2.3zm-110.3 8.4c1.8.5 3-.6 3.6 1.2-1.1.9-2.2-.6-3.2 0-.3.1-.4-.1-.4-.4v-.8zm98.3 3.5c1.3-.1 1.9.5 2 1.5-.5.4-1.4.4-2.4.4-.1-.9.1-1.5.4-1.9zm-88.3 14.2c-.1.9-.3 1.8-1.6 1.5 0-.9.6-1.5 1.6-1.5zm89.5 5.4c-.6.6-2.3.6-2-.8.6-.6 2.3-.6 2 .8z"/>
      <path id="XMLID_120_" class="st2" d="M135.7 40.6c-5.2.2-8.7 1-12.7 0-1.1.4.1 1.6 0 2.3-1.3 0-.8-1.8-1.6-2.3-1.2.1-2 .7-2.4 1.5-1.2-1.1-4.6-.8-4-4.6 2.1.6 2-.9 2.4-1.9 3.3 0 5.9-.1 7.2-1.2 1.2 1.1 5.4 2 6-.4.5-1.2.5 1 .4 1.5h6.9c.3-3.1.6-6.1.6-9.2-3.9.2-6.7-.5-8.7 1.1-3.1-2.3-10.6-.3-14.8-1.5 1-.4 1-1.9 2.8-1.5v-1.9c-2.1.2-2.7 1.7-4 2.7-.1-.9-.4-1.7-1.2-1.9-.9.8.7 1.3.8 2.3-1.5 0-1.6 1.3-3.6.8 2.6-2.6-1.1-6.2-4-3.8-.5 1.7 1.1 3.3.4 3.8-2.8-.4-4.5.3-5.6 1.5 4.3 3.8-2.7 9.1-.4 12.3-1.9 0-3 1.7-2.4 3.1 1.8.3 2-.9 3.2-1.2-.4-2.3-.3-3.4.8-4.2-.4 1.2 1 .8 1.2 1.5-1.5.5-1.5 2.2 0 2.7-2 .5-.8 4.6-.8 7.3 0 4.6-.8 10.2.8 11.1.7-.7-1.3-2.2 1.2-2.3.7.7-.3 1 0 2.3 3 1 7.8 0 12.8-.4-1.7-2.9-.1-7.2.8-10.7.5.4 1.4.4 2.4.4 1.1.1.3-1.5 1.6-1.2 4.9 1.9 8.9.7 14.9 1.1.1-2.9.4-5.7.6-8.6-.5-.1-1-.3-1.6-.5zm-29.4 4.2c-.3.1-.4-.1-.4-.4v-.8c1.8.5 3-.6 3.6 1.2-1.2.8-2.2-.6-3.2 0zm119.5 12.3c-.3-.8-2.5.1-2.8-.8 2.1.3 2.3-1.1 2.8-2.3-1.3-.4-1 .6-1.6.8-4.7-3-16.2.5-21.6-1.9.2-3.4-.4-7.6.4-10.4 2.3-.1 4.3-1.6 3.6-3.5-2.3.2-2.8 2.2-4.4 3.1 2-2.1-2.2-8.4 1.2-7.3-.6-1.2-.7-2.9-2-3.5.4-.4 1.5-.1 1.2-1.2-1.4-1.3-1.9-3.5-4.8-3.5-.6 1.7 1.4 1 1.2 2.3-1.8-1.4-3.5-2-5.2-1.9-.2-.6-.3-1.2-.3-1.7-.4.9-.9 1.7-1.5 2.5-.4.6-.9 1.1-1.4 1.5-.3 11.2-1.2 22.4-1.6 33.7 1.4 0 2.8.2 4.2.2.7 0 1.4.1 2 .4 4.2-.2 8.6-.5 10.9 1.1 4.5-2.5 14.7-.6 20-1.2-.8-2.2-1.4-4.1-.3-6.4z"/>
    </g>
  </g>
</svg>