<svg id="Layer_1" xmlns="http://www.w3.org/2000/svg" viewBox="0 0 448 265">
  <style>
    .st0{fill:#FFFFFF;} .st1{fill-rule:evenodd;clip-rule:evenodd;} .st2{fill-rule:evenodd;clip-rule:evenodd;fill:#F7A800;} .st3{fill:#F7A800;}
  </style>
  <path class="st0" d="M36.1 174.8v-18.2l54.3 2-4.2-16.2 34.2 13V139l39.7 28v-7l67.2 10 21.8-13.1v6.9s72.8-28.5 73-27.8-1.2 8-1.2 8l55.8-8-1.5 4.3 28.2-1.5v6.5l14.5-.5-8.5 55 9.6-3-38.4 48.2-1.8-18.2-19.5 26.8-2.8-3.5-21.5 15-3.5-17-17.8 9-.2-9-34.5 8.5s6-19.2 5.2-19.2-35.2 1.8-35.2 1.8l3.8-4.2-47.2 13.5-2.5-6.2-31.8 10-18.2-9.8-.5 5.8-46.5-1 2.5 4.8-50.5-15.5-.8 8.2L32.8 227 29 200.5l8.5 4.3-6.8-18.2 5.4-11.8z"/>
  <path d="M49.9 179.9c.4-.1.7.4.9 1.5l3.1-1.1c.5 1.2 2.1 1.7 4.8 1.3 7.5 1.5 12.4 3.7 14.7 6.5 1 .6 1.5 1.4 1.6 2.4l.2 1.3c-1.7 4.6-3.2 7-4.6 7.2.1 1.2-1.8 2.9-5.6 5.1l-10.5 4.7c.9 6.2.5 9.5-1.3 9.7l-1.9 2.6-.4-.3-.3.4-.3.1-1.1-.8-.8-5.4v-4.6c-1.1-.1-1.7-.4-1.8-1.1l.1-1.3-.4-.3-.1-.3c1.3-4.9 1.8-11.4 1.5-19.6l-.3-2.2-.8-.9-.1-.6c.3-.6 1.4-2 3.4-4.3zm4.5 22.4l.4.3.6-.1c8.8-2.9 13-5.8 12.6-8.7l-.2-1.6c-.4-3.1-3.7-4.5-9.8-4.2l-2.9.1c-1.2.2-1.5 4.9-.7 14.2zm18.2-13.1l.1.6h.3l-.1-.7-.3.1z"/>
  <path d="M88.8 178.7h1.4c1.4 0 2 .5 2 1.4h2c.9.9 2.7 1.9 5.4 3.1.7 1.3 1.4 3.7 2.1 7.1l.3.3v.3c0 1.4-.7 3-2.1 4.8-.4 3.9-1.5 5.8-3.4 5.8H96v.3c3.1 5.5 6.6 10 10.5 13.6l.3.3c0 1.2-.3 1.9-1 2l-1.7-.3-1 1.7c-.7 0-3.1-2.3-7.1-6.8-2.4-4.4-4.5-7.1-6.1-8.2h-1c-3.4 1.3-5.1 2.6-5.1 3.8l1.4 10.2c-.8 0-1.9.9-3.4 2.7-.4 0-.9-1.5-1.7-4.4-.5 0-1-1.9-1.7-5.8l.3-.3-.7-4.1h-1.7c-.7-.2-1-1.1-1-2.7.8 0 1.7-1.3 2.7-3.8l-.3-.3.3-1.7v-1c-.9-4.1-1.7-6.1-2.4-6.1s-1-.2-1-.7v-.3l.7-.7-.3-.3v-.4c0-2.5.9-4.8 2.7-7.1l4.1-.7 1 1c.5-.7 2.2-1.2 5.1-1.4 0-.8.4-1.3.9-1.3zm-6.1 9.6v1.7l1.4 9.5c3.2 0 4.7-1 4.7-3l.3-.3v-1.7h.4c.4 0 .7.7 1 2h.7v.3l1.4-.7 2 .3 2.4-5.1-1.4-1.4.3-1.7h-.7c0-1.1-1.4-2-4.1-2.7l-1-1c-2 0-4.5 1.3-7.4 3.8zm26.1-12.2h.7l1 .7 1.9-.3.3.3v8.7l-.7.7-1-.3-2.3 2.3c-.8 0-1.4-3.1-1.6-9.4h.3l-.3-.3v-.7l1.7-1.7zm4.6 15.2l.3 1 1 19.4-.3.3v.3c.6 2.7 1 5.4 1 8.1l-1 .3c-3.5 0-5.2-.4-5.2-1.3v-2.9l-.6-10.3v-.3l-.3-1.3.3-1.3v-.3l-.3-1 .3-1.6v-5.5l-.3-1.6c1-.9 1.7-1.3 2.3-1.3l.7.7c.8-.9 1.5-1.4 2.1-1.4zm38.7-10.2h.7c2.4 1.4 3.6 4 3.6 7.6l.4 9.4-.4 2.9.4 1.1v.7h-.4l.4 4.4v5.8l.4 5.1c-.6 1.5-1.2 2.4-1.8 2.5h-.7l-.7-.7v-1.8h-.7c-.6 0-1.1 1-1.5 2.9h-.8l-1.1-21h-1.5c-1.4 2.1-3.3 6.9-5.8 14.5v3.6l-1.1 1.1h-.3l-1.1-.7h-.4v.7l.4 1.8h-.7c0-.7-.7-1.7-2.2-2.9-.6 0-.9.5-1.1 1.4H135v-.4l1.1-1.8v-1.5c-1.1-2-2.7-4.1-4.7-6.2l-6.2-10.1-1.5.4-.4 11.6v5.8c-1.4 2.2-2.9 3.3-4.7 3.3h-.4l-1.5-1.5v-.4l.4-.3-.4-.4v-4.4l-.4-2.2.4-1.1-.4-1.8c0-14.7 1.2-23.4 3.6-26.1h.4l.7.7 1.1-1.4h.7c0 1.3.8 2.1 2.5 2.5 6.4 13.7 10.7 21.4 12.7 23.2h1.5c.7-3.2 3.5-10.3 8.3-21.4l.7-.7c2.5-1.8 3.6-3.2 3.6-4.2zm-27.6 16c.2 1.5.5 2.2 1.1 2.2v-.7h.4l-.4-1.5h-1.1z"/>
  <path d="M173.3 175.5c1.2.7 2.8 1.3 4.9 1.5l1.1-1.1 1.5 1.5h.4l-.8 2.3 5.3 13.5c2.2 3.7 3.6 6.8 4.1 9.4 2.8.5 4.1 1.1 4.1 1.9l-1.5.4v.4l1.1 1.5-.7 1.5 3 7.5c.7 0 1.3.6 1.9 1.9l-.4.4v.4c-.9-.2-1.8-1.2-2.6-3h-1.1c-.5 0-.7.8-.7 2.3l-1.5 1.1c-3.9-7.8-6.5-11.6-7.9-11.6l-11.6-2.2H170c-2.4 9.3-4.9 13.9-7.5 13.9l-1.1 1.5c0-.5-.4-.7-1.1-.7l-3.4 3-.8-.8v-1.5c0-1 2-5.2 6-12.8l1.1-3.8v-.8c-.8 0-2.2-.9-4.1-2.6v-.4c0-.7 2.4-1.4 7.1-2.2l4.9-13.5 2.2-5.3-.4-3 .4-.6zm.8 19.1l.4 2.6-.4.4h-.4l-.4-1.1-1.5 1.1.4 1.1 1.5-.8c.8 0 1.6.4 2.3 1.1l3.8.4v-.8c0-.9-.5-1.8-1.5-2.6 0-.9-.6-2.1-1.9-3.8v-1.9c-1.6.7-2.3 2.1-2.3 4.3z"/>
  <path d="M204.4 182.8c.1.4.6.9 1.6 1.3-1.3 12.8-1.9 21.2-1.9 25.1l17.3 1.3.3.3c2.1.1 3.2.4 3.2.9l-2.2 3.1-4.7.3-7.8-.3-1.3.3-.3-.3c-3.4 0-5 .5-5 1.6 0 .6-.2.9-.6.9-.4 0-.6-.3-.6-.9l-.3-.3h-.3l-1.9.3-1.6-.6-2.5.6c-.8-.3-1.2-.6-1.2-.9v-.3c.4-1.1 1.3-1.6 2.8-1.6v-.6h-2.5c-.5 0-.8-.5-1-1.6.4 0 .8-.8 1-2.5l1.9-.3v.3l1.2-.3v-.6c-.8 0-1.2-.3-1.2-.9v-.6c.6 0 .9-.2.9-.7l-.6-.6.6-9.4.3-.3-.6-.6v-.3c.4-.3 1.1-2.9 2.2-7.9.7-1.5 1.4-2.2 2.2-2.2.7-.1 1.6-.7 2.6-1.7z"/>
  <path d="M234.8 201.5l1.1.4.3-.4 9 .8.5 3.3c-.6 1-2.7 1.5-6.5 1.5h-11.7l-5.2.7-.3-1.1c1-2.7 1.7-4.2 2.2-4.4l10.6-.8zm20.3-18.7c.1.4.6.9 1.6 1.3-1.3 12.8-1.9 21.2-1.9 25.1l17.3 1.3.3.3c2.1.1 3.2.4 3.2.9l-2.2 3.1-4.7.3-7.8-.3-1.3.3-.3-.3c-3.4 0-5 .5-5 1.6 0 .6-.2.9-.6.9-.4 0-.6-.3-.6-.9l-.3-.3h-.3l-1.9.3-1.6-.6-2.5.6c-.8-.3-1.2-.6-1.2-.9v-.3c.4-1.1 1.3-1.6 2.8-1.6v-.6h-2.5c-.5 0-.8-.5-1-1.6.4 0 .8-.8 1-2.5l1.9-.3v.3l1.2-.3v-.6c-.8 0-1.2-.3-1.2-.9v-.6c.6 0 .9-.2.9-.7l-.6-.6.6-9.4.3-.3-.6-.6v-.3c.4-.3 1.1-2.9 2.2-7.9.7-1.5 1.4-2.2 2.2-2.2.7-.1 1.6-.7 2.6-1.7z"/>
  <path d="M275.7 176.1h.7l1 .7 1.9-.3.3.3v8.7l-.7.7-1-.3-2.3 2.3c-.8 0-1.4-3.1-1.6-9.4h.3l-.3-.3v-.7l1.7-1.7zm4.5 15.2l.3 1 1 19.4-.3.3v.3c.6 2.7 1 5.4 1 8.1l-1 .3c-3.5 0-5.2-.4-5.2-1.3v-2.9l-.6-10.3v-.3l-.3-1.3.3-1.3v-.3l-.3-1 .3-1.6v-5.5l-.3-1.6c1-.9 1.7-1.3 2.3-1.3l.7.7c.8-.9 1.6-1.4 2.1-1.4zm18.9-10.3h.7c0 .6 1 1 3 1.4l3-.3c7.1 4.7 11.8 8.4 14 11v1.4c0 7.6-1.8 12.8-5.3 15.7-2.3 3.2-5.5 5.5-9.4 7-.3.4-2.2.8-5.7 1.3H295c-1.8 0-4.3-1.3-7.7-4l-3.7-4c-.7-1.8-1-3.6-1-5.4 2.4-8.5 4.3-13.2 5.7-14 2.8-3.7 6.4-7 11-9.7l-.2-.4zm-9.3 23c0 3.6 1 6.1 3 7.3.9 0 1.8.5 2.7 1.4l2.7-.7 3.7.3c2.9-.9 5.4-2.6 7.3-5 2.2-3.3 3.4-6.2 3.4-8.7-.2-1.9-1.7-4.4-4.4-7.4-.6 0-1.9-.8-3.7-2.3l-1.7-.3c-6.1 0-10.3 4.7-12.7 14.1l-.3 1.3zm28.1-10l-.3 1.7v1.3h1v-2.3l-.7-.7zm9.4-14.1c.2.7 1.1 1.4 2.6 1.9l1.1-1.1h.4c1.7.8 3.3 4 4.9 9.4l4.1 10.9c1.2 1.7 1.9 3 1.9 3.8h1.1c1.8-10.3 3.6-17.7 5.7-22.2l.4-.4h.4c.1.5 1.3 1.1 3.8 1.9l-1.1 4.5.4.4v.4c-.7 1.8-1.9 8.7-3.4 20.7l-1.5 7.2.7.7v.4l-.4-.4-4.5.8-.4-.4-1.5 1.5h-.4v-.4l.4-.4c0-1.2-1.5-4.2-4.5-9l-7.1-17.3h-.8c-1.3 5.4-2.3 11.9-3 19.5l-.4.4h-.4l.4.4v.4c-.9 1.3-1.5 3.1-1.9 5.7l-1.9 1.1h-.8l-.4-1.9.4-.4c-1-.5-1.5-1.1-1.5-1.9 1-12.4 2.1-22 3.4-28.9l2.2-3.8h.8v-2.6l.8-.9z"/>
  <path d="M366.4 184.9l1 .2 1.6-.4h3.6l.3-.3h.3l11.2.4 1.5 1.8.1 1c-1 .1-2.3 1.5-3.9 4.3-6.2 7-11.8 14.2-17 21.7l.1.7 1.6.2c1.9-1 5.1-1.7 9.4-2.1l2.9-.2 2-.5 1 .3 3.2-.9.4.3.1 1.3c0 .5-.3.7-.9.7l.1.7c1.3.1 2 .4 2 .8v.3l-3.2 1.6c-3.3.3-10.5 1.7-21.7 4.3l-3.2.6-1-.6-1.9.8-.3-.3-.1-1 .3-.3v-.3c-.9-.2-1.3-.5-1.4-.9.6 0 4.2-5 11-15l11.7-14v-.3l-4.2.2-1.3.4-.3-.3h-.3l-17.2 2.3-1-.3c-.3-3.5.2-5.3 1.5-5.4l12-1.8z"/>
  <path class="st1" d="M360.2 225.8c-1.8.1-3.6.1-5.4.1-.4.7-.8 1.3-1.1 2-.7 1.3-1.5 2.5-2.4 3.6-.3.4-1.1.7-1.7.6-1.5-.1-2.1.8-2.3 2-.1.7 0 1.5-.1 2.3l-.9 4.8c0 .2-.3.3-.4.4-1.5 1.2-1.5 1.3-.2 2.2-.8 2.7-1.6 5.4-2.5 8 .5.1 1 .1 1.5.2 1.1-1.1 2.3-2 3.2-3.3 2.9-4.2 5.6-8.4 8.3-12.7 1.5-2.2 2.8-4.6 4.3-6.7.5-.7 1.2-1.4 1.8-2.1-.9-.3-1.6-.8-2.1-1.4zm40.9-63.4c-2.4.9-4.7 1.9-7 3-3.4 1.7-6.6 3.7-9.2 6.5-2.3 2.4-4.4 5-7.6 6.2-1.4.5-1 1.2-.2 2l-.6.6c.3.3.6.5.8.9.6.8 1.4 1.5 2.2 2.2 1.1 0 2.3-.1 3.4-.1.8-1.2 1.7-2.4 2.2-3.7 1.4-3.9 4.7-5.9 7.7-8.2 1.1-.8 2.7-1 2.4-2.9 0-.2.3-.4.5-.6 2.4-1.6 4.5-3.8 7.4-4.6.1-.5.1-1 .2-1.5-.8.1-1.6-.1-2.2.2zm-86.2 55.4c-.1-.1-.3-.1-.4-.2-1.4 0-2.8 0-4.1.1-.3 0-.6 0-.9-.1-.5.7-1 1.3-1.8 1.8-.1.1-.2.3-.2.5-.2 1.4-1.1 1.9-2.5 1.9-1.2 0-2.5 1.7-2.3 2.7.3 1.2.6 2.3.9 3.6-1.2.2-1.4.8-1.2 1.9.2 1.6.2 3.4-1.5 4.6-.3.2-.5 1-.4 1.4.5 1.7-.3 2.8-1.6 3.6-.1.5-.1 1.1-.2 1.6 1.7.2 2.8-.9 3.9-1.9 4.4-4.1 7.5-9.1 10.2-14.5 1.1-2.2 2.5-4.3 3.8-6.4-.5-.1-1.1-.3-1.7-.6zm46.8-67.7c-1.7.7-3.6 1.2-5.1 2.2-4.2 2.6-8.4 5.3-12.5 8.1-3 2.1-5.8 4.5-8.6 6.7-1 .8-2.1 1.6-2.6 2.6v.1c1.8 1.4 3.5 3 5.2 4.6.4-.6.8-1.2 1.3-1.4 1.2-.6 1.9-1.4 2.5-2.5 1.6-2.8 3.7-5.1 6.3-7.1 2.4-1.9 4-4.8 6.9-6.3 2.6-1.5 4.8-3.6 8-4.1.2-.8.4-1.7.6-2.6-.7-.2-1.3-.3-2-.3zM337 214.9c-.2.2-.4.5-.6.8.1-.4.1-.8.1-1.2-.3-.4-.7-.7-1-1.1-.3.1-.5.2-.6.4-1 1.6-1.9 3.3-2.8 4.9-.3.5-.6 1.2-.4 1.6 1.3 2.4-.3 4.3-.9 6.4-.4 1.3-1.4 2.4-1.9 3.7-.5 1.4-.8 2.9-1.3 4.5 2.5-.2 6.4-4 7.1-6.6.2-.8.6-1.5 1.1-2.2.8-1.1 2.1-2.1 2.3-3.3.4-1.6 1.2-2.9 2.1-4.1-.9-1.4-2-2.6-3.2-3.8zm38.6-53.8c-.3 0-.5.1-.8.2-7.4 1.9-13.8 5.4-18.9 11.2-.4.5-1 1.2-1.5 1.2-2 0-2.4 1.8-3.5 2.8-.3.3-.2 1.1-.5 1.3.6.3 1.1.7 1.5 1.2.1 0 .2 0 .3-.1.8-.2 1.5-.2 2.3-.1.6.1 1.1.2 1.6.4 1.1 0 2.1.5 2.7 1.4.3-.4.3-.9.5-1.4.2-.4.3-1 .7-1.2 2.2-1.3 3.7-4.1 6.9-2.9.9.3 1.7-.3 1.4-1.3-.5-1.4.3-2.2 1.1-3.1.5-.6.8-1.5 1.3-2.4.9-.5 2.1-1.2 3.4-1.9-.6-1.4-.1-2.6 1.3-3.5.4-.3.5-1.1.8-1.8-.4.1-.5 0-.6 0z"/>
  <path class="st2" d="M360.2 224.8c-1.8.1-3.6.1-5.4.1-.4.7-.8 1.3-1.1 2-.7 1.3-1.5 2.5-2.4 3.6-.3.4-1.1.7-1.7.6-1.5-.1-2.1.8-2.3 2-.1.7 0 1.5-.1 2.3l-.9 4.8c0 .2-.3.3-.4.4-1.5 1.2-1.5 1.3-.2 2.2-.8 2.7-1.6 5.4-2.5 8 .5.1 1 .1 1.5.2 1.1-1.1 2.3-2 3.2-3.3 2.9-4.2 5.6-8.4 8.3-12.7 1.5-2.2 2.8-4.6 4.3-6.7.5-.7 1.2-1.4 1.8-2.1-.9-.3-1.6-.8-2.1-1.4zm40.9-63.4c-2.4.9-4.7 1.9-7 3-3.4 1.7-6.6 3.7-9.2 6.5-2.3 2.4-4.4 5-7.6 6.2-1.4.5-1 1.2-.2 2l-.6.6c.3.3.6.5.8.9.6.8 1.4 1.5 2.2 2.2 1.1 0 2.3-.1 3.4-.1.8-1.2 1.7-2.4 2.2-3.7 1.4-3.9 4.7-5.9 7.7-8.2 1.1-.8 2.7-1 2.4-2.9 0-.2.3-.4.5-.6 2.4-1.6 4.5-3.8 7.4-4.6.1-.5.1-1 .2-1.5-.8.1-1.6-.1-2.2.2zm-86.2 55.4c-.1-.1-.3-.1-.4-.2-1.4 0-2.8 0-4.1.1-.3 0-.6 0-.9-.1-.5.7-1 1.3-1.8 1.8-.1.1-.2.3-.2.5-.2 1.4-1.1 1.9-2.5 1.9-1.2 0-2.5 1.7-2.3 2.7.3 1.2.6 2.3.9 3.6-1.2.2-1.4.8-1.2 1.9.2 1.6.2 3.4-1.5 4.6-.3.2-.5 1-.4 1.4.5 1.7-.3 2.8-1.6 3.6-.1.5-.1 1.1-.2 1.6 1.7.2 2.8-.9 3.9-1.9 4.4-4.1 7.5-9.1 10.2-14.5 1.1-2.2 2.5-4.3 3.8-6.4-.5-.1-1.1-.3-1.7-.6zm46.8-67.7c-1.7.7-3.6 1.2-5.1 2.2-4.2 2.6-8.4 5.3-12.5 8.1-3 2.1-5.8 4.5-8.6 6.7-1 .8-2.1 1.6-2.6 2.6v.1c1.8 1.4 3.5 3 5.2 4.6.4-.6.8-1.2 1.3-1.4 1.2-.6 1.9-1.4 2.5-2.5 1.6-2.8 3.7-5.1 6.3-7.1 2.4-1.9 4-4.8 6.9-6.3 2.6-1.5 4.8-3.6 8-4.1.2-.8.4-1.7.6-2.6-.7-.2-1.3-.3-2-.3zM337 213.9c-.2.2-.4.5-.6.8.1-.4.1-.8.1-1.2-.3-.4-.7-.7-1-1.1-.3.1-.5.2-.6.4-1 1.6-1.9 3.3-2.8 4.9-.3.5-.6 1.2-.4 1.6 1.3 2.4-.3 4.3-.9 6.4-.4 1.3-1.4 2.4-1.9 3.7-.5 1.4-.8 2.9-1.3 4.5 2.5-.2 6.4-4 7.1-6.6.2-.8.6-1.5 1.1-2.2.8-1.1 2.1-2.1 2.3-3.3.4-1.6 1.2-2.9 2.1-4.1-.9-1.4-2-2.6-3.2-3.8zm38.6-53.8c-.3 0-.5.1-.8.2-7.4 1.9-13.8 5.4-18.9 11.2-.4.5-1 1.2-1.5 1.2-2 0-2.4 1.8-3.5 2.8-.3.3-.2 1.1-.5 1.3.6.3 1.1.7 1.5 1.2.1 0 .2 0 .3-.1.8-.2 1.5-.2 2.3-.1.6.1 1.1.2 1.6.4 1.1 0 2.1.5 2.7 1.4.3-.4.3-.9.5-1.4.2-.4.3-1 .7-1.2 2.2-1.3 3.7-4.1 6.9-2.9.9.3 1.7-.3 1.4-1.3-.5-1.4.3-2.2 1.1-3.1.5-.6.8-1.5 1.3-2.4.9-.5 2.1-1.2 3.4-1.9-.6-1.4-.1-2.6 1.3-3.5.4-.3.5-1.1.8-1.8-.4.1-.5 0-.6 0z"/>
  <path class="st0" d="M1.2 35.8l6.2 7.5 1.2-9.5L29 43.2S56 20 57.2 20.7s13.2 9 13.2 9l7.2-5.8 5.2 8 11.8-7.2L129 45.2l24.2-26L167 26l82.5-1.2 31-12.5 6 8 45.5-10-3.5 7.8 35-18 3.5 19.8s40.2-.2 40.2.5-3.2 10.4-3.2 10.4l44 23-20.5 24 8.2 15.8-3.2 19 5.5 13.8-54.8-3.8-.2 6.8-70-3.2 9.2-4.8-75.8-9.8-28.5 6-1.2-10.8-28 9.5L166 109l-53.8-1.5 1 7.2-74-7.5 8.2-6.8-37.2 7-5.5-3.8-4.7-39 1.2-28.8z"/>
  <path d="M13.9 52.8c.4-.1.7.4.9 1.5l3.1-1.1c.5 1.2 2.1 1.7 4.8 1.3 7.5 1.5 12.4 3.7 14.7 6.5 1 .6 1.5 1.4 1.6 2.4l.2 1.3c-1.7 4.6-3.2 7-4.6 7.2.1 1.2-1.8 2.9-5.6 5.1l-10.5 4.7c.9 6.2.5 9.5-1.3 9.7L15.4 94l-.4-.3-.3.4-.3.1-1.1-.8-.8-5.4v-4.6c-1.1-.1-1.7-.4-1.8-1.1l.1-1.3-.4-.3-.1-.3c1.3-4.9 1.8-11.4 1.5-19.6l-.3-2.2-.8-.9-.1-.6c.2-.6 1.2-2 3.3-4.3zm4.4 22.4l.4.3.6-.1c8.8-2.9 13-5.8 12.6-8.7l-.2-1.6c-.4-3.1-3.7-4.5-9.8-4.2L19 61c-1.2.1-1.4 4.9-.7 14.2zm18.2-13.1l.1.6h.3l-.1-.7-.3.1z"/>
  <path d="M52.8 51.6h1.4c1.4 0 2 .5 2 1.4h2c.9.9 2.7 1.9 5.4 3.1.7 1.3 1.4 3.7 2.1 7.1l.3.3v.3c0 1.4-.7 3-2.1 4.8-.4 3.9-1.5 5.8-3.4 5.8h-.7v.3c3.1 5.5 6.6 10 10.5 13.6l.3.3c0 1.2-.3 1.9-1 2l-1.7-.3-1 1.7c-.7 0-3.1-2.3-7.1-6.8-2.4-4.4-4.5-7.1-6.1-8.2h-1c-3.4 1.3-5.1 2.6-5.1 3.8L49 91.1c-.8 0-1.9.9-3.4 2.7-.4 0-.9-1.5-1.7-4.4-.5 0-1-1.9-1.7-5.8l.3-.3-.7-4.1h-1.7c-.7-.2-1-1.1-1-2.7.8 0 1.7-1.3 2.7-3.8l-.3-.3.3-1.7v-1c-.9-4.1-1.7-6.1-2.4-6.1s-1-.2-1-.7v-.3l.7-.7-.3-.3v-.4c0-2.5.9-4.8 2.7-7.1l4.1-.7 1 1c.5-.7 2.2-1.2 5.1-1.4.2-.9.5-1.4 1.1-1.4zm-6.2 9.5v1.7l1.4 9.5c3.2 0 4.7-1 4.7-3l.3-.3v-1.7h.4c.4 0 .7.7 1 2h.7v.3l1.4-.7 2 .3 2.4-5.1-1.4-1.4.3-1.7h-.7c0-1.1-1.4-2-4.1-2.7l-1-1c-2 .1-4.5 1.4-7.4 3.8zM72.8 49h.7l1 .7 1.9-.3.3.3v8.7l-.7.7-1-.3-2.2 2.2c-.8 0-1.4-3.1-1.6-9.4h.3l-.3-.3v-.7l1.6-1.6zm4.5 15.2l.3 1 1 19.4-.3.3v.3c.6 2.7 1 5.4 1 8.1l-1 .3c-3.5 0-5.2-.4-5.2-1.3v-2.9l-.6-10.3v-.3l-.3-1.3.3-1.3v-.3l-.3-1 .3-1.6v-5.5l-.3-1.6c1-.9 1.7-1.3 2.3-1.3l.7.7c.8-.9 1.6-1.4 2.1-1.4zM116 54h.7c2.4 1.4 3.6 4 3.6 7.6l.4 9.4-.4 2.9.4 1.1v.7h-.4l.4 4.4v5.8l.4 5.1c-.6 1.5-1.2 2.4-1.8 2.5h-.7l-.7-.7V91h-.7c-.6 0-1.1 1-1.5 2.9h-.7l-1.1-21h-1.5c-1.4 2.1-3.3 6.9-5.8 14.5V91l-1.1 1.1h-.3l-1.1-.7h-.4v.7l.4 1.8h-.7c0-.7-.7-1.7-2.2-2.9-.6 0-.9.5-1.1 1.4H99V92l1.1-1.8v-1.5c-1.1-2-2.7-4.1-4.7-6.2l-6.2-10.1-1.5.4-.4 11.6v5.8c-1.4 2.2-2.9 3.3-4.7 3.3h-.4L80.7 92v-.4l.4-.3-.3-.3v-4.4l-.4-2.2.4-1.1-.4-1.8c0-14.7 1.2-23.4 3.6-26.1h.4l.7.7 1.1-1.4h.8c0 1.3.8 2.1 2.5 2.5C96 71 100.2 78.7 102.2 80.5h1.5c.7-3.2 3.5-10.3 8.3-21.4l.7-.7c2.2-2 3.3-3.4 3.3-4.4zM88.5 70c.2 1.5.5 2.2 1.1 2.2v-.7h.4l-.4-1.5h-1.1z"/>
  <path d="M137.3 48.4c1.2.7 2.8 1.3 4.9 1.5l1.1-1.1 1.5 1.5h.4l-.8 2.3 5.3 13.5c2.2 3.7 3.6 6.8 4.1 9.4 2.8.5 4.1 1.1 4.1 1.9l-1.5.4v.2l1.1 1.5-.7 1.5 3 7.5c.7 0 1.3.6 1.9 1.9l-.4.4v.4c-.9-.2-1.8-1.2-2.6-3h-1.1c-.5 0-.7.8-.7 2.3l-1.5 1.1c-3.9-7.8-6.5-11.6-7.9-11.6l-11.6-2.2H134c-2.4 9.3-4.9 13.9-7.5 13.9l-1.1 1.5c0-.5-.4-.7-1.1-.7l-3.4 3-.8-.8V93c0-1 2-5.2 6-12.8l1.1-3.8v-.8c-.8 0-2.2-.9-4.1-2.6v-.4c0-.7 2.4-1.4 7.1-2.2L135 57l2.2-5.3-.4-3 .5-.3zm.7 19.1l.4 2.6-.4.4h-.4l-.4-1.1-1.5 1.1.4 1.1 1.5-.8c.8 0 1.6.4 2.3 1.1l3.8.4v-.8c0-.9-.5-1.8-1.5-2.6 0-.9-.6-2.1-1.9-3.8v-1.9c-1.5.7-2.3 2.1-2.3 4.3z"/>
  <path d="M168.3 55.7c.1.4.6.9 1.6 1.3-1.3 12.8-1.9 21.2-1.9 25.1l17.3 1.3.3.3c2.1.1 3.2.4 3.2.9l-2.2 3.1-4.7.3-7.8-.3-1.3.3-.3-.3c-3.4 0-5 .5-5 1.6 0 .6-.2.9-.6.9-.4 0-.6-.3-.6-.9l-.3-.3h-.3l-1.9.3-1.6-.6-2.5.6c-.8-.3-1.2-.6-1.2-.9v-.3c.4-1.1 1.3-1.6 2.8-1.6v-.6h-2.5c-.5 0-.8-.5-1-1.6.4 0 .8-.8 1-2.5l1.9-.3v.3l1.2-.3v-.6c-.8 0-1.2-.3-1.2-.9v-.6c.6 0 .9-.2.9-.7l-.6-.6.6-9.4.3-.3-.6-.6v-.3c.4-.3 1.1-2.9 2.2-7.9.7-1.5 1.4-2.2 2.2-2.2.7-.1 1.7-.7 2.6-1.7z"/>
  <path d="M198.7 74.4l1.1.4.3-.4 9 .8.5 3.3c-.6 1-2.7 1.5-6.5 1.5h-11.7l-5.2.7-.3-1.1c1-2.7 1.7-4.2 2.2-4.4l10.6-.8zM235 52.7c0 .7 1.2 1.1 3.7 1.1l.4.4v.7c0 2.2-.4 4.3-1.1 6.2l-7.3-1.5c-6.5 0-10.7 1.8-12.5 5.5l-.7 4c0 5.2 1.3 8.1 4 8.8.7 0 2.2 1.5 4.8 4.4h7l1.5.4c1-.5 2.3-.7 4-.7h1.5c-.6 4.9-1.4 7.3-2.2 7.3l-1.1-.4-1.5 1.9-1.8-.4h-4l-7.7-2.2c-6.1-2.5-9.2-5-9.2-7.3-1-2.5-1.7-7-2.2-13.6l.4-.4v-.4l-.4-1.5c2.8-8.1 6.7-12.1 11.8-12.1l12.6-.2zm-12.5 27.9l-.4.4v.8h1.1v-.4l-.7-.8zm48.6-24.1c1.7 2.2 2.6 3.9 2.6 5.1.7 2.5 1.1 5.2 1.1 8v5.8l.4 1.5-.4 1.1.4 1.1c0 2.8-1.7 6.4-5.1 10.9l-6.2 3.6-3.6.4h-2.6c-1.9 0-5.1-1.5-9.5-4.4-4.4-4.7-6.6-11.8-6.6-21.1l-.7-1.4.4-.4v-.4l-.4-2.2.7-4.7V59h2.2c.7 0 1.1-.6 1.1-1.8h.7c0 1 .9 2.3 2.6 3.6l.4 1.5-.4 2.9c0 13.4 2.1 20.6 6.2 21.5l.4.4h.4c8.3-.8 12.4-2.1 12.4-4l1.5-11.3v-5.1l-1.1-3.6v-4c0-.5.4-.7 1.1-.7l.4.4h.4l1.1-.7-.4-1.1.4-.4h.1z"/>
  <path d="M279.1 47.7l1.6 1h.3l1.3-1 2.3.3 1-.3c0 2.8 1 4.3 3 4.3 4 0 8.2 2.1 12.8 6.2l1 1.6v4c-1.3.7-2 1.6-2 2.6 0 1.1 1 2.2 3 3.3l2.9 5.6.3 4.9c0 2.4-3.1 5.4-9.2 9.2l-9.2 3.3c0 .4-.7.8-2 1 0 .9-.3 1.3-1 1.3-1.5 0-2.8-.9-4-2.6l-3.3-1c-.3 0-.9-1.1-2-3.3l.7-2v-.7l-.3-1.6.3-.3h.3l.3.3v.3l3.6-1.3-.7-3 .3-1.6-.3-2.3.3-1.3c-2.2-.5-3.3-1.3-3.3-2.3l-.3.3h-.7V72l.3-1-.3-1.6v-1.6l1.6-1.3c0-.5.5-1.2 1.6-2-.1-.7-.6-1.4-1.6-2.3 0-.5.3-.7 1-.7v-3.3l-.7-.7h-1.6l-1 .7c-1.1-.3-1.6-1.1-1.6-2.3l2-4.9h.3l.3.3h.3c1-2.4 1.7-3.6 2.4-3.6zm-2.6 25.6v.7h-.7l.7-.7zm9.8-15.4v2.9c.7 1.7 1 3.5 1 5.3l.3.3h2.9c2 0 3.5-.8 4.6-2.3v-3.3c0-2-2.1-3.2-6.3-3.6h-2l-.5.7zm1 16v3.3c.6 5 1.4 7.6 2.3 7.6h4c5-1.5 7.6-3.2 7.6-5.2-.5-4.6-2.4-6.9-5.6-6.9H292c-3.1-.1-4.7.4-4.7 1.2zm14.2-14.1v2h.3v-2h-.3zm17.9-2l1 .2 1.6-.4h3.6l.3-.3h.3l11.2.4 1.5 1.8.1 1c-1 .1-2.3 1.5-3.9 4.3-6.2 7-11.8 14.2-17 21.7l.1.7 1.6.2c1.9-1 5.1-1.7 9.4-2.1l2.9-.2 2-.5 1 .3 3.2-.9.4.3.1 1.3c0 .5-.3.7-.9.7l.1.7c1.3.1 2 .4 2 .8v.3l-3.2 1.6c-3.3.3-10.5 1.7-21.7 4.3l-3.2.6-1-.6-1.9.8-.3-.3-.1-1 .3-.3v-.3c-.9-.2-1.3-.5-1.4-.9.6 0 4.2-5 11-15l11.7-14v-.3l-3.9.3-1.3.4-.3-.3h-.3l-17.2 2.3-1-.3c-.3-3.5.2-5.3 1.5-5.4l11.7-1.9z"/>
  <path class="st3" d="M370.4 122c-1.1 1.4-2.1 2.3-3.4 2.8-1.6.5-3.1.2-4.6-.5-1.3-.6-2.3-1.7-3.2-2.8-.9-1.1-1.8-2.2-2.6-3.3-.8-1-1.9-1.5-3.1-1.7-1.9-.2-3.9-.4-5.8-.6-2-.2-3.9-.7-5.7-1.5-3.1-1.5-4.4-4.4-3.3-7.7.8-2.4 2.2-4.2 4.4-5.4.9-.5 1.9-.7 2.9-.5 1.7.2 3.3-.4 4.7-1.2 1.4-.8 2.8-1.7 4.2-2.4 3.3-1.8 6.5-1.8 9.8 0 2.9 1.5 3.8 4 3.4 6.9-.1 1-.3 1.9-.6 2.9-.4 1.2 0 2.1.8 2.9 1 1 2 2 2.9 3.2 1.7 2.2 1.7 4.5.5 6.9-.5.6-1 1.5-1.3 2m13.6-12.8c-2.2 2.8-6.2 3.8-9.4 2.3-1.3-.6-2-1.8-2.3-3.1-.6-2.5-.2-4.8 1.1-6.9 1-1.5 2.3-2.6 3.7-3.7 1.7-1.3 3.6-2.5 5.7-3.2.6-.2 1.3-.3 1.9-.3 1.1 0 1.8.6 1.9 1.7.1.9 0 1.8 0 2.7-.1 2.6-.2 5.1-1 7.6-.2.6-.4 1.2-.7 1.7-.3.3-.6.7-.9 1.2m-14.8-24.7c2-2.5 4.1-4.6 6.7-6.1.7-.4 1.4-.7 2.2-.7.9 0 1.6.4 1.8 1.3l.3 1.5c.2 2 .5 4 .6 6 .1 2-.1 3.9-.9 5.8-1.3 2.8-3.5 4.2-6.5 4.5-1.2.1-2.3 0-3.3-.5s-1.6-1.3-2-2.3c-1.2-2.6-1.1-5.3.2-7.8.3-.7.7-1.3.9-1.7M355.8 79c1.4-1.8 3-3.1 4.7-4.2 1.4-.9 2.8-1.7 4.1-2.6 1.6-1 2.8-.5 3.4 1.3.4 1.2.5 2.5.5 3.8 0 2.7-.3 5.3-1.3 7.8-1.3 3.2-3.7 5.1-7.1 5.6-1.3.2-2.5-.3-3.5-1.2-2.5-2.4-3.4-6-1.6-9.5.4-.4.7-.7.8-1m-14.4 17.6c-3.3-2.5-4.2-6.5-2.4-10.1.9-1.8 2-3.3 3.3-4.8 1.1-1.2 2.2-2.4 3.3-3.5.9-.9 1.9-.9 2.8-.1.3.3.5.6.7.9.8 1.3 1.3 2.8 1.6 4.3.2 1.2.4 2.3.6 3.5.2 1.5.3 3.1-.1 4.6-.6 2.4-2 4.3-4.2 5.5-2 1.3-4 1-5.6-.3m31-26.7c-.7.9-1.3 1.5-2.1 1.8-1 .3-2 .1-2.9-.3-.9-.4-1.5-1.1-2.1-1.8-.6-.7-1.1-1.4-1.7-2.1-.5-.6-1.2-1-2-1.1-1.2-.1-2.4-.3-3.7-.4-1.2-.2-2.5-.4-3.6-1-2-1-2.8-2.8-2.1-4.9.5-1.5 1.4-2.7 2.8-3.4.6-.3 1.2-.4 1.8-.3 1.1.1 2.1-.2 3-.8l2.7-1.5c2.1-1.1 4.1-1.1 6.2 0 1.9 1 2.4 2.5 2.1 4.4-.1.6-.2 1.2-.4 1.8-.3.8 0 1.3.5 1.9.6.6 1.3 1.3 1.8 2 1.1 1.4 1.1 2.9.3 4.4-.1.5-.5 1-.6 1.3m8.6-8.1c-1.4 1.8-3.9 2.4-6 1.4-.8-.4-1.3-1.1-1.5-2-.4-1.6-.1-3 .7-4.4.6-1 1.5-1.7 2.4-2.4 1.1-.8 2.3-1.6 3.6-2 .4-.1.8-.2 1.2-.2.7 0 1.2.4 1.2 1.1V55c0 1.6-.1 3.2-.6 4.8-.1.4-.3.7-.4 1.1-.3.3-.5.6-.6.9m-9.4-15.6c1.3-1.6 2.6-2.9 4.3-3.9.4-.2.9-.5 1.4-.5.6 0 1 .3 1.2.8.1.3.1.6.2.9.1 1.3.3 2.5.4 3.8.1 1.3 0 2.5-.6 3.7-.8 1.8-2.2 2.7-4.1 2.9-.7.1-1.4 0-2.1-.3-.6-.3-1-.8-1.3-1.5-.7-1.7-.7-3.3.1-5 .1-.3.3-.7.5-.9m-8.5-3.5c.9-1.1 1.9-1.9 3-2.7.9-.6 1.7-1.1 2.6-1.6 1-.6 1.8-.3 2.2.8.3.8.3 1.6.3 2.4 0 1.7-.2 3.4-.8 4.9-.8 2-2.3 3.2-4.5 3.5-.8.1-1.6-.2-2.2-.8-1.6-1.5-2.2-3.8-1-6 .1-.1.3-.4.4-.5M354 53.8c-2.1-1.6-2.7-4.1-1.5-6.4.6-1.1 1.3-2.1 2.1-3 .7-.8 1.4-1.5 2.1-2.2.6-.6 1.2-.6 1.8-.1.2.2.3.4.5.6.5.8.8 1.8 1 2.7.2.7.3 1.5.4 2.2.1 1 .2 2-.1 2.9-.4 1.5-1.3 2.7-2.7 3.5-1.4.8-2.6.6-3.6-.2m50.2 33.3c-.6.7-1.1 1.2-1.8 1.5-.8.3-1.6.1-2.4-.2-.7-.3-1.2-.9-1.7-1.5s-.9-1.1-1.4-1.7c-.4-.5-1-.8-1.7-.9l-3-.3c-1-.1-2-.3-3-.8-1.6-.8-2.3-2.3-1.7-4.1.4-1.2 1.1-2.2 2.3-2.8.5-.2 1-.3 1.5-.3.9.1 1.7-.2 2.5-.6.7-.4 1.5-.9 2.2-1.3 1.7-.9 3.4-.9 5.2 0 1.5.8 2 2.1 1.8 3.6l-.3 1.5c-.2.6 0 1.1.4 1.5.5.5 1.1 1.1 1.5 1.7.9 1.1.9 2.4.3 3.6-.3.4-.6.8-.7 1.1m7.1-6.7c-1.2 1.5-3.3 2-5 1.2-.7-.3-1.1-.9-1.2-1.7-.3-1.3-.1-2.5.6-3.6.5-.8 1.2-1.4 2-2 .9-.7 1.9-1.3 3-1.7.3-.1.7-.2 1-.2.6 0 1 .3 1 .9v1.4c0 1.3-.1 2.7-.5 4l-.3.9c-.3.3-.4.5-.6.8m-7.7-13c1.1-1.3 2.1-2.4 3.5-3.2.4-.2.7-.4 1.2-.4s.8.2 1 .7c.1.2.1.5.1.8.1 1.1.2 2.1.3 3.2.1 1 0 2.1-.5 3-.7 1.5-1.9 2.2-3.4 2.4-.6.1-1.2 0-1.8-.3-.5-.3-.8-.7-1.1-1.2-.6-1.4-.6-2.8.1-4.1.2-.4.4-.7.6-.9m-7.1-2.9c.7-.9 1.6-1.6 2.5-2.2.7-.5 1.4-.9 2.2-1.3.8-.5 1.5-.3 1.8.7.2.7.3 1.3.3 2 0 1.4-.2 2.8-.7 4.1-.7 1.7-1.9 2.7-3.7 2.9-.7.1-1.3-.1-1.8-.6-1.3-1.3-1.8-3.2-.8-5 0-.3.1-.5.2-.6m-7.6 9.2c-1.7-1.3-2.2-3.4-1.3-5.3.5-.9 1.1-1.8 1.8-2.5.6-.6 1.1-1.3 1.7-1.9.5-.5 1-.5 1.5-.1.1.1.3.3.4.5.4.7.7 1.5.8 2.3l.3 1.8c.1.8.1 1.6-.1 2.4-.3 1.3-1.1 2.2-2.2 2.9-1 .8-2 .6-2.9-.1"/>
  <path d="M371.6 120.7c-1.1 1.4-2.1 2.3-3.4 2.8-1.6.5-3.1.2-4.6-.5-1.3-.6-2.3-1.7-3.2-2.8-.9-1.1-1.8-2.2-2.6-3.3-.8-1-1.9-1.5-3.1-1.7-1.9-.2-3.9-.4-5.8-.6-2-.2-3.9-.7-5.7-1.5-3.1-1.5-4.4-4.4-3.3-7.7.8-2.4 2.2-4.2 4.4-5.4.9-.5 1.9-.7 2.9-.5 1.7.2 3.3-.4 4.7-1.2 1.4-.8 2.8-1.7 4.2-2.4 3.3-1.8 6.5-1.8 9.8 0 2.9 1.5 3.8 4 3.4 6.9-.1 1-.3 1.9-.6 2.9-.4 1.2 0 2.1.8 2.9 1 1 2 2 2.9 3.2 1.7 2.2 1.7 4.5.5 6.9-.5.6-1 1.5-1.3 2m13.5-12.8c-2.2 2.8-6.2 3.8-9.4 2.3-1.3-.6-2-1.8-2.3-3.1-.6-2.5-.2-4.8 1.1-6.9 1-1.5 2.3-2.6 3.7-3.7 1.7-1.3 3.6-2.5 5.7-3.2.6-.2 1.3-.3 1.9-.3 1.1 0 1.8.6 1.9 1.7.1.9 0 1.8 0 2.7-.1 2.6-.2 5.1-1 7.6-.2.6-.4 1.2-.7 1.7-.3.3-.6.7-.9 1.2m-14.7-24.7c2-2.5 4.1-4.6 6.7-6.1.7-.4 1.4-.7 2.2-.7.9 0 1.6.4 1.8 1.3l.3 1.5c.2 2 .5 4 .6 6 .1 2-.1 3.9-.9 5.8-1.3 2.8-3.5 4.2-6.5 4.5-1.2.1-2.3 0-3.3-.5s-1.6-1.3-2-2.3c-1.2-2.6-1.1-5.3.2-7.8.2-.7.6-1.3.9-1.7M357 77.7c1.4-1.8 3-3.1 4.7-4.2 1.4-.9 2.8-1.7 4.1-2.6 1.6-1 2.8-.5 3.4 1.3.4 1.2.5 2.5.5 3.8 0 2.7-.3 5.3-1.3 7.8-1.3 3.2-3.7 5.1-7.1 5.6-1.3.2-2.5-.3-3.5-1.2-2.5-2.4-3.4-6-1.6-9.5.3-.4.6-.7.8-1m-14.4 17.6c-3.3-2.5-4.2-6.5-2.4-10.1.9-1.8 2-3.3 3.3-4.8 1.1-1.2 2.2-2.4 3.3-3.5.9-.9 1.9-.9 2.8-.1.3.3.5.6.7.9.8 1.3 1.3 2.8 1.6 4.3.2 1.2.4 2.3.6 3.5.2 1.5.3 3.1-.1 4.6-.6 2.4-2 4.3-4.2 5.5-2.1 1.3-4 1-5.6-.3m30.9-26.7c-.7.9-1.3 1.5-2.1 1.8-1 .3-2 .1-2.9-.3-.9-.4-1.5-1.1-2.1-1.8-.6-.7-1.1-1.4-1.7-2.1-.5-.6-1.2-1-2-1.1-1.2-.1-2.4-.3-3.7-.4-1.2-.2-2.5-.4-3.6-1-2-1-2.8-2.8-2.1-4.9.5-1.5 1.4-2.7 2.8-3.4.6-.3 1.2-.4 1.8-.3 1.1.1 2.1-.2 3-.8l2.7-1.5c2.1-1.1 4.1-1.1 6.2 0 1.9 1 2.4 2.5 2.1 4.4-.1.6-.2 1.2-.4 1.8-.3.8 0 1.3.5 1.9.6.6 1.3 1.3 1.8 2 1.1 1.4 1.1 2.9.3 4.4-.1.5-.4 1-.6 1.3m8.6-8.1c-1.4 1.8-3.9 2.4-6 1.4-.8-.4-1.3-1.1-1.5-2-.4-1.6-.1-3 .7-4.4.6-1 1.5-1.7 2.4-2.4 1.1-.8 2.3-1.6 3.6-2 .4-.1.8-.2 1.2-.2.7 0 1.2.4 1.2 1.1v1.7c0 1.6-.1 3.2-.6 4.8-.1.4-.3.7-.4 1.1l-.6.9m-9.3-15.6c1.3-1.6 2.6-2.9 4.3-3.9.4-.2.9-.5 1.4-.5.6 0 1 .3 1.2.8.1.3.1.6.2.9.1 1.3.3 2.5.4 3.8.1 1.3 0 2.5-.6 3.7-.8 1.8-2.2 2.7-4.1 2.9-.7.1-1.4 0-2.1-.3-.6-.3-1-.8-1.3-1.5-.7-1.7-.7-3.3.1-5 0-.3.3-.7.5-.9m-8.5-3.5c.9-1.1 1.9-1.9 3-2.7.9-.6 1.7-1.1 2.6-1.6 1-.6 1.8-.3 2.2.8.3.8.3 1.6.3 2.4 0 1.7-.2 3.4-.8 4.9-.8 2-2.3 3.2-4.5 3.5-.8.1-1.6-.2-2.2-.8-1.6-1.5-2.2-3.8-1-6 .1-.1.3-.4.4-.5m-9.2 11.1c-2.1-1.6-2.7-4.1-1.5-6.4.6-1.1 1.3-2.1 2.1-3 .7-.8 1.4-1.5 2.1-2.2.6-.6 1.2-.6 1.8-.1.2.2.3.4.5.6.5.8.8 1.8 1 2.7.2.7.3 1.5.4 2.2.1 1 .2 2-.1 2.9-.4 1.5-1.3 2.7-2.7 3.5-1.3.8-2.5.7-3.6-.2m50.3 33.3c-.6.7-1.1 1.2-1.8 1.5-.8.3-1.6.1-2.4-.2-.7-.3-1.2-.9-1.7-1.5s-.9-1.1-1.4-1.7c-.4-.5-1-.8-1.7-.9l-3-.3c-1-.1-2-.3-3-.8-1.6-.8-2.3-2.3-1.7-4.1.4-1.2 1.1-2.2 2.3-2.8.5-.2 1-.3 1.5-.3.9.1 1.7-.2 2.5-.6.7-.4 1.5-.9 2.2-1.3 1.7-.9 3.4-.9 5.2 0 1.5.8 2 2.1 1.8 3.6l-.3 1.5c-.2.6 0 1.1.4 1.5.5.5 1.1 1.1 1.5 1.7.9 1.1.9 2.4.3 3.6-.3.4-.6.8-.7 1.1m7.1-6.7c-1.2 1.5-3.3 2-5 1.2-.7-.3-1.1-.9-1.2-1.7-.3-1.3-.1-2.5.6-3.6.5-.8 1.2-1.4 2-2 .9-.7 1.9-1.3 3-1.7.3-.1.7-.2 1-.2.6 0 1 .3 1 .9v1.4c0 1.3-.1 2.7-.5 4l-.3.9c-.3.3-.5.5-.6.8m-7.8-13c1.1-1.3 2.1-2.4 3.5-3.2.4-.2.7-.4 1.2-.4s.8.2 1 .7c.1.2.1.5.1.8.1 1.1.2 2.1.3 3.2.1 1 0 2.1-.5 3-.7 1.5-1.9 2.2-3.4 2.4-.6.1-1.2 0-1.8-.3-.5-.3-.8-.7-1.1-1.2-.6-1.4-.6-2.8.1-4.1.3-.4.5-.7.6-.9m-7-2.9c.7-.9 1.6-1.6 2.5-2.2.7-.5 1.4-.9 2.2-1.3.8-.5 1.5-.3 1.8.7.2.7.3 1.3.3 2 0 1.4-.2 2.8-.7 4.1-.7 1.7-1.9 2.7-3.7 2.9-.7.1-1.3-.1-1.8-.6-1.3-1.3-1.8-3.2-.8-5-.1-.3.1-.5.2-.6m-7.6 9.2c-1.7-1.3-2.2-3.4-1.3-5.3.5-.9 1.1-1.8 1.8-2.5.6-.6 1.1-1.3 1.7-1.9.5-.5 1-.5 1.5-.1.1.1.3.3.4.5.4.7.7 1.5.8 2.3l.3 1.8c.1.8.1 1.6-.1 2.4-.3 1.3-1.1 2.2-2.2 2.9-1 .8-2 .6-2.9-.1"/>
  <path class="st0" d="M277.3 136.3l2 35.2-24-9.1-15.9 7.3-19.7.6-4.4-7-26.2 3.4-20.4-6.6 5.1-21.9-.6-21.1 21.7-17.5 24.3 13.2 15.1-2 28.5 6.9-4.9 3z"/>
  <path d="M204.5 120.2h.7c0 .6 1 1 2.9 1.3l2.9-.3c6.9 4.6 11.4 8.2 13.6 10.7v1.3c0 7.3-1.7 12.4-5.2 15.2-2.3 3.1-5.3 5.4-9.1 6.8-.3.4-2.2.8-5.5 1.3h-4.2c-1.7 0-4.2-1.3-7.5-3.9l-3.6-3.9c-.7-1.7-1-3.5-1-5.2 2.4-8.3 4.2-12.8 5.5-13.6 2.7-3.6 6.3-6.8 10.7-9.4l-.2-.3zm-9.1 22.4c0 3.5 1 5.9 2.9 7.1.9 0 1.8.4 2.6 1.3l2.6-.7 3.6.3c2.8-.9 5.2-2.5 7.1-4.9 2.2-3.2 3.3-6 3.3-8.4-.2-1.9-1.6-4.3-4.2-7.2-.6 0-1.8-.8-3.6-2.3l-1.6-.3c-5.9 0-10 4.5-12.3 13.7l-.4 1.4zm27.2-9.7l-.3 1.6v1.3h1v-2.2l-.7-.7z"/>
  <path d="M237.9 118.1h1.3c1.3 0 2 .4 2 1.3h2c.9.9 2.7 1.9 5.3 3 .7 1.3 1.3 3.6 2 6.9l.3.3v.3c0 1.4-.7 2.9-2 4.6-.4 3.7-1.5 5.6-3.3 5.6h-.7v.3c3 5.3 6.4 9.7 10.2 13.2l.3.3c0 1.1-.3 1.8-1 2l-1.6-.3-1 1.7c-.7 0-3-2.2-6.9-6.6-2.3-4.3-4.3-6.9-5.9-7.9h-1c-3.3 1.3-4.9 2.5-4.9 3.6l1.3 9.9c-.8 0-1.9.9-3.3 2.6-.4 0-.9-1.4-1.6-4.3-.4 0-1-1.9-1.6-5.6l.3-.3-.7-3.9h-1.7c-.6-.2-1-1-1-2.7.8 0 1.7-1.2 2.6-3.6l-.3-.3.3-1.6v-1c-.9-4-1.7-5.9-2.3-5.9-.7 0-1-.2-1-.7v-.3l.7-.7-.3-.3v-.4c0-2.4.9-4.7 2.6-6.9l3.9-.7 1 1c.5-.7 2.1-1.2 5-1.3.2-.9.5-1.3 1-1.3zm-5.9 9.2v1.7l1.3 9.2c3.1 0 4.6-1 4.6-3l.3-.3v-1.6h.4c.4 0 .7.7 1 2h.7v.3l1.3-.7 2 .3 2.3-5-1.3-1.3.3-1.7h-.7c0-1.1-1.3-2-4-2.6l-1-1c-2 .1-4.4 1.3-7.2 3.7z"/>
</svg>
