<svg id="Layer_1" xmlns="http://www.w3.org/2000/svg" viewBox="0 0 319.4 88.7">
  <style>
    .st0{fill:#FFFFFF;} .st1{fill:#E52A1E;}
  </style>
  <path class="st0" d="M166.4 26.9c-1.3-1-2.3-1.8-3.1-2.3-.7-.5-1.2-.9-1.6-1.2-.3-.3-.5-.4-.6-.5-.1-.1-.1-.1-.1-.2h6.5l2.6-8.4 2.6 8.4h6.3c.3-.1 0 .2-.9.8-.9.6-2.3 1.8-4.1 3.4l2.1 6.8-6-4.1-5.7 4.1 2-6.8z"/>
  <path class="st1" d="M17.9 0c.5 0 1.1.2 1.7.7.6.5.9 1 .9 1.5V33c0 .2-.1.5-.2.7-.2.2-.4.5-.6.7-.2.2-.5.4-.7.5-.3.1-.5.2-.7.2H8v24.8H0V0h17.9zM8 25.3h2.6c.4 0 .7-.2 1-.6.3-.4.4-.7.4-1V11c0-.3-.1-.5-.4-.8-.3-.3-.6-.4-.8-.4H8v15.5zM44.5 0c.5 0 1.1.2 1.7.7.6.5.9 1 .9 1.5V33c0 .7-.3 1.2-1 1.6-.6.4-1.2.6-1.7.7l3.5 24.8h-8.2l-3.5-24.8h-1.6v24.8h-8V0h17.9zm-10 25.2H37c.4 0 .7-.2 1-.6.3-.4.4-.7.4-1V10.9c0-.3-.1-.5-.4-.8-.3-.3-.6-.4-.8-.4h-2.7v15.5zM61.9 0v59.9h-8.1V0h8.1zM75.9 0l4.6 15.1L85.1 0h8v59.9h-8V28.4L80.5 43 76 28.4V60h-8V0h7.9zM106.7 0h13.6l7.6 59.9h-8.6l-1.4-10.5h-8.7l-1.4 10.5h-8.7L106.7 0zm10.1 40.7l-3.2-24.8h-.1l-3.2 24.8h6.5zM142 0l.1 51.4h13v8.5h-21.2V0h8.1zM185.2 8.6V0h21.1v8.6h-6.5V60h-8.1V8.6h-6.5zM233.4 0v8.5h-13v14.8h13v8.6h-13v19.5h13v8.5h-21.2V0h21.2zM260.6 0v8.5h-13v14.8h13v8.6h-13v19.5h13v8.5h-21.2V0h21.2zM274.6 0l9.2 30.2V0h8v59.9h-7.4l-9.7-31.5v31.5h-8V0h7.9zM306.4 42v6c0 .4.3.9.8 1.3s1 .6 1.4.6c.5 0 1-.1 1.5-.4.5-.3.7-.7.7-1.3V37.6l-.7-.6-11.3-6-.6-.6c-.1-.3-.3-.5-.3-.7v-3-4.3-4.9-4.9-4.2-2.8-1.7c0-.6 0-1.2.2-1.8.1-.6.4-1 .7-1.4.4-.4.9-.6 1.7-.6H317c.6 0 1.2.2 1.7.6s.8 1 .8 1.6v11.4l-8.3 5.4v-8.6c0-.6-.3-.9-.8-1.1-.5-.2-1-.3-1.5-.3-.6 0-1.1.1-1.6.4-.5.3-.8.7-.8 1.4v12.5c0 .2.1.4.2.6.2.3.3.4.4.4l11.2 5.6c.1 0 .3.1.6.4.3.3.5.5.5.8v26.5c0 .7-.3 1.2-.8 1.6-.6.4-1.1.6-1.7.6h-16.5c-.4 0-1-.2-1.6-.5-.6-.3-.9-.8-.9-1.3V37.5l8.5 4.5z"/>
  <path class="st0" d="M4.2 64.7v24H1v-24h3.2zM9.8 64.7l3.7 12.1V64.7h3.2v24h-2.9l-4-12.6v12.6H6.6v-24h3.2zM22.5 81.6V84c0 .2.1.3.3.5.2.2.4.2.6.2.2 0 .4-.1.6-.2.2-.1.3-.3.3-.5v-4.2l-.3-.2-4.6-2.4c-.1-.1-.2-.1-.2-.3-.1-.1-.1-.2-.1-.3v-1.2-1.7-2-2V68v-1.1-.7c0-.3 0-.5.1-.7l.3-.6c.1-.2.4-.2.7-.2h6.6c.2 0 .5.1.7.3.2.2.3.4.3.7v4.6l-3.3 2.2V69c0-.2-.1-.4-.3-.5-.2-.1-.4-.1-.6-.1-.2 0-.4.1-.6.2-.2.1-.3.3-.3.6v5c0 .1 0 .1.1.3.1.1.1.2.2.2l4.5 2.3.2.2c.1.1.2.2.2.3v10.6c0 .3-.1.5-.3.6-.2.2-.5.2-.7.2h-6.6c-.2 0-.4-.1-.6-.2-.2-.1-.4-.3-.4-.5V80l3.2 1.6zM30.1 68.2v-3.4h8.4v3.4H36v20.5h-3.2V68.2h-2.7zM48.1 64.7c.2 0 .4.1.7.3.2.2.4.4.4.6v12.3c0 .3-.1.5-.4.6-.3.1-.5.2-.7.3l1.4 9.9h-3.3l-1.4-9.9h-.6v9.9H41v-24h7.1zm-4 10.1h1c.1 0 .3-.1.4-.2.1-.2.2-.3.2-.4v-5.1c0-.1-.1-.2-.2-.3-.1-.1-.2-.2-.3-.2h-1.1v6.2zM55.3 64.7v19.7c0 .1 0 .2.1.3.1.1.2.1.3.2.1.1.2.1.3.1h.3c.2 0 .4-.1.6-.2.2-.1.3-.3.3-.6V64.7h3.4V87c0 .4-.2.8-.5 1.2-.3.3-.7.5-1.1.5h-5.6c-.1 0-.3 0-.5-.1s-.3-.2-.5-.3l-.4-.4c-.1-.2-.1-.3-.1-.5V64.7h3.4zM68.3 74v-5c0-.2-.1-.3-.3-.5-.2-.1-.4-.2-.6-.2-.2 0-.4.1-.6.2-.2.1-.4.3-.4.5v15.5c0 .2.1.4.4.5.2.1.4.2.6.2.2 0 .4-.1.6-.2s.3-.3.3-.6v-6l3.4 3.5V87c0 .4-.2.8-.5 1.2s-.7.5-1.2.5h-5.5c-.1 0-.3 0-.5-.1s-.3-.2-.5-.3l-.4-.4c-.1-.2-.1-.4-.1-.5V66.1c0-.1 0-.3.1-.5s.2-.3.4-.5c.1-.1.3-.3.5-.3.2-.1.3-.1.5-.1H70c.2 0 .4 0 .6.1.2.1.4.2.5.4.1.2.3.3.3.5.1.2.1.4.1.6V71l-3.2 3zM74 68.2v-3.4h8.4v3.4h-2.6v20.5h-3.2V68.2H74zM93.3 64.7v3.4h-5.2V74h5.2v3.4h-5.2v7.8h5.2v3.4h-8.5v-24h8.5zM102.9 64.7c.2 0 .4.1.7.3.2.2.4.4.4.6v22.2c0 .1 0 .2-.1.3-.1.1-.1.2-.2.3-.1.1-.2.2-.3.2-.1.1-.2.1-.3.1h-7.3v-24h7.1zm-4 20h1c.1 0 .3-.1.4-.2.1-.2.2-.3.2-.4V69.2c0-.1-.1-.2-.2-.3-.1-.1-.2-.2-.3-.2h-1.1v16zM115.9 88.7v-24h6.9c.4 0 .8.2 1.1.5.3.3.5.7.5 1.1v6.3l-.9 2.2.9 3.9v9.1c0 .2-.1.4-.4.6-.2.2-.5.3-.7.3h-7.4zm5.3-16v-3.3c0-.2-.1-.3-.2-.5-.2-.1-.3-.2-.5-.2h-1.4v6.2h1.2l.9-2.2zm-2.1 12.8h1.5c.1 0 .3-.1.4-.2.1-.2.2-.3.2-.4V80l-.4-1.2H119v6.7zM130.7 78.3v6.1c0 .2.1.4.3.6.2.1.4.2.6.2h.3c.1 0 .2-.1.3-.1.1-.1.2-.1.3-.2.1-.1.1-.2.1-.3v-7h-4.3c-.1 0-.3-.1-.5-.2s-.3-.2-.5-.4c-.1-.2-.3-.3-.4-.5-.1-.2-.2-.3-.2-.5V64.7h3.3V74l.1.1h2.4v-9.4h3.4v22.6c0 .1 0 .3-.1.5s-.2.3-.4.4c-.1.1-.3.2-.5.3-.2.1-.3.1-.5.1h-5.6c-.4 0-.8-.2-1.1-.5-.3-.3-.5-.7-.5-1.2v-5.3l3.5-3.3zM151.2 64.7v24H148v-24h3.2zM156.8 64.7l3.7 12.1V64.7h3.2v24h-2.9l-3.9-12.6v12.6h-3.2v-24h3.1zM173.2 64.7c.2 0 .4.1.7.3.2.2.4.4.4.6v22.2c0 .1 0 .2-.1.3-.1.1-.1.2-.2.3-.1.1-.2.2-.3.2-.1.1-.2.1-.3.1h-7.3v-24h7.1zm-4 20h1c.1 0 .3-.1.4-.2.1-.2.2-.3.2-.4V69.2c0-.1-.1-.2-.2-.3-.1-.1-.2-.2-.3-.2h-1.1v16zM180 64.7v19.7c0 .1 0 .2.1.3.1.1.2.1.3.2.1.1.2.1.3.1h.3c.2 0 .4-.1.6-.2s.3-.3.3-.6V64.7h3.4V87c0 .4-.2.8-.5 1.2-.3.3-.7.5-1.1.5h-5.6c-.1 0-.3 0-.5-.1s-.3-.2-.5-.3l-.4-.4c-.1-.2-.1-.3-.1-.5V64.7h3.4zM191.2 81.6V84c0 .2.1.3.3.5.2.2.4.2.6.2.2 0 .4-.1.6-.2.2-.1.3-.3.3-.5v-4.2l-.3-.2-4.6-2.4c-.1-.1-.2-.1-.2-.3-.1-.1-.1-.2-.1-.3v-1.2-1.7-2-2V68v-1.1-.7c0-.3 0-.5.1-.7l.3-.6c.1-.2.4-.2.7-.2h6.6c.2 0 .5.1.7.3.2.2.3.4.3.7v4.6l-3.3 2.2V69c0-.2-.1-.4-.3-.5-.2-.1-.4-.1-.6-.1-.2 0-.4.1-.6.2-.2.1-.3.3-.3.6v5c0 .1 0 .1.1.3.1.1.1.2.2.2l4.5 2.3.2.2c.1.1.2.2.2.3v10.6c0 .3-.1.5-.3.6-.2.2-.5.2-.7.2H189c-.2 0-.4-.1-.6-.2-.2-.1-.4-.3-.4-.5V80l3.2 1.6zM198.8 68.2v-3.4h8.4v3.4h-2.6v20.5h-3.2V68.2h-2.6zM216.8 64.7c.2 0 .4.1.7.3.2.2.4.4.4.6v12.3c0 .3-.1.5-.4.6-.3.1-.5.2-.7.3l1.4 9.9h-3.3l-1.4-9.9h-.6v9.9h-3.2v-24h7.1zm-4 10.1h1c.1 0 .3-.1.4-.2s.2-.3.2-.4v-5.1c0-.1-.1-.2-.2-.3-.1-.1-.2-.2-.3-.2h-1.1v6.2zM224.4 78.3v6.1c0 .2.1.4.3.6.2.1.4.2.6.2h.3c.1 0 .2-.1.3-.1.1-.1.2-.1.3-.2.1-.1.1-.2.1-.3v-7H222c-.1 0-.3-.1-.5-.2s-.3-.2-.5-.4c-.1-.2-.3-.3-.4-.5-.1-.2-.2-.3-.2-.5V64.7h3.3V74l.1.1h2.4v-9.4h3.4v22.6c0 .1 0 .3-.1.5s-.2.3-.4.4c-.1.1-.3.2-.5.3-.2.1-.3.1-.5.1h-5.6c-.4 0-.8-.2-1.1-.5-.3-.3-.5-.7-.5-1.2v-5.3l3.5-3.3zM244.9 64.7v20.6h5.2v3.4h-8.5v-24h3.3zM261 64.7v3.4h-5.2V74h5.2v3.4h-5.2v7.8h5.2v3.4h-8.5v-24h8.5zM266.5 64.7h5.4l3 24h-3.5l-.6-4.2h-3.5l-.6 4.2h-3.5l3.3-24zm4 16.3l-1.3-9.9-1.3 9.9h2.6zM284.5 64.7c.2 0 .4.1.7.3.2.2.4.4.4.6v22.2c0 .1 0 .2-.1.3-.1.1-.1.2-.2.3-.1.1-.2.2-.3.2-.1.1-.2.1-.3.1h-7.3v-24h7.1zm-4 20h1c.1 0 .3-.1.4-.2.1-.2.2-.3.2-.4V69.2c0-.1-.1-.2-.2-.3-.1-.1-.2-.2-.3-.2h-1.1v16zM296.4 64.7v3.4h-5.2V74h5.2v3.4h-5.2v7.8h5.2v3.4H288v-24h8.4zM306 64.7c.2 0 .4.1.7.3.2.2.4.4.4.6v12.3c0 .3-.1.5-.4.6-.3.1-.5.2-.7.3l1.4 9.9h-3.3l-1.4-9.9h-.7v9.9h-3.2v-24h7.2zm-4 10.1h1c.1 0 .3-.1.4-.2.1-.2.2-.3.2-.4v-5.1c0-.1-.1-.2-.2-.3-.1-.1-.2-.2-.3-.2H302v6.2zM313.3 81.6V84c0 .2.1.3.3.5.2.2.4.2.6.2.2 0 .4-.1.6-.2.2-.1.3-.3.3-.5v-4.2l-.3-.2-4.6-2.4c-.1-.1-.2-.1-.2-.3-.1-.1-.1-.2-.1-.3v-1.2-1.7-2-2V68v-1.1-.7c0-.3 0-.5.1-.7l.3-.6c.1-.2.4-.2.7-.2h6.6c.2 0 .5.1.7.3.2.2.3.4.3.7v4.6l-3.3 2.2V69c0-.2-.1-.4-.3-.5-.2-.1-.4-.1-.6-.1-.2 0-.4.1-.6.2-.2.1-.3.3-.3.6v5c0 .1 0 .1.1.3.1.1.1.2.2.2l4.5 2.3.2.2c.1.1.2.2.2.3v10.6c0 .3-.1.5-.3.6-.2.2-.5.2-.7.2h-6.6c-.2 0-.4-.1-.6-.2-.2-.1-.4-.3-.4-.5V80l3.2 1.6z"/>
</svg>
