<svg id="Layer_1" xmlns="http://www.w3.org/2000/svg" viewBox="0 0 344.7 75.5">
  <style>
    .st0{fill:#1E1E1C;}
  </style>
  <g id="XMLID_7_">
    <path id="XMLID_244_" d="M331.4 73c-.9 1.2-1.7 1.9-2.8 2.3-1.3.4-2.6.2-3.8-.4-1.1-.5-1.9-1.4-2.7-2.3-.7-.9-1.5-1.8-2.2-2.7-.7-.8-1.6-1.3-2.6-1.4-1.6-.2-3.2-.3-4.8-.5-1.6-.2-3.2-.5-4.7-1.3-2.6-1.3-3.6-3.7-2.8-6.4.6-2 1.8-3.5 3.7-4.5.8-.4 1.6-.5 2.4-.5 1.4.2 2.7-.3 3.9-1 1.2-.7 2.3-1.4 3.5-2 2.7-1.5 5.4-1.5 8.1 0 2.4 1.3 3.1 3.3 2.8 5.7-.1.8-.3 1.6-.5 2.4-.3 1 0 1.7.7 2.4.8.8 1.7 1.7 2.4 2.6 1.4 1.8 1.4 3.8.4 5.8-.4.7-.8 1.4-1 1.8z"/>
    <path id="XMLID_240_" d="M342.6 62.4c-1.8 2.3-5.1 3.2-7.8 1.9-1.1-.5-1.7-1.5-1.9-2.6-.5-2-.2-4 .9-5.7.8-1.3 1.9-2.2 3.1-3.1 1.4-1.1 3-2.1 4.7-2.7.5-.2 1.1-.3 1.6-.3.9 0 1.5.5 1.6 1.4.1.7 0 1.5 0 2.2-.1 2.1-.2 4.2-.8 6.3-.1.5-.3 1-.5 1.4-.4.4-.7.8-.9 1.2z"/>
    <path id="XMLID_237_" d="M330.4 41.9c1.7-2 3.4-3.8 5.6-5.1.6-.3 1.2-.6 1.9-.6.8 0 1.3.3 1.5 1.1.1.4.2.8.2 1.2.2 1.7.4 3.3.5 5 .1 1.6-.1 3.3-.8 4.8-1.1 2.3-2.9 3.5-5.4 3.8-1 .1-1.9 0-2.8-.5-.8-.4-1.3-1.1-1.7-1.9-1-2.2-.9-4.4.2-6.5.2-.5.5-.9.8-1.3z"/>
    <path id="XMLID_236_" d="M319.3 37.4c1.2-1.5 2.5-2.5 3.9-3.5 1.1-.7 2.3-1.4 3.4-2.1 1.3-.8 2.3-.4 2.8 1 .4 1 .4 2.1.4 3.2 0 2.2-.2 4.4-1.1 6.4-1.1 2.6-3 4.2-5.9 4.6-1.1.2-2.1-.2-2.9-1-2.1-2-2.8-5-1.3-7.9.3-.2.5-.5.7-.7z"/>
    <path id="XMLID_233_" d="M307.3 52c-2.7-2.1-3.5-5.4-2-8.3.7-1.5 1.7-2.8 2.8-4 .9-1 1.8-2 2.7-2.9.8-.8 1.6-.8 2.3-.1.2.2.4.5.6.8.7 1.1 1.1 2.3 1.3 3.6.2 1 .4 1.9.5 2.9.1 1.3.2 2.6-.1 3.8-.5 2-1.7 3.5-3.5 4.6-1.7.9-3.3.6-4.6-.4z"/>
    <path id="XMLID_6_" d="M310.7 30.5c-.7.8-1.2 1.4-2.1 1.7-1 .3-1.9.1-2.8-.3-.8-.4-1.4-1-2-1.7-.5-.7-1.1-1.3-1.6-2-.5-.6-1.1-.9-1.9-1-1.2-.1-2.3-.2-3.5-.4-1.2-.1-2.4-.4-3.5-.9-1.9-.9-2.7-2.7-2-4.7.5-1.4 1.3-2.6 2.7-3.3.6-.3 1.1-.4 1.8-.3 1 .1 2-.2 2.9-.7.9-.5 1.7-1 2.6-1.5 2-1.1 4-1.1 6 0 1.8.9 2.3 2.4 2 4.2-.1.6-.2 1.2-.4 1.7-.2.7 0 1.3.5 1.8.6.6 1.2 1.2 1.7 1.9 1 1.3 1.1 2.8.3 4.2-.2.5-.5 1-.7 1.3z"/>
    <path id="XMLID_5_" d="M319 22.8c-1.3 1.7-3.8 2.3-5.7 1.4-.8-.4-1.2-1.1-1.4-1.9-.4-1.5-.1-2.9.7-4.2.6-.9 1.4-1.6 2.3-2.3 1.1-.8 2.2-1.5 3.4-2 .4-.1.8-.2 1.2-.2.7 0 1.1.3 1.2 1v1.6c0 1.6-.1 3.1-.6 4.6-.1.4-.2.7-.4 1-.4.4-.6.7-.7 1z"/>
    <path id="XMLID_4_" d="M310 7.7c1.2-1.5 2.5-2.8 4.1-3.7.4-.2.9-.4 1.4-.5.6 0 .9.3 1.1.8.1.3.1.6.2.9.1 1.2.3 2.4.4 3.7.1 1.2 0 2.4-.6 3.5-.8 1.7-2.1 2.6-4 2.8-.7.1-1.4 0-2-.3-.6-.3-1-.8-1.2-1.4-.7-1.6-.7-3.2.1-4.8.1-.4.3-.7.5-1z"/>
    <path id="XMLID_3_" d="M301.8 4.4c.8-1.1 1.8-1.9 2.9-2.5.8-.5 1.7-1 2.5-1.6 1-.6 1.7-.3 2.1.8.3.8.3 1.5.3 2.3 0 1.6-.2 3.2-.8 4.7-.8 1.9-2.2 3.1-4.3 3.4-.8.1-1.5-.2-2.1-.7-1.5-1.5-2.1-3.7-1-5.8.2-.2.3-.5.4-.6z"/>
    <path id="XMLID_2_" d="M293.1 15.1c-2-1.5-2.6-4-1.5-6.1.5-1.1 1.2-2 2-2.9.7-.7 1.3-1.5 2-2.1.6-.6 1.2-.6 1.7-.1.2.2.3.4.4.6.5.8.8 1.7 1 2.6.2.7.3 1.4.3 2.1.1.9.2 1.9-.1 2.8-.4 1.5-1.2 2.6-2.5 3.4-1.2.6-2.3.5-3.3-.3z"/>
  </g>
  <g id="XMLID_8_">
    <path id="XMLID_9_" class="st0" d="M0 69V7.1h14.5c6.7 0 10.4 9.1 10.4 20 0 10.8-3.7 19.9-10.4 19.9H6.6v22H0zm18.1-42c0-5.2-2-8.4-4.6-8.4h-7v16.6h7c2.6.1 4.6-3.1 4.6-8.2z"/>
    <path id="XMLID_12_" class="st0" d="M46.5 69l-6.1-22h-4.8v22H29V7.1h14.5c6.4 0 10.4 8.4 10.4 20 0 10.9-3.5 16.8-6.8 18.4l7 23.6h-7.6zm.6-42.1c0-5.1-2-8.3-4.6-8.3h-7v16.7h7c2.7.1 4.6-3.1 4.6-8.4z"/>
    <path id="XMLID_15_" class="st0" d="M58.8 69V7.1h6.6V69h-6.6z"/>
    <path id="XMLID_17_" class="st0" d="M98.5 69V24.3L89.7 69h-2.9l-8.7-44.6V69h-6.6V7.1h9.2l7.5 38.7 7.5-38.7h9.3V69h-6.5z"/>
    <path id="XMLID_19_" class="st0" d="M132.6 69l-1.9-10.5h-13.3L115.5 69H108l11.9-61.9h8.3L140.1 69h-7.5zM124 20.2l-4.8 26.6h9.7L124 20.2z"/>
    <path id="XMLID_22_" class="st0" d="M142.7 69V7.1h6.6v50.3h13.1V69h-19.7z"/>
    <path id="XMLID_24_" class="st0" d="M164.1 38.1c0-19.1 7.2-32 16.5-32 6.8 0 10.7 7.3 12.9 15.1l-5.7 5.6c-1.3-5-4.1-9-7.2-9-5.7 0-9.7 8.6-9.7 20.3s4.1 20.3 9.7 20.3c3.2 0 5.9-4 7.2-9l5.7 5.5c-2.2 7.7-6.1 15.2-12.9 15.2-9.3 0-16.5-13-16.5-32z"/>
    <path id="XMLID_26_" class="st0" d="M197.5 44.2V7.1h6.7v36.8c0 8.6 2.5 14.6 7.3 14.6s7.2-5.9 7.2-14.6V7.1h6.7v37.1c0 15.3-4.5 25.9-14 25.9-9.3 0-13.9-10.6-13.9-25.9z"/>
    <path id="XMLID_28_" class="st0" d="M231.6 69V7.1h16.3c5.9 0 8.9 7.5 8.9 15.8 0 7.7-2.4 13-5.3 14.2 3.3 1 5.9 7.4 5.9 15.1 0 9.4-3.1 16.8-9 16.8h-16.8zM250 25.2c0-3.8-1.4-6.5-3.6-6.5h-8.3v13h8.3c2.2 0 3.6-2.5 3.6-6.5zm.6 25.1c0-3.9-1.4-7.1-3.9-7.1h-8.5v14.1h8.5c2.5.1 3.9-2.5 3.9-7z"/>
    <path id="XMLID_32_" class="st0" d="M261.2 69V58.3l14.6-39.6h-14.6V7.1h23.2v10.6l-14.6 39.7h14.9V69h-23.5z"/>
  </g>
</svg>