<svg id="Layer_1" xmlns="http://www.w3.org/2000/svg" viewBox="0 0 904.6 933.6">
  <style>
    .st0{fill:#FFFFFF;}
  </style>
  <g id="XMLID_1_">
    <path id="XMLID_4_" d="M326.2 19.9l-2-.1.3.5z"/>
    <path id="XMLID_5_" d="M49.7 323.5h-7l10-67.3-13.1-21.8h6.9s-5-12.7-10.7-27.4l-.2 5.6-7.3 23.1 9.6 28.5-10.9 1.4 6.1 29-8.2 64.2 24.8-35.3z"/>
    <path id="XMLID_6_" d="M287.5 24.8l14.1-5.7-6.6-3.6-30.1 9.6z"/>
    <path id="XMLID_7_" d="M84.3 28.8l-.6-6.1-15.4 19.4c2.8-2.4 9.8-8.3 16-13.3z"/>
    <path id="XMLID_8_" d="M589 46.3v-7l67.3 10L678 36.1V43s6-2.3 14.5-5.7l-20.3-6.5-28.3 9.7-1.3-10.9-28.8 6.1-49-6.3L589 46.3z"/>
    <path id="XMLID_9_" d="M262.7 25.1l-2.3-5.7-21.3 6.1z"/>
    <path id="XMLID_10_" d="M442 30.8l23 12v-7l54.3 2-4.3-16.3 34.3 13v-7.2l-11.9-1.5 9.3-4.8-70.7-3.4-.3 6.9-31.1-2.1c-.8 3-2.6 8.4-2.6 8.4z"/>
    <path id="XMLID_11_" d="M882.9 529.1l-.5.1-.1 1.3z"/>
    <path id="XMLID_12_" d="M768.8 905.3l-1.5-7.1-5.6 2.8z"/>
    <path id="XMLID_13_" d="M879.5 291.1l-.2-11.8-3.1 1.2z"/>
    <path id="XMLID_14_" d="M871.4 199.3c0 .8 1.8 35.3 1.8 35.3l-4.3-3.8 10.2 35.8-.8-52.9 5.5-11.2c-5.5-1.7-12.4-3.7-12.4-3.2z"/>
    <path id="XMLID_15_" d="M839.4 71.4l6.5 5.2 1.9-.6-1 1.3 32.3 25.7-18.3 1.8 14 10.2c1.6-2.3 8.1-11.9 8.7-13 .7-1.1-17.8-23-21.9-27.8l-.3-2.1 9-19.4-9.6-1.3 7.6-6.4-10.3-.5-.1-1-5.6-3.8-8.4 1.6-4.5 30.1z"/>
    <path id="XMLID_16_" d="M874.6 564l-2.6 20.1 14.2-20.1z"/>
    <path id="XMLID_17_" d="M886.4 378l7.8 3.6-10.1-46.3 8.1-6.1-6.5-16.1-9.4 17.5 5.8.5-1 46.5 4.8-2.5-15.5 50.5 8.3.8-11.3 15.6 13.8-5.5-1.4 20.4c2.1.7 4.1 1.3 4.4 1.3.8 0 .5-41 .5-41l19.9-3.6-18.2-35.6z"/>
    <path id="XMLID_18_" d="M108.5 29.8l7.3-5.8 5.3 8 11.8-7.2L167 45.3l13.8-14.8c-.2-1.6 5.4-19.5 5.4-19.5l-34.8 8.6-.3-9.2-17.9 9.2-3.5-17.3L108 17.6l-2.8-3.6-6.5 9c3.9 2.7 9.8 6.8 9.8 6.8z"/>
    <path id="XMLID_19_" d="M261.5 877.7l-28 9.5-22.8-7.3-53.8-1.5 1 7.3-74-7.5 8.1-6.6-1.5.2-32.8 6.2-4.8 31.2 14.6-.5v6.6l28.5-1.5-1.5 4.3 56.3-8.2s-1.5 7.4-1.3 8.1c.3.8 73.7-28.2 73.7-28.2v7l22-13.4 17.2 2.6-.9-8.3z"/>
    <path id="XMLID_20_" d="M46.1 846.7l-.3-2.1c-2.2-2.6-8.8-10.3-14.2-16.9l-11.5 1.1 25 20 1-2.1z"/>
    <path id="XMLID_21_" d="M38.5 52l-1.4 2.2 1.1 5.8z"/>
    <path id="XMLID_22_" d="M714.8 906.7s6-19.3 5.3-19.3-35.3 1.8-35.3 1.8l3.8-4.3-47.3 13.5-2.5-6.3-31.8 10-18.3-9.8-.5 5.8-46.5-1 2.5 4.8-50.5-15.5-.8 8.3-15.8-11.3 5.5 13.8-35.4-2.4 14.3 7.5s-3.3 9.9-3.3 10.7 40.6.5 40.6.5l3.5 20.1 35.3-18.3-3.5 7.9 46-10.2 6.1 8.1 31.3-12.7 83.3-1.3 13.9 6.9 8.8-9.5-8.7 2.2z"/>
    <path id="XMLID_23_" d="M881.1 768s7.3 1.5 8.1 1.3c.6-.2-16.3-44.1-24.1-64.3l-1.1 3.5-1.5 53.8 7.3-1-7.5 74-6.8-8.3 7 37.3-3.8 5.5-24.5 3-17.9 22.5-1.8-18.3-19.5 26.8-2.8-3.5-4.8 3.4 3.7 5.6 7.3-5.9s12.1 8.4 13.4 9.2c1.3.8 28.5-22.9 28.5-22.9l20.5 9.7 1.3-9.7 6.3 7.6 1.3-29.4-.3-2.9 11 1.7-.5-14.8h6.6l-1.5-28.7 4.3 1.5-8.2-56.7z"/>
    <path id="XMLID_24_" d="M428 893.5l-.1 3.3 10.6.4v-3z"/>
    <path id="XMLID_25_" d="M24.6 816.7c1.8-2.7 8.6-12.7 8.6-12.7l-5.8-7.3 8-5.3-7.2-11.8 20.5-34.3L27.8 726c.1 2.8.2 4.6.2 4.8 0 .8-19.4-5.3-19.4-5.3l8.6 35.1-9.1.3 9.1 18.1L0 782.5l15.1 21.9-3.5 2.8 13 9.5z"/>
    <path id="XMLID_26_" d="M357.8 897l9.2-4.8-75.7-9.7-22 4.6 43.9 6.6v-7.2l40.2 28.5v-16.5l34.6 13.2-3.6-13.5z"/>
    <path id="XMLID_27_" d="M27.1 712.2l2.3-4.7-.1-9.8-3-2.7s.4 8.5.8 17.2z"/>
    <path id="XMLID_28_" d="M29.2 694.2l-1-69.2-8.6-21.3-6.5 12.2 10.1 32.3-6.3 2.5z"/>
    <path id="XMLID_29_" d="M18.2 489.4l5-2c0-10.1.2-20.1.5-20.1.8 0 10.5 3.3 10.5 3.3l12-23h-7l2-54.3-16.3 4.3 13-34.3H24.3l-1.1 8.4-4.8-9.4-3.3 71.2 6.8.3-3.7 55.6z"/>
    <path id="XMLID_30_" d="M21.4 546l-3.9-7.6-1.5 5.1z"/>
    <path id="XMLID_31_" d="M15.5 550.9l-.7-3.5-1.4 4.6z"/>
    <path id="XMLID_32_" d="M23.2 500.1v-3.7l-2.4 3.5 2.4.2z"/>
    <path id="XMLID_33_" d="M17.9 561.7l-.6 31.1 6.4-4.8z"/>
  </g>
  <path id="XMLID_3_" class="st0" d="M882.2 152l17-3.5-15-21.5 3.5-2.8-26.8-19.5 18.3-1.8-32.3-25.7 1-1.3-1.9.6-6.5-5.2 7.3-47.4-14.5.5V18L804 19.5l1.5-4.3-55.8 8s1.5-7.3 1.3-8S678 43 678 43v-6.9l-21.8 13.1-67.3-10v7l-39.8-28v16.3l-34.3-13 4.3 16.3-54.3-2v7l-23-12s3.3-9.8 3.3-10.5-40.1-.5-40.1-.5L401.5 0l-35 18 3.5-7.8-45.5 10-6-8-31 12.5L205 26l-13.8-6.8-24.3 26-34.3-20.5L121 32l-5.3-8-7.3 5.8s-12-8.3-13.3-9S67 43.3 67 43.3l-20.3-9.5-1.3 9.5-6.3-7.5L38 64.6l.3 2.8-10.9-1.7.5 14.5h-6.5l1.5 28.3-4.3-1.5 8 55.8s-7.3-1.5-8-1.3 27.8 73 27.8 73h-6.9l13.1 21.8-10 67.3h7l-28 39.8h16.3l-13 34.3 16.3-4.3-2 54.3h7l-12 23s-9.8-3.3-10.5-3.3-.5 40.3-.5 40.3L3.4 511l18 35-7.8-3.5 10 45.5-8 6 12.5 31 1.3 82.5-6.8 13.8 26 24.3-20.5 34.3 7.2 11.8-8 5.3 5.8 7.3s-8.3 12-9 13.3c-.7 1.1 17.7 22.6 21.7 27.3l.3 2.1-9 19.1 9.5 1.3-7.5 6.3 10.2.4.1 1 5.5 3.8 35.6-6.7 1.5-.2-8.1 6.6 74 7.5-1-7.3 53.8 1.5 22.8 7.3 28-9.5 1.3 10.8 28.5-6 75.8 9.8-9.3 4.8 70 3.3.3-6.8 54.8 3.8-5.5-13.8 15.8 11.3.8-8.3 50.5 15.5-2.5-4.8 46.5 1 .5-5.8 18.3 9.8 31.8-10 2.5 6.3 47.3-13.5-3.8 4.3s34.5-1.8 35.3-1.8-5.3 19.3-5.3 19.3l34.5-8.5.3 9 17.8-9 3.5 17 21.5-15 2.8 3.5 19.5-26.8 1.8 18.3 17.9-22.5 24.5-3 3.8-5.5-7-37.3 6.8 8.3 7.5-74-7.3 1 1.5-53.8 7.3-22.8-9.5-28 10.8-1.3-6-28.5 9.8-75.8 4.8 9.3 3.3-70-6.8-.3 3.8-54.8-13.8 5.5 11.3-15.8-8.3-.8 15.5-50.5-4.8 2.5 1-46.5-5.8-.5 9.8-18.3-10-31.8 6.3-2.5-13.5-47.3 4.3 3.8s-1.8-34.5-1.8-35.3 19.3 5.3 19.3 5.3l-8.5-34.5 9-.3-9.8-17.8z"/>
</svg>