<svg id="Layer_1" xmlns="http://www.w3.org/2000/svg" viewBox="0 0 454.8 101.4"><style>.st0{fill:#FFFFFF;}</style><path id="XMLID_36_" class="st0" d="M421.4 61.9c.2.1.3.4.5.6.1.2.2.7.4.7.5.4 1.1.6 1.7 1l-.7.7c.4.2.5.4.7.4.7.2 1.4.1 2.2.8 1.6 1.4 3.4 2 5 2.9.2.1.4.4.7.7v.2l-3.3-.9v.3c.3.5.5.9.9 1.5-1.3 1.8-2.9 1.5-4.4 2.2.6 1.3 1.1 1.8 2.2 1.6 1.3-.2 2.5 0 3.8.8.6.4 1.3.6 2-.5-1.1-.7-2.1-1.4-3.1-2.1l.4-.4c-.2-.4-.4-.7-.6-1.1.8-.3 1.6-.3 2.1.9.5 1.5 1.1 2.5 1.9 3.1-.1.3-.1.5-.1.8 1.1.2 2.1.3 3.1.5v.6c-1.9-.2-3.8-.5-5.7-.7v.5c1.5 1.6 3.4.8 4.7 3.5v.5c-1.3-.3-2.5-.6-3.8-.8v.4c.2.1.3.3.7.6-.7.3-1.2.5-1.8.8 2.2 1.7 6 2.8 6.7 2-.3-.2-.6-.4-.9-.5V83c.3-.1.6-.5.8-.3.3.2.6.8.7 1.3.1.8.3.8.6.9.8.1.9.2 1.3 2-3.3-2.2-6.6-2.6-9.9-3.7.6 1.7 1.7.3 2.2 2.5-1.5-.6-3.1-1.2-4.7-1.8.2 1 .3 1.8.4 2.7-.8-.2-1-1.3-1.2-2.3-.1-.5-.3-1-.5-1.2-1.4-1-2.9-1.8-4-.1-1.2-.7-2.2-1.5-3.2-1.8-1.6-.5-3.2-.7-4.8-1-.1 0-.3.1-.4.2l-.6.6-.3.3c.2.4.4.5.6.6l8.1 3.3c.5.2 1.1.6 1.6 1v.4c-11.1-3.9-22.2-6.8-33.3-9.3 6.4 1.9 12.8 3.7 19.2 5.6 6.5 2 13 4.5 19.4 8.2.2.1.4.3.6.6.5.9 1 1.9 1.5 2.8-.5 0-1.2-.3-1.6.2-.8.9-1.5.4-2.3.3-.7-.1-1.4-.3-2.1-.3-3-.3-6.1-.5-9.1-.8-.9-.1-1.9-.1-2.9-.2 1.3 1.9 2.6 3.2 4.1 3.3.4 0 .7.6 1.1.9v.4c-.8.1-1.4.6-1.7 2.3.3.1.6.2.9.2-.1.3-.1.3-.2.3-2.1.2-4.1.6-6.2.5-2.3 0-4.6-.3-6.9-.6-3.1-.4-6.2-.9-9.4-1.3-3.2-.5-6.4-1.2-9.5-1.4-7.8-.6-290.1-1-297.9-1.5-.3 0-.5.4-.8.6-.3.2-.6.3-.8.4 0-.1 0-.3-.1-.4l.4-.4c-.7-.1-1.2-.1-1.8-.2-1.8-.1-3.5-.3-5.3-.4-6.3-.3-12.7-.6-19-.7-2.4 0-4.7.2-7 .9-2 .6-4 .2-6 .4-6.1.7-12.3 1.5-18.4 2.3-3.3.4-6.6.8-10 1.1-.6.1-1.3-.3-1.9-.2-1.7.2-3.4.5-5 .6-1 .1-2-.1-2.9-.2v-.4c1.9-1.3 4.1-.4 5.9-1.9-.9-.1-1.8 0-2.7 0-.3 0-.7-.1-1-.1-.5 0-1.1.1-1.6-.1s-.6-1.1-.2-1.6c.4-.5.8-1.1 1.2-1.4 1.8-1 3.6-1.8 5.4-2.7.4-.2.8-.4 1.1-.7.5-.4 1-1.1 1.5-1.3 1.3-.5 2.6-.8 3.7-2 .6-.6 1.3-1.2 2-1.3 3.8-.9 7.6-1.8 11.4-2.6 6.2-1.2 12.4-2.3 18.6-3.4 1.6-.3 3.2-.5 4.8-.8-2-.3-3.9-.2-5.8-.5-3-.4-6.1.4-9.1-.8-5.1.3-10.2.5-15.3 1.1-7.6.8-15.2 2.7-22.6 5.4-.2.1-.5.2-.6.6-.3 1-.5.5-.6-.3-.1-.9-.3-1-.7-.8-.5.2-1.1.4-1.6.5-.5.1-1-.1-1.5-.1 0-.2 0-.4-.1-.5.8-1.6 1.9-2.5 2.9-3.5.7-.7 1.5-.9 2.2-1.5l7.2-5.4c.1-.1.1-.2.2-.2.7-.6 1.4-1.3 2.2-1.8.8-.5 1.6-.7 2.3-1.1 0-.1 0-.3-.1-.4h-.7c-.6.1-1.2.3-1.8.3-.5 0-1.1-.2-1.4-1.7 1.8-1.1 3.5-2.2 5.3-3.3V66c-.2-.1-.3-.1-.7-.3 1.7-.8 3.4-.8 4.8-2.4V63c-.5 0-.9 0-1.4.1v-.4c.4-.2.7-.5 1.1-.6.6-.2 1.2-.2 1.8-.3 1.3-.1 2.5-.5 3.8-1.3 1.4-1 3-1.1 4.6-1.5 1.6-.4 3.2-.7 4.7-1-3.9-.1-7.7 1.4-11.6 1.2-3.9-.3-7.7.1-11.6-1.5h.7c0-.1 0-.2-.1-.3.2-.3.5-.7.8-1.1-.7-.5-1.4.9-2.3-.7.9-.2 1.6-.6 2.3-.4 1.4.3 2.3-1.6 3.6-2-.2-.7-.3-1.2-.4-1.8 1.1-.4 2.2-.9 3.2-1.3s2-.6 3-1c1.6-.7 3.1-1.9 4.7-2.3 2.8-.8 5.5-1.2 8.3-1.8 0-.2-.1-.3-.1-.5.1-.2.3-.6.4-.7 1-.3 2-.5 3-.7.3-.1.6-.2.9-.4 0-.2 0-.4-.1-.5-3 .5-6.1 1-9.1 1.6v-.4c.9-.2 1.8-.4 2.7-.7.2-.1.5-.2.5-.5.4-1.7 1.3-1.9 2.2-2.6l-.5 1.5c.7.1 1.3.2 1.9.1.8-.1 1.7-.3 2.5-.3s.9-.8.8-2.3c-.7.1-1.4.3-2.1.4-.1 0-.3.1-.4-.1-1.4-1.3-2.6-.9-3.9-.1-.2.1-.4.1-.6.1-.3-.1-.7-.5-1-.4-1.6.2-3.2.5-4.9.6-.6 0-1.2-.4-1.9-.7.2-.6.2-.9.4-1.5-1.6.1-3 .2-4.4.2v-.4c1.4-1.6 3.2-.6 4.9-2-.5-.1-.8-.2-1.1-.2-2.1.1-4.3.3-6.4.4-1.2.1-2.3 0-3.5 0v-.7c3.9-.8 7.8-1.7 11.7-2.5v-.5c-.5-.1-.9-.3-1.4-.3-1.4 0-2.9.2-4.3.3-.5 0-1 .2-1.6-1 1-.2 2-.5 2.9-.7 2.1-.4 4.1-.6 6.2-1 .3-.1.9-.2.9-.4 0-1.1.4-.6.7-.7.3-.1.7-.1 1-.1v-.4l-.1-.1c-5-.6-9.9-.9-14.8.3-.2 0-.4-.1-.5-.2-.2-.2-.5-.6-.7-.6-1.3-.1-2.6-.2-4.1-.3.4-.3.7-.4 1-.6-.7-.1-1.4-.1-2.1-.1-.2 0-.5-.1-.5-.2-.1-1.4-.6-.9-1-1-.5-.1-.9.1-1.4.1-.2 0-.4-.1-.5-.3C9.4 23 8.8 22 8.3 21c-.3-.6-.7-1.2-.8-1.9-.2-.9-.2-2.1-.1-2.8.1-.6.7-.9 1.1-.8.6.2 1.3.7 1.9 1.1.2.1.3.4.5.3 1.3-.4 2.6-.9 3.8-1.4.2.5.5 1.5.7 1.5.9-.3 1.9-.4 2.5-1.4.5-.8 1-1.2 1.6-1.6 1.1-1 2.3-2.1 3.5-2.7 2.8-1.3 5.7-2.5 8.6-3.3C37 6 43.1 4.5 49.1 3.3c5.5-1.1 11-1.8 16.6-2.3C72.8.4 79.8-.1 86.9 0c7.6.1 289.7.9 297.3 1.6 5.6.6 11.3 1.6 16.9 2.5.5.1 1.1.2 1.8.4-.4.3-.6.4-.8.5v.2c3.1.5 6.2 1 9.2 1.5v.2c-.1.1-.3.1-.4.2.3.2.7.2 1 .3 1.3.4 2.7.6 4 1.2 1 .4 2 1.2 3.1.6-.1.4-.2.6-.3.9 1.6.5 3.1.9 4.6 1.4 1.5.5 3 1.1 4.5 1.6 1.5.6 2.9 1.2 4.4 1.8v.7c-1.2-.1-2.3-.3-3.5-.4-1.1-.1-2.2-.2-3.3-.2-.2 0-.4.5-.7.8.2.4.4 1 .6 1.2.6.4 1.3.6 1.9.9.6.3 1.2.6 1.8.8v.5c-.3.1-.5.2-.8.2-.9.1-1.7 0-2.6.2-.3.1-.6.7-.9 1 0 .1.1.2.1.4 2.4.3 4.8.7 7.2 1-.1.6-.2.9-.2 1.5 1.6.3 3 .5 4.5.8-.1.3-.2.5-.3.8 4.7 2.1 9.5 1.9 14.1 4.6v.6c-1.1-.2-2.3-.3-3.4-.5v.3c1.1.3 2.2.7 3.3 1v.3c-.1.1-.3.2-.4.3v.3l5.1 1.5v1.4c-1.7.2-3.3-1.2-5-.4.9.3 1.8.7 2.7 1v.4c-5.7-.7-11.5-2.6-17.2-1.8 1.9.5 3.8 1.1 5.7 1.6v.3c-1.3-.1-2.6-.2-3.9-.4v.4c.1.2.3.4.4.5v.2c-.4-.1-.7-.2-1.1-.3v-.7c-.6.2-1.2.3-1.8.5.1.2.3.4.4.5-.8.3-1.6.5-2.3.8v.4c.5.2 1 .3 1.5.5-.3.7-.4 1.2-.6 1.7.7.8 1.4 1.4 2 2.1-1.2.3-2.4-.8-3.7.4.3.2.4.4.5.4.6.1.7.6.4 1.6-.2.6-.2 1.3-.3 2-.3-.3-.6-.7-.9-1-.4-.4-.7-1.3-1.2-.7-.1.1-.3-.5-.4-.7-.6-.7-1.3-.9-1.5.8-.1-.2-.2-.3-.4-.5.1 2.1-.1 2.4-1.1 2.2-.4-.1-.7-.1-1.1-.2v.3c.2 0 .4.1.6.1v.4h-.8c-.6 0-1.3-.3-1.9.1-.4.3-.7.4-1.2.3-.2-.1-.5.2-.8.3.2.5.3 1.1.5 1.5.3.5.7.8 1.1 1.3-.7 1-1.3.7-2.1-.7-.3-.5-.8-1.1-1.1-.9-.8.3-1.1-1.2-1.7-1.6-.5-.3-1.1-.5-1.3.4-.2 1-.6.8-.9.2-.2-.3-.3-.6-.5-.9 0-.1-.1 0-.2 0l.4 1.2c-.7-.4-1.2-.6-1.5-.8-1.7.9-3.5-.7-5.1.1 0 .4.1.7.1 1.1l-.2.2c-.1-.5-.2-.9-.3-1.5-.2 0-.4 0-.7-.1 0 .6.1 1 .1 1.5 0 .1-.1.2-.1.4-.4-2.7-1.4-2-2.2-2.1-.8-.1-1.7-.4-2.2 1.5 1 .2 1.9.4 2.8.6v.6c-.3.1-.6.1-.9.2 1.5.7 3-.1 4.4 1.4-.8 0-1.7.1-2.5.1 2.8.6 5.6 1 8.5 1.4.6.1 1.2.4 1.8.6v.5c-.4 0-.7-.1-1.1-.1v.3c1 .3 2 .6 2.9.9 3.1.8 6.2 1.7 9.3 2.2 1.5.3 2.8 2.8 4.3 2.4 0 0 0 .1.1.4-.9 0-1.8.1-2.5 1.2-.1.2-.3.1-.5 0-2.5-.4-4.9-1-7.4-1.3-1.5-.2-3.1-1.1-4.5.3 1.1.4 2 .8 2.9 1.4zm-13 17.6c-2.1-.7-4.2-1.2-6.3-1.9-1.3-.4-2.6-1.2-3.9-1.6-.7-.2-1.5 0-2.2-.1-.9-.1-1.8-.5-2.8-.7v.5c.6.3 1.3.7 1.9.8 1.7.4 3.5.5 5.2 1 3.4 1 6.9 2.1 10.3 3.2h.2v-.3c-.8-.2-1.6-.6-2.4-.9zm10.5-16.1c-2-.8-4.1-1.6-6.1-2.4-.7-.3-1.3-.6-2-.9v.7c.7.3 1.4.5 2 .9.5.3 1 .7 1.4 1.2.7.9 1.4 1.5 2.2 1.2.2-.1.4.1.6.2 1.6.4 3.1.9 4.7 1.3V65c-.9-.7-1.8-1.2-2.8-1.6zM54.3 64s0-.1 0 0c-1.3 0-2.5 0-3.8.1v.5c1.3-.2 2.6-.4 3.8-.6zm6.3-.6v-.1c-1.2.1-2.4.1-3.5.2v.5c1.1-.2 2.3-.4 3.5-.6zm346.8-4.1v.3c.7.3 1.5.5 2.2.8v-.3c-.7-.3-1.4-.5-2.2-.8z"/><path id="XMLID_539_" d="M53.1 58.5c-1.3-1.3-2.7-.5-4-.3-2.2.3-4.3.8-6.5 1.2-.2 0-.4.1-.5 0-.6-1-1.4-1.1-2.2-1.1 0-.2.1-.4.1-.4 1.4.4 2.5-1.9 3.8-2.1 2.8-.5 5.5-1.2 8.3-1.9.9-.2 1.7-.5 2.6-.8v-.3c-.3 0-.7.1-1 .1v-.5c.5-.2 1.1-.4 1.6-.5 2.5-.4 5-.8 7.5-1.3-.7 0-1.5-.1-2.2-.1 1.3-1.3 2.6-.7 3.9-1.2-.3 0-.6-.1-.8-.1v-.5c.8-.2 1.6-.4 2.5-.6-.5-1.7-1.3-1.4-2-1.4s-1.6-.6-1.9 1.8c0-.1-.1-.2-.1-.3 0-.4 0-.8.1-1.3h-.6c-.1.5-.2.9-.2 1.3-.1 0-.1-.1-.2-.1 0-.3.1-.7.1-1-1.4-.8-3 .7-4.5-.1-.3.2-.7.4-1.3.7.2-.6.3-.8.4-1.1-.1 0-.2-.1-.2 0-.2.3-.3.5-.4.8-.3.5-.6.7-.8-.2-.2-.8-.7-.7-1.2-.4-.5.4-.8 1.7-1.5 1.4-.3-.1-.7.4-1 .8-.8 1.2-1.3 1.5-1.9.6.3-.4.7-.7.9-1.1.2-.3.3-.9.5-1.3-.2-.1-.5-.4-.7-.3-.4.1-.7 0-1-.3-.5-.3-1.1-.1-1.7-.1h-.7v-.4c.2 0 .4-.1.5-.1v-.3c-.3.1-.6.1-1 .2-.8.2-1 0-1-1.9-.1.2-.2.3-.3.4-.2-1.5-.8-1.3-1.3-.7-.1.2-.3.7-.4.6-.4-.5-.7.3-1.1.6-.3.3-.5.6-.8.9-.1-.6-.2-1.3-.3-1.8-.3-.9-.2-1.3.4-1.4.1 0 .2-.2.5-.4-1.1-1.1-2.2-.1-3.3-.3.6-.6 1.1-1.2 1.8-1.9-.2-.4-.3-.9-.5-1.5.5-.2.9-.3 1.3-.4v-.3c-.7-.2-1.4-.4-2.1-.7.1-.1.2-.3.3-.5-.5-.1-1-.3-1.6-.4v.6c-.3.1-.6.2-1 .2v-.2c.1-.2.2-.3.3-.5V36c-1.2.1-2.3.2-3.5.3v-.2c1.7-.5 3.4-.9 5.1-1.4-5.1-.7-10.2.9-15.3 1.6v-.4l2.4-.9c-1.4-.6-2.9.5-4.4.4v-1.2c1.5-.5 3-.9 4.5-1.4v-.3c-.1-.1-.3-.2-.4-.3V32c1-.3 2-.6 2.9-.9v-.2c-1 .1-2 .3-3 .4v-.5c4.1-2.3 8.3-2.2 12.5-4-.1-.2-.2-.4-.3-.7 1.3-.2 2.6-.4 4-.7-.1-.5-.1-.8-.2-1.3 2.1-.3 4.3-.6 6.4-.9 0-.1.1-.2.1-.3-.3-.3-.5-.8-.8-.9-.7-.2-1.5-.1-2.3-.2-.2 0-.5-.1-.7-.2v-.4c.5-.2 1-.5 1.6-.7.6-.3 1.1-.4 1.7-.8.2-.1.4-.7.5-1-.2-.2-.4-.7-.6-.7-1 0-1.9.1-2.9.2s-2 .2-3.1.3v-.6c1.3-.5 2.6-1.1 3.9-1.6 1.3-.5 2.6-1 4-1.4 1.3-.4 2.6-.8 4-1.2-.1-.3-.2-.4-.3-.8 1 .5 1.9-.1 2.8-.5 1.2-.5 2.4-.7 3.6-1 .3-.1.6-.1.9-.3-.1-.1-.2-.1-.4-.2v-.2c2.7-.4 5.5-.9 8.2-1.3v-.2c-.2-.1-.3-.2-.7-.5.6-.1 1.1-.3 1.6-.3 5-.7 10-1.7 15-2.2 6.9-.1 256.8-.8 263.5-.9 6.3-.1 12.5.4 18.8.9 4.9.4 9.8 1.1 14.7 2 5.4 1 10.7 2.4 16.1 3.8 2.6.7 5.1 1.8 7.6 2.9 1.1.5 2.1 1.5 3.1 2.3.5.4 1 .8 1.4 1.4.6.9 1.5 1 2.3 1.2.1 0 .4-.8.6-1.3 1.1.4 2.2.8 3.4 1.2.1 0 .3-.2.4-.3.6-.4 1.1-.9 1.7-1 .3-.1.9.2 1 .7.2.6.1 1.7 0 2.5-.1.6-.4 1.1-.7 1.6-.5.9-.9 1.7-1.4 2.5-.1.2-.3.3-.5.3-.4 0-.8-.2-1.2-.1-.3.1-.8-.4-.9.9 0 .1-.3.2-.4.2-.6 0-1.2-.1-1.8.1.2.1.5.3.9.5-1.3.1-2.5.1-3.6.2-.2 0-.4.4-.6.5-.2.1-.3.2-.5.2-4.3-1-8.7-.8-13.1-.2l-.1.1v.3c.3 0 .6 0 .9.1.2.1.6-.4.6.6 0 .2.5.3.8.4 1.8.3 3.7.6 5.5.9.8.1 1.7.4 2.6.6-.5 1.1-.9.9-1.4.9-1.3-.1-2.5-.2-3.8-.2-.4 0-.8.2-1.2.3v.4c3.4.7 6.9 1.5 10.3 2.2v.6c-1 0-2.1.1-3.1 0-1.9-.1-3.8-.3-5.7-.4-.3 0-.5.1-1 .2 1.5 1.2 3 .3 4.3 1.7v.3c-1.3-.1-2.5-.1-3.9-.2.1.5.2.7.4 1.3-.6.2-1.2.6-1.7.6-1.4-.1-2.9-.4-4.3-.5-.3 0-.6.3-.9.4-.2.1-.4 0-.5-.1-1.1-.7-2.3-1-3.5.1-.1.1-.3.1-.4 0-.6-.1-1.2-.2-1.9-.3-.1 1.3.1 2 .7 2 .7 0 1.5.3 2.2.3.5 0 1-.1 1.7-.1-.2-.5-.2-.8-.4-1.3.8.6 1.6.8 1.9 2.3.1.3.3.4.5.4l2.4.6v.3c-2.7-.5-5.4-.9-8.1-1.4 0 .2 0 .3-.1.5.3.1.5.3.8.3.9.2 1.8.4 2.7.7.1 0 .3.4.4.6 0 .1-.1.3-.1.4 2.5.5 4.9.9 7.4 1.6 1.4.4 2.8 1.4 4.2 2 .9.4 1.8.6 2.7.9.9.3 1.8.7 2.8 1.1-.1.6-.3 1-.4 1.6 1.1.3 1.9 2 3.2 1.7.6-.2 1.3.2 2 .4-.7 1.4-1.4.2-2 .6.2.3.5.6.7.9 0 .1 0 .2-.1.3h.7c-3.4 1.4-6.9 1.1-10.3 1.3-3.5.2-6.8-1.1-10.3-1 1.4.3 2.8.5 4.2.9 1.4.3 2.8.5 4 1.3 1.1.7 2.2 1 3.3 1.1.5 0 1.1.1 1.6.2.3.1.7.4 1 .5v.4c-.4 0-.8 0-1.2-.1v.3c1.2 1.4 2.7 1.4 4.2 2.1-.3.1-.5.2-.6.2v.3c1.5.9 3.1 1.9 4.7 2.9-.3 1.3-.8 1.5-1.3 1.5s-1-.2-1.6-.3h-.6v.4c.7.3 1.4.5 2.1 1 .7.4 1.3 1 1.9 1.6.1.1.1.2.2.2l6.3 4.8c.6.5 1.3.7 2 1.3.9.9 1.9 1.7 2.6 3.1 0 .2 0 .3-.1.5-.4 0-.9.2-1.3.1-.5-.1-1-.3-1.4-.5-.3-.1-.5-.1-.6.7-.1.7-.3 1.2-.6.3-.1-.3-.3-.4-.5-.5-6.6-2.4-13.3-4.1-20-4.8-4.5-.5-9.1-.6-13.6-.9-2.7 1.1-5.4.4-8.1.7-1.7.2-3.4.2-5.2.5 1.4.2 2.8.4 4.3.7 5.5 1 11 1.9 16.5 3 3.4.7 6.7 1.4 10.1 2.3.6.1 1.2.6 1.7 1.2 1 1.1 2.2 1.3 3.3 1.7.5.2.9.8 1.3 1.2.3.3.7.5 1 .6l4.8 2.4c.4.2.7.7 1.1 1.2.4.5.3 1.2-.2 1.4-.5.2-.9.1-1.4.1-.3 0-.6.1-.9.1-.8 0-1.6-.1-2.4 0 1.7 1.4 3.6.6 5.3 1.7v.3c-.9.1-1.7.2-2.6.2-1.5-.1-3-.4-4.5-.6-.6-.1-1.2.3-1.7.2-2.9-.3-5.9-.6-8.8-1-5.4-.7-10.9-1.4-16.3-2-1.8-.2-3.6.2-5.4-.3-2.1-.7-4.2-.9-6.2-.8-5.6.1-11.2.4-16.9.6-1.6.1-3.1.2-4.7.3-.5 0-1 .1-1.6.2.2.2.3.3.4.3 0 .1 0 .2-.1.3-.2-.1-.5-.2-.7-.4-.2-.2-.4-.5-.7-.5-6.9.4-257 .8-264 1.3-2.8.2-5.6.8-8.5 1.2-2.8.4-5.5.8-8.3 1.2-2 .3-4.1.5-6.1.6-1.8 0-3.7-.3-5.5-.5-.1 0-.1 0-.2-.3.3-.1.5-.1.8-.2-.2-1.5-.8-1.9-1.5-2v-.3c.3-.3.6-.8 1-.8 1.3-.1 2.4-1.2 3.6-2.9-.9.1-1.7.1-2.6.2-2.7.2-5.4.5-8.1.7-.6.1-1.3.2-1.9.3-.7 0-1.3.5-2-.3-.4-.4-1-.1-1.4-.1.4-.8.9-1.6 1.3-2.4.1-.3.3-.4.5-.5 5.7-3.3 11.4-5.5 17.2-7.3 5.7-1.7 11.3-3.2 17-4.9-9.9 2.6-19.8 5.2-29.6 8.6V81c.5-.3.9-.7 1.4-.9 2.4-1 4.8-1.9 7.2-2.9.2-.1.3-.2.5-.5l-.3-.3c-.2-.2-.4-.3-.5-.5-.1-.1-.2-.2-.4-.2-1.4.3-2.8.4-4.2.9-.9.3-1.8 1-2.8 1.6-1-1.5-2.2-.8-3.5.1-.2.1-.4.6-.5 1.1-.2.9-.4 1.8-1.1 2 .1-.8.2-1.4.4-2.3-1.4.5-2.8 1.1-4.1 1.6.5-1.9 1.4-.7 2-2.2-2.9 1-5.9 1.3-8.8 3.3.4-1.6.4-1.7 1.2-1.8.3 0 .4-.1.5-.7.1-.4.4-.9.6-1.1.2-.1.5.2.7.3v.4c-.3.2-.5.3-.8.5.7.7 4-.3 6-1.8-.6-.2-1-.4-1.6-.7.3-.3.4-.4.6-.5V76c-1.1.2-2.2.5-3.4.7v-.4c1.2-2.4 2.8-1.7 4.1-3.1v-.4l-5.1.6v-.5c.9-.1 1.8-.3 2.7-.4 0-.2-.1-.5-.1-.7.7-.5 1.2-1.4 1.7-2.7.4-1 1.1-1 1.8-.8-.2.4-.4.7-.5 1 .1.1.2.2.4.3-.9.6-1.8 1.2-2.8 1.8.6 1 1.2.8 1.8.5 1.1-.7 2.2-.9 3.4-.7 1 .2 1.4-.2 1.9-1.4-1.3-.7-2.7-.4-3.9-2 .3-.5.5-.9.8-1.3v-.3c-1 .3-2 .5-3 .8v-.2c.2-.2.4-.5.6-.6 1.5-.8 3-1.3 4.5-2.6.7-.6 1.3-.5 1.9-.7.2 0 .3-.2.6-.4-.2-.2-.4-.3-.6-.6.6-.3 1.1-.6 1.5-.9.1-.1.2-.5.3-.7.1-.2.3-.5.4-.6.7-.4 1.5-.8 2.3-1.2zm7 17.7v.2h.2c3-.9 6.1-1.9 9.1-2.8 1.5-.4 3.1-.6 4.6-.9.6-.1 1.1-.5 1.7-.7v-.4c-.8.2-1.6.5-2.4.6-.7.1-1.3-.1-1.9.1-1.2.4-2.3 1-3.5 1.4-1.9.6-3.7 1.1-5.6 1.7-.8.2-1.5.5-2.2.8zm-9.8-13.9v.5c1.4-.4 2.8-.8 4.2-1.1.2-.1.4-.2.6-.2.7.3 1.3-.3 2-1.1.4-.5.8-.8 1.2-1 .6-.3 1.2-.5 1.8-.8V58c-.6.3-1.2.6-1.8.8-1.8.7-3.6 1.4-5.4 2.2-.9.5-1.7.9-2.6 1.3zm328.9-.1v-.4c-1.1-.1-2.2-.1-3.3-.2v.1c1.1.1 2.2.3 3.3.5zm-5.7-.6v-.4c-1-.1-2.1-.1-3.1-.2v.1c1 .2 2.1.4 3.1.5zM61.1 58.2v.3c.6-.2 1.3-.4 1.9-.7v-.3c-.6.2-1.3.5-1.9.7z"/><g id="XMLID_2_"><path id="XMLID_3_" class="st0" d="M100.7 64c0 4.2-.8 7.8-2.5 10.8-1.1 2-2.7 3.5-4.7 4.3-1.1.4-2.4.7-3.8.7-2.7 0-4.9-.9-6.7-2.6-1.5-1.4-2.6-3.4-3.5-5.9-.9-2.5-1.4-5.3-1.5-8.5l6.5-.6c.3 3.5 1 6.1 2.1 7.6.8 1.2 1.8 1.8 2.8 1.7 1.5-.1 2.7-1 3.6-2.9.5-.9.7-2.3.7-4 0-2.5-.9-5-2.6-7.5-1.4-1.7-3.4-4.3-6.1-7.7-2.3-2.9-3.9-5.5-4.8-7.9-1-2.6-1.5-5.4-1.5-8.5 0-5.5 1.4-9.7 4.2-12.5 1.7-1.7 3.8-2.6 6.4-2.6 2.4 0 4.5.7 6.3 2.2 1.4 1.1 2.4 2.7 3.3 4.7.8 2 1.3 4.3 1.5 7l-6.6 1.6c-.2-2.5-.7-4.4-1.6-5.8-.6-1-1.5-1.5-2.7-1.5-1.3 0-2.2.7-2.9 2.2-.5 1.2-.8 2.7-.8 4.4 0 2.8.9 5.6 2.7 8.4.7 1.1 1.7 2.4 3 3.9 1.6 1.8 2.6 3 3.1 3.7 1.7 2.2 3 4.5 3.9 6.6.4 1 .8 2 1 2.8.8 2.2 1.1 4.2 1.2 5.9z"/><path id="XMLID_5_" class="st0" d="M113.2 79h-6.8V18.7h6.8V79z"/><path id="XMLID_7_" class="st0" d="M130.1 79.8c-3 0-5.6-1.4-7.7-4.2-2.1-2.8-3.2-6.2-3.2-10.2v-33c0-4 1.1-7.4 3.2-10.2 2.1-2.8 4.7-4.2 7.7-4.2s5.6 1.4 7.7 4.2 3.1 6.2 3.1 10.2v6.9h-7.1v-7.1c0-1.4-.4-2.7-1.2-3.7-.8-1-1.7-1.5-2.8-1.5s-2 .5-2.8 1.5c-.8 1-1.1 2.3-1.1 3.7v33c0 1.4.4 2.7 1.1 3.7.8 1 1.7 1.5 2.8 1.5s2-.5 2.8-1.5c.8-1 1.2-2.2 1.2-3.7V53.4H130v-9.1h10.9v21.1c0 4-1.1 7.4-3.2 10.2-2.1 2.8-4.7 4.2-7.6 4.2z"/><path id="XMLID_9_" class="st0" d="M154.5 18.6l9.1 40.6V18.6h6.8V79h-7.3l-9.4-38.7V79h-6.8V18.6h7.6z"/><path id="XMLID_11_" class="st0" d="M195.4 79.7c-3 0-5.6-1.4-7.7-4.2-2.1-2.8-3.1-6.2-3.1-10.2V18.7h6.7v46.6c0 1.4.4 2.7 1.2 3.7.8 1 1.7 1.5 2.8 1.5s2-.5 2.8-1.5c.8-1 1.1-2.2 1.1-3.7V18.7h7.1v46.6c0 4-1.1 7.4-3.2 10.2-2.2 2.8-4.7 4.2-7.7 4.2z"/><path id="XMLID_13_" class="st0" d="M223.1 18.7c3.3 0 6 1.4 8 4.2 1.8 2.7 2.8 6.1 2.8 10.2v8.8c0 4-1 7.4-3.1 10.2-2.1 2.8-4.6 4.2-7.6 4.2h-3.9V79h-6.8V18.7h10.6zm4.1 14.5c0-1.6-.4-2.8-1.1-3.8-.7-1-1.7-1.4-2.8-1.4h-4.1v19.3h4.1c1.1 0 2-.5 2.8-1.5.8-1 1.1-2.3 1.1-3.7v-8.9z"/><path id="XMLID_16_" class="st0" d="M255.2 27.8h-7.3v-9.1h21.4v9.1H262V79h-6.8V27.8z"/><path id="XMLID_18_" class="st0" d="M284.8 17.9c3 0 5.6 1.4 7.7 4.2 2.1 2.8 3.2 6.2 3.2 10.2v32.9c0 4-1.1 7.4-3.2 10.2-2.1 2.8-4.7 4.2-7.7 4.2s-5.6-1.4-7.7-4.2-3.1-6.2-3.1-10.2V32.3c0-4 1.1-7.4 3.2-10.2 2.1-2.8 4.6-4.2 7.6-4.2zm3.7 14.2c0-1.4-.4-2.7-1.1-3.7-.8-1-1.7-1.5-2.8-1.5s-2 .5-2.8 1.5c-.8 1-1.2 2.2-1.2 3.7v33c0 1.4.4 2.7 1.2 3.7.8 1 1.7 1.5 2.8 1.5s2-.5 2.8-1.5c.8-1 1.1-2.2 1.1-3.7v-33z"/><path id="XMLID_21_" class="st0" d="M323.1 64.5c0 4-1 7.4-3.1 10.2s-4.6 4.2-7.6 4.2h-10.7V18.6h10.7c3 0 5.5 1.4 7.6 4.2 2.1 2.8 3.1 6.2 3.1 10.2v31.5zM308.5 70h4.1c1.1 0 2-.5 2.8-1.6.7-1 1.1-2.3 1.1-3.7V33.2c0-1.4-.4-2.7-1.1-3.7-.8-1-1.7-1.5-2.7-1.5h-4.1v42z"/><path id="XMLID_24_" class="st0" d="M336.6 65.1L335 79h-7.1l7.7-60.3h9.4l7.6 60.3h-7.2l-1.6-13.9h-7.2zm3.6-32.6l-2.5 23.8h5.1l-2.6-23.8z"/><path id="XMLID_27_" class="st0" d="M360.1 53.7l-9.2-35.1h7.5l5.1 21.7 5-21.7h7.6l-9.2 35.1V79h-6.8V53.7z"/></g></svg>